<svg width="50" height="32" viewBox="0 0 50 32" fill="none" xmlns="http://www.w3.org/2000/svg">
<rect x="0.5" y="0.5" width="49" height="31" rx="2.5" stroke="white" stroke-opacity="0.5"/>
<g clip-path="url(#clip0_102_1641)">
<path d="M20.9409 16.4349L21.8599 10.8659H20.8783C20.4188 10.8659 19.827 10.6183 19.653 10.1631C19.5973 10.0092 19.465 9.48041 20.2239 8.96501C20.4954 8.78429 20.6694 8.58349 20.7042 8.42954C20.739 8.26889 20.6973 8.12833 20.5789 8.02124C20.4118 7.86729 20.0846 7.78027 19.6669 7.78027C18.9638 7.78027 18.4695 8.16849 18.4208 8.44962C18.3859 8.65711 18.553 8.82445 18.6992 8.93155C19.1378 9.24614 19.2422 9.70129 18.9707 10.1297C18.6923 10.5714 18.0866 10.8593 17.4391 10.8659H16.4366C16.3531 11.4081 14.9886 19.7214 14.8842 20.3773H20.3004C20.3492 20.0895 20.5998 18.5166 20.9409 16.4349Z" fill="white"/>
<path d="M14.5918 22.3052H16.8126C17.7594 22.3052 17.9891 22.767 17.9195 23.1887C17.8638 23.5301 17.6201 23.7844 17.2024 23.9518C17.7315 24.1459 17.9404 24.4471 17.8638 24.9223C17.7663 25.518 17.2303 25.9598 16.5271 25.9598H14L14.5918 22.3052ZM16.0607 23.8179C16.4923 23.8179 16.6942 23.597 16.736 23.336C16.7778 23.0548 16.6455 22.8607 16.2139 22.8607H15.831L15.6778 23.8179H16.0607ZM15.824 25.3909C16.2695 25.3909 16.5271 25.2168 16.5898 24.8621C16.6385 24.5542 16.4575 24.3734 16.0259 24.3734H15.5943L15.4272 25.3975H15.824V25.3909Z" fill="white"/>
<path d="M20.9757 25.9865C20.3979 26.0267 20.1194 25.9664 19.9802 25.7255C19.6739 25.9062 19.3328 25.9999 18.9707 25.9999C18.3163 25.9999 18.0866 25.6719 18.1493 25.3105C18.1771 25.1364 18.2815 24.9691 18.4486 24.8285C18.8106 24.5273 19.7017 24.4872 20.0498 24.2596C20.0777 24.0052 19.9732 23.9115 19.646 23.9115C19.2631 23.9115 18.9429 24.032 18.3929 24.3935L18.5252 23.5635C18.9986 23.2355 19.4581 23.0815 19.9872 23.0815C20.6625 23.0815 21.2612 23.3493 21.1498 24.0588L21.0175 24.862C20.9688 25.1431 20.9827 25.2301 21.3099 25.2368L20.9757 25.9865ZM19.9732 24.7214C19.6669 24.9089 19.0961 24.8754 19.0334 25.2636C19.0056 25.4443 19.1239 25.5782 19.3119 25.5782C19.4998 25.5782 19.7157 25.5046 19.8967 25.3841C19.8827 25.3172 19.8897 25.2502 19.9106 25.123L19.9732 24.7214Z" fill="white"/>
<path d="M22.0548 23.1284H23.2105L23.1478 23.4965C23.5168 23.1953 23.7953 23.0815 24.1573 23.0815C24.8047 23.0815 25.1041 23.4631 24.9997 24.0856L24.7003 25.953H23.5446L23.7953 24.4068C23.844 24.1257 23.7535 23.9919 23.5307 23.9919C23.3497 23.9919 23.1826 24.0856 23.0225 24.2931L22.758 25.9463H21.6023L22.0548 23.1284Z" fill="white"/>
<path d="M25.9047 22.3052H27.0603L26.7679 24.099L27.8749 23.1285H29.302L27.8818 24.3333L29.0236 25.9531H27.5686L26.6914 24.6412H26.6774L26.4686 25.9464H25.3129L25.9047 22.3052Z" fill="white"/>
<path d="M29.9913 22.3052H31.321L30.7362 25.9531H29.4065L29.9913 22.3052Z" fill="white"/>
<path d="M31.9684 22.3052H33.869C35.3379 22.3052 35.7626 23.3293 35.6233 24.1793C35.4911 25.0093 34.8088 25.9531 33.5209 25.9531H31.3766L31.9684 22.3052ZM33.2006 25.083C33.8481 25.083 34.2031 24.7751 34.3076 24.1258C34.3841 23.6439 34.231 23.1686 33.5139 23.1686H33.1589L32.8525 25.083H33.2006Z" fill="white"/>
<path d="M28.223 6H22.6883L21.9504 10.5047H22.8902C23.4054 10.5047 23.8927 10.2771 24.1016 9.94913C24.1712 9.84204 24.199 9.74833 24.199 9.66131C24.199 9.4739 24.0668 9.33333 23.9345 9.23963C23.5725 8.97858 23.4959 8.70415 23.4959 8.51004C23.4959 8.46988 23.4959 8.43641 23.5029 8.40295C23.5794 7.92771 24.2478 7.41232 25.1319 7.41232C25.661 7.41232 26.0648 7.5328 26.3085 7.75368C26.5243 7.94779 26.6078 8.22222 26.5452 8.51004C26.4686 8.85141 26.1135 9.13253 25.9116 9.27309C25.3756 9.63454 25.4452 9.94913 25.48 10.0428C25.5914 10.324 26.0161 10.5047 26.3433 10.5047H27.7774V10.5114C29.7267 10.5248 30.771 11.3882 30.4438 13.3963C30.1375 15.2637 28.6476 16.0669 26.8724 16.0803L26.1692 20.3909H27.2065C31.5855 20.3909 35.1639 17.6867 35.867 13.4163C36.7373 8.11513 33.2355 6 28.223 6Z" fill="white"/>
</g>
<defs>
<clipPath id="clip0_102_1641">
<rect width="22" height="20" fill="white" transform="translate(14 6)"/>
</clipPath>
</defs>
</svg>
