<svg width="16" height="16" viewBox="0 0 16 16" fill="none" xmlns="http://www.w3.org/2000/svg">
<g clip-path="url(#clip0_153_1754)">
<mask id="mask0_153_1754" style="mask-type:luminance" maskUnits="userSpaceOnUse" x="0" y="0" width="16" height="16">
<path d="M0 9.53674e-07H16V16H0V9.53674e-07Z" fill="white"/>
</mask>
<g mask="url(#mask0_153_1754)">
<path fill-rule="evenodd" clip-rule="evenodd" d="M0 13.4999C0 14.8806 1.11929 15.9999 2.5 15.9999H13.5C14.8807 15.9999 16 14.8806 16 13.4999V12.8749C16 12.5298 15.7202 12.2499 15.375 12.2499H3.65625C3.31107 12.2499 3.03125 12.5298 3.03125 12.8749C3.03125 13.2201 3.31107 13.4999 3.65625 13.4999L14.75 13.4999C14.75 14.1903 14.1904 14.7499 13.5 14.7499H2.5C1.80965 14.7499 1.25 14.1903 1.25 13.4999V2.49994C1.25 1.80959 1.80965 1.24994 2.5 1.24994H13.5C14.1904 1.24994 14.75 1.80959 14.75 2.49994V9.74994C14.75 10.0951 15.0298 10.3749 15.375 10.3749C15.7202 10.3749 16 10.0951 16 9.74994V2.49994C16 1.11923 14.8807 -6.00815e-05 13.5 -6.00815e-05H2.5C1.11929 -6.00815e-05 0 1.11923 0 2.49994V13.4999Z" fill="white"/>
<path fill-rule="evenodd" clip-rule="evenodd" d="M3.20891 10.8114C3.36808 10.9746 3.60345 11.0382 3.82312 10.9773L6.34577 10.2785C6.44963 10.2497 6.54428 10.1946 6.62054 10.1184L11.0759 5.66955C11.8081 4.93732 11.8081 3.75015 11.0759 3.01792C10.3437 2.28577 9.15664 2.28568 8.42438 3.01774C8.42432 3.0178 8.42426 3.01786 8.4242 3.01792L3.96195 7.47254C3.88914 7.54523 3.83539 7.63477 3.80549 7.73321L3.05824 10.1933C2.992 10.4114 3.04973 10.6483 3.20891 10.8114ZM4.58456 9.4693L4.95599 8.24646L9.30808 3.9018C9.55215 3.65774 9.94786 3.65771 10.192 3.9018C10.436 4.14586 10.4361 4.54152 10.192 4.7856C10.192 4.78562 10.192 4.78565 10.192 4.78567L5.85363 9.11774L4.58456 9.4693Z" fill="white"/>
<path fill-rule="evenodd" clip-rule="evenodd" d="M10.3331 5.16745L8.86435 3.6987L7.98047 4.58258L9.44922 6.05133L10.3331 5.16745Z" fill="white"/>
</g>
</g>
<defs>
<clipPath id="clip0_153_1754">
<rect width="16" height="16" fill="white"/>
</clipPath>
</defs>
</svg>
