<svg width="16" height="16" viewBox="0 0 16 16" fill="none" xmlns="http://www.w3.org/2000/svg">
<g clip-path="url(#clip0_139_992)">
<mask id="mask0_139_992" style="mask-type:luminance" maskUnits="userSpaceOnUse" x="0" y="0" width="16" height="16">
<path d="M16 0H0V16H16V0Z" fill="white"/>
</mask>
<g mask="url(#mask0_139_992)">
<mask id="mask1_139_992" style="mask-type:luminance" maskUnits="userSpaceOnUse" x="0" y="0" width="16" height="16">
<path d="M0 9.53674e-07H16V16H0V9.53674e-07Z" fill="white"/>
</mask>
<g mask="url(#mask1_139_992)">
<path fill-rule="evenodd" clip-rule="evenodd" d="M8.00318 14.75C4.28638 14.7517 1.28599 11.7827 1.25032 8.06644L0.694781 8.07177L1.25032 8.06643C1.21437 4.32309 4.22561 1.2746 7.95467 1.25014C10.8924 1.23086 13.4387 3.13066 14.38 5.77229C14.4959 6.09744 14.8534 6.2671 15.1785 6.15124C15.5037 6.03537 15.6734 5.67786 15.5575 5.35271C14.4449 2.23059 11.437 -0.0227394 7.94647 0.000169754C3.52671 0.0291529 -0.0422313 3.64216 0.000377592 8.07844L0.625349 8.07244L0.000377592 8.07844C0.0426402 12.481 3.60144 16.002 8.00376 16C9.61528 15.9993 11.1171 15.5214 12.3733 14.6998C12.6622 14.5109 12.7433 14.1235 12.5543 13.8346C12.3654 13.5458 11.9781 13.4647 11.6892 13.6536C10.6299 14.3464 9.36455 14.7494 8.0032 14.75H8.00318Z" fill="#999999"/>
<path fill-rule="evenodd" clip-rule="evenodd" d="M13.1562 10.25C12.2761 10.25 11.5625 9.53645 11.5625 8.65625V5.22294C11.5625 4.87776 11.2827 4.59794 10.9375 4.59794C10.5923 4.59794 10.3125 4.87776 10.3125 5.22294V8.65625C10.3125 10.2268 11.5857 11.5 13.1562 11.5C14.7268 11.5 16 10.2268 16 8.65625C16 8.31107 15.7202 8.03125 15.375 8.03125C15.0298 8.03125 14.75 8.31107 14.75 8.65625C14.75 9.53645 14.0364 10.25 13.1562 10.25Z" fill="#999999"/>
<path fill-rule="evenodd" clip-rule="evenodd" d="M4.46875 8C4.46875 9.95024 6.04976 11.5312 8 11.5312C9.95024 11.5312 11.5312 9.95024 11.5312 8C11.5312 6.04976 9.95024 4.46875 8 4.46875C6.04976 4.46875 4.46875 6.04976 4.46875 8ZM8 10.2813C6.74012 10.2813 5.71875 9.25988 5.71875 8C5.71875 6.74012 6.74012 5.71875 8 5.71875C9.25988 5.71875 10.2812 6.74012 10.2812 8C10.2812 9.25988 9.25988 10.2813 8 10.2813Z" fill="#999999"/>
</g>
</g>
</g>
<defs>
<clipPath id="clip0_139_992">
<rect width="16" height="16" fill="white"/>
</clipPath>
</defs>
</svg>
