<svg width="16" height="16" viewBox="0 0 16 16" fill="none" xmlns="http://www.w3.org/2000/svg">
<g clip-path="url(#clip0_916_27)">
<mask id="mask0_916_27" style="mask-type:luminance" maskUnits="userSpaceOnUse" x="0" y="0" width="16" height="16">
<path d="M16 0H0V16H16V0Z" fill="white"/>
</mask>
<g mask="url(#mask0_916_27)">
<mask id="mask1_916_27" style="mask-type:luminance" maskUnits="userSpaceOnUse" x="0" y="0" width="16" height="16">
<path d="M0 9.53674e-07H16V16H0V9.53674e-07Z" fill="white"/>
</mask>
<g mask="url(#mask1_916_27)">
<path fill-rule="evenodd" clip-rule="evenodd" d="M4.71875 13.5C4.71875 14.8807 5.83804 16 7.21875 16H13.5C14.8807 16 16 14.8807 16 13.5V2.5C16 1.11929 14.8807 9.53674e-07 13.5 9.53674e-07H7.21875C5.83804 9.53674e-07 4.71875 1.11929 4.71875 2.5V3.75C4.71875 4.09518 4.99857 4.375 5.34375 4.375C5.68893 4.375 5.96875 4.09518 5.96875 3.75V2.5C5.96875 1.80965 6.5284 1.25 7.21875 1.25H13.5C14.1904 1.25 14.75 1.80965 14.75 2.5V13.5C14.75 14.1904 14.1904 14.75 13.5 14.75H7.21875C6.5284 14.75 5.96875 14.1904 5.96875 13.5V12.25C5.96875 11.9048 5.68893 11.625 5.34375 11.625C4.99857 11.625 4.71875 11.9048 4.71875 12.25V13.5Z" fill="white"/>
<path fill-rule="evenodd" clip-rule="evenodd" d="M0 8C0 8.34518 0.279822 8.625 0.625 8.625H9.09375C9.43893 8.625 9.71875 8.34518 9.71875 8C9.71875 7.65482 9.43893 7.375 9.09375 7.375H0.625C0.279822 7.375 0 7.65482 0 8Z" fill="white"/>
<path fill-rule="evenodd" clip-rule="evenodd" d="M7.05631 10.5027C7.29942 10.7477 7.69515 10.7493 7.94019 10.5062L9.35089 9.10661C9.3509 9.1066 9.3509 9.1066 9.35091 9.10659C9.96635 8.49603 9.96635 7.50397 9.35091 6.89341C9.3509 6.8934 9.3509 6.8934 9.35089 6.89339L7.94019 5.49381C7.69515 5.2507 7.29942 5.25227 7.05631 5.49731C6.8132 5.74235 6.81477 6.13808 7.05981 6.38119L8.47053 7.78078L8.47055 7.7808C8.59314 7.90242 8.59314 8.09758 8.47055 8.2192L8.47053 8.21922L7.05981 9.61881C6.81477 9.86192 6.8132 10.2576 7.05631 10.5027Z" fill="white"/>
</g>
</g>
</g>
<defs>
<clipPath id="clip0_916_27">
<rect width="16" height="16" fill="white"/>
</clipPath>
</defs>
</svg>
