<svg width="16" height="16" viewBox="0 0 16 16" fill="none" xmlns="http://www.w3.org/2000/svg">
<path d="M8 2.5C5.84609 2.5 4.09375 4.25234 4.09375 6.40625C4.09375 8.56016 5.84609 10.3125 8 10.3125C8.36378 10.3125 8.72422 10.2624 9.07131 10.1636C9.40331 10.0691 9.59581 9.72337 9.50134 9.39137C9.40681 9.05941 9.06112 8.86684 8.72909 8.96138C8.49334 9.02847 8.24803 9.0625 8 9.0625C6.53534 9.0625 5.34375 7.87091 5.34375 6.40625C5.34375 4.94159 6.53534 3.75 8 3.75C9.46466 3.75 10.6562 4.94159 10.6562 6.40625C10.6562 6.66684 10.6188 6.92406 10.5448 7.17072C10.4456 7.50134 10.6333 7.84975 10.9639 7.94891C11.2946 8.048 11.6429 7.86044 11.7421 7.52978C11.851 7.16656 11.9062 6.78856 11.9062 6.40625C11.9062 4.25234 10.1539 2.5 8 2.5Z" fill="#386145"/>
<path d="M12.5274 1.87388C11.3177 0.6655 9.70984 0 8 0C6.29012 0 4.68228 0.6655 3.47259 1.87391C2.26303 3.08222 1.59581 4.68916 1.59384 6.40009C1.59506 7.64556 1.941 8.81406 2.65137 9.97244C3.26653 10.9755 4.06569 11.8507 4.91175 12.7772C5.74134 13.6857 6.59912 14.6251 7.28419 15.7089C7.39872 15.8901 7.59815 16 7.8125 16H8.1875C8.40184 16 8.60128 15.8901 8.71581 15.7089C9.40087 14.6251 10.2587 13.6857 11.0882 12.7772C11.9343 11.8507 12.7335 10.9755 13.3486 9.97241C14.059 8.81403 14.4049 7.6455 14.4062 6.39872C14.4042 4.68913 13.737 3.08219 12.5274 1.87388ZM10.1652 11.9343C9.42756 12.7421 8.66859 13.5733 8 14.5293C7.33144 13.5733 6.57244 12.7421 5.83481 11.9343C4.23109 10.1781 2.84603 8.66125 2.84384 6.40019C2.84709 3.56037 5.16015 1.25 8 1.25C10.8398 1.25 13.1529 3.56037 13.1562 6.39884C13.154 8.66125 11.7689 10.178 10.1652 11.9343Z" fill="#386145"/>
</svg>
