<svg width="90" height="25" viewBox="0 0 90 25" fill="none" xmlns="http://www.w3.org/2000/svg">
<g clip-path="url(#clip0_91_1374)">
<path d="M24.6464 17.6744V8.77042C24.6464 7.92138 25.401 7.26123 26.4151 7.26123H30.1033C33.0591 7.26123 34.8277 8.92352 34.8277 11.417C34.8277 14.2325 32.6929 15.692 30.0832 15.692H28.4232V17.6764C28.4232 18.5414 27.5378 19.1697 26.5257 19.1697C25.5136 19.1697 24.6484 18.5414 24.6484 17.6764L24.6464 17.6744ZM28.4212 12.8744H29.6506C30.6204 12.8744 31.2462 12.5006 31.2462 11.5184C31.2462 10.4665 30.6425 10.212 29.6707 10.212H28.4191V12.8744H28.4212Z" fill="white"/>
<path d="M35.3026 17.6744V8.77042C35.3026 7.80406 36.1014 7.26123 37.0491 7.26123H40.9969C43.9527 7.26123 45.655 8.5159 45.655 10.7389C45.655 12.095 44.836 13.4193 43.1539 13.9283C44.2746 14.1828 44.6851 14.7594 44.9648 15.523L45.5262 16.9984C46.001 18.2371 45.0513 19.1697 43.6489 19.1697C42.7213 19.1697 42.0955 18.8138 41.838 18.0681L41.1699 15.9644C40.9546 15.2864 40.673 14.9802 40.0693 14.8787L39.0552 14.7435V17.6784C39.0552 18.6448 38.1498 19.1717 37.1779 19.1717C36.2061 19.1717 35.3006 18.6467 35.3006 17.6784L35.3026 17.6744ZM39.0552 12.5185H40.4134C41.2987 12.5185 41.8802 12.0771 41.8802 11.246C41.8802 10.4148 41.1901 10.1265 40.3711 10.1265H39.0552V12.5185Z" fill="white"/>
<path d="M45.9568 13.1113C45.9568 9.31147 48.5665 7.05664 52.2768 7.05664C55.9872 7.05664 58.5969 9.31147 58.5969 13.1113C58.5969 16.9111 55.965 19.1659 52.2768 19.1659C48.5886 19.1659 45.9568 16.9111 45.9568 13.1113ZM54.8221 13.1113C54.8221 11.2124 53.9589 10.1088 52.2768 10.1088C50.5947 10.1088 49.7315 11.1945 49.7315 13.1113C49.7315 15.0281 50.6148 16.1137 52.2768 16.1137C53.9388 16.1137 54.8221 15.0122 54.8221 13.1113Z" fill="white"/>
<path d="M58.5325 16.7421L61.4662 12.8747L58.7478 9.43078C57.778 8.32921 58.6391 7.05664 60.3434 7.05664C61.0758 7.05664 61.5949 7.36285 62.0034 7.88779L63.9008 10.7193L65.6695 7.92159C66.1443 7.29326 66.7258 7.07454 67.3959 7.07454C69.1867 7.07454 69.9191 8.41471 68.9492 9.44867L66.2309 12.8747L69.1424 16.7421C70.0921 17.8436 69.2068 19.1679 67.5246 19.1679C66.7922 19.1679 66.2731 18.8796 65.8646 18.3368L63.8364 15.1315L61.7881 18.3209C61.3575 18.9154 60.8384 19.152 60.106 19.152C58.4882 19.152 57.5606 17.8297 58.5305 16.7441L58.5325 16.7421Z" fill="white"/>
<path d="M81.2433 16.9787C81.5873 18.1319 80.9636 19.15 79.4324 19.15C78.5269 19.15 77.7281 18.7603 77.5349 17.8277L77.2553 16.5392H73.9332L73.6536 17.8615C73.4604 18.7782 72.5972 19.15 71.7119 19.15C70.1585 19.15 69.577 18.1657 69.9855 16.8613L72.4865 8.9754C72.897 7.78833 74.0821 7.05859 75.6134 7.05859C77.1446 7.05859 78.3096 7.78833 78.6979 9.0092L81.2433 16.9806V16.9787ZM75.8085 10.3474H75.3779L74.5147 13.9265H76.6496L75.8085 10.3474Z" fill="white"/>
<path d="M83.6155 18.9631C82.4083 18.9631 81.7604 18.4382 81.7604 17.4539V8.56583C81.7604 7.59947 82.6658 7.05664 83.6377 7.05664C84.6095 7.05664 85.5351 7.58158 85.5351 8.56583V15.9606H88.1448C89.0724 15.9606 90 16.5711 90 17.4698C90 18.3686 89.0724 18.9631 88.1448 18.9631H83.6155Z" fill="white"/>
<path d="M18.779 9.28212C18.779 9.7991 18.7368 10.3042 18.6522 10.7973C18.5577 11.3699 18.4088 11.9267 18.2116 12.4596C17.9078 13.2867 17.4872 14.0602 16.9701 14.7581L14.3383 18.6096C13.8111 19.3811 12.6622 19.3811 12.135 18.6096C11.6078 17.8382 10.9338 16.8559 10.4006 16.0804C9.96593 15.4461 10.2718 14.5792 11.0102 14.3485L11.0324 14.3426C12.1109 14.0045 13.0405 13.3364 13.7024 12.4596C14.0787 11.9664 14.3684 11.4057 14.5495 10.7973C14.8172 9.92835 14.8534 8.96795 14.622 7.96382C14.2336 6.27568 13.0002 4.87585 11.3483 4.29922C7.55341 2.97694 4.01812 5.71893 4.01812 9.27616C4.01812 10.5149 4.4467 11.6563 5.16703 12.561C5.50507 13.0521 9.38041 18.7091 11.0887 21.2025C11.5354 21.8547 11.5354 22.7077 11.0887 23.3599L10.2899 24.5271C9.86332 25.1534 8.93171 25.1554 8.50715 24.5311C7.16104 22.5725 4.49298 18.6713 1.78668 14.7243C1.78668 14.7223 1.78265 14.7204 1.78265 14.7204C0.613613 13.1297 -0.0564224 11.1492 0.00394114 9.01766C0.140765 4.1481 4.15092 0.159397 9.07859 0.00430312C14.4127 -0.162721 18.779 4.05863 18.779 9.28212Z" fill="white"/>
<path d="M9.38854 12.3679C11.0699 12.3679 12.4329 11.021 12.4329 9.3595C12.4329 7.69799 11.0699 6.35107 9.38854 6.35107C7.7072 6.35107 6.34421 7.69799 6.34421 9.3595C6.34421 11.021 7.7072 12.3679 9.38854 12.3679Z" fill="white"/>
</g>
<defs>
<clipPath id="clip0_91_1374">
<rect width="90" height="25" fill="white"/>
</clipPath>
</defs>
</svg>
