<svg width="590" height="425" viewBox="0 0 590 425" fill="none" xmlns="http://www.w3.org/2000/svg">
<path fill-rule="evenodd" clip-rule="evenodd" d="M246.26 59.02C297.923 43.2884 350.029 5.23816 401.179 22.3168C451.505 39.1204 467.938 96.479 491.046 140.752C514.539 185.765 560.294 236.559 536.399 281.394C510.551 329.892 530.568 371.882 563 418.183C531.379 418.183 448.273 418.183 401.179 418.183C362.329 418.183 250.554 417.039 214.765 418.183C157.235 420.021 101.66 418.183 25.8168 418.183C-15.095 352.568 22.8335 322.236 22.1656 273.083C21.5787 229.895 -27.4133 209.931 22.1672 149.027C65.1126 96.2748 102.211 138.488 144.225 121.542C178.455 107.736 210.769 69.8272 246.26 59.02Z" fill="white"/>
<ellipse opacity="0.05" cx="295" cy="419.999" rx="295" ry="5" fill="black"/>
<path d="M88.8607 112.608C88.8607 112.608 103.759 117.31 106.704 116.033L114.158 116.253C114.158 116.253 131.098 116.654 138.028 102.319L154.86 119.711L154.656 120.607C154.656 120.607 145.097 151.617 146.768 159.292C148.438 166.967 149.645 186.26 148.626 193.082C147.603 199.901 142.867 208.653 142.867 208.653C142.867 208.653 123.013 224.604 121.862 224.744C120.708 224.884 103.847 216.649 103.847 216.649L96.4138 204.311C96.4138 204.311 98.2721 176.279 93.2567 163.53C88.2413 150.78 82.6664 141.936 83.3618 131.008L84.3369 114.216L88.8687 112.604L88.8607 112.608Z" fill="#7E3F12"/>
<path d="M404.496 82.0186C402.59 81.0742 400.579 80.57 398.465 80.51C395.248 80.4259 393.67 82.6349 390.165 81.9706C389.969 81.9346 389.793 81.8586 389.637 81.7305C386.724 79.4135 383.291 78.9653 379.339 80.3819L382.376 68.2047C382.452 67.9005 382.496 67.9005 382.5 68.2167C382.62 72.3865 383.339 75.3157 387.148 76.5163C387.535 76.6363 387.955 76.4922 388.175 76.1561C388.79 75.2397 389.737 73.4149 390.724 73.0708C392.787 72.3505 393.75 76.3762 394.353 77.7248C394.509 78.0649 394.977 78.1209 395.196 77.8128C396.327 76.2722 397.854 75.4518 399.772 75.3558C399.992 75.3438 400.18 75.4198 400.324 75.5879C400.987 76.3602 401.359 77.2606 401.435 78.281C401.447 78.4411 401.534 78.5211 401.698 78.5091L406.334 78.161C406.79 78.133 407.141 78.5571 407.029 79.0013C406.73 80.1698 406.174 81.1983 405.367 82.0867C405.243 82.2227 405.103 82.2427 404.947 82.1387C404.8 82.0386 404.644 81.9946 404.492 82.0066L404.496 82.0186Z" fill="#F19975"/>
<path d="M249.474 73.2548C247.739 70.7737 244.93 70.6297 242.128 71.7862C241.729 71.9543 241.645 71.8502 241.873 71.4821C244.055 67.9165 251.088 67.4443 249.925 73.1588C249.877 73.3749 249.602 73.4349 249.478 73.2548H249.474Z" fill="#17081B"/>
<path d="M235.503 84.5397L234.72 84.1395C234.987 80.562 235.831 77.1925 237.257 74.0232C237.353 73.8151 237.473 73.8031 237.621 73.9752C238.021 74.4554 238.045 74.8715 237.673 75.4198C236.094 77.7448 236.003 80.7701 235.503 84.5397Z" fill="#6B2E1A"/>
<path d="M247.02 78.0609C246.952 78.7452 246.121 79.2174 245.166 79.1214C244.211 79.0253 243.487 78.3971 243.555 77.7128C243.623 77.0285 244.454 76.5563 245.409 76.6523C246.365 76.7484 247.088 77.3766 247.02 78.0609ZM246.253 78.4851C246.365 78.4771 246.457 78.3891 246.457 78.277C246.473 77.0805 244.83 77.0845 244.279 77.8208C244.039 78.145 244.283 78.6012 244.69 78.5771L246.253 78.4891V78.4851Z" fill="#F19975"/>
<path d="M404.496 82.0186L404.144 82.6549C404.803 83.6834 404.999 84.8238 404.743 86.0764C404.192 88.7375 392.351 89.806 394.577 83.7954C395.188 82.1547 397.118 81.6465 398.661 81.1183C399.061 80.9822 399.057 80.9222 398.633 80.9462C397.366 81.0222 396.167 81.3303 395.044 81.8666C393.334 82.6829 392.155 82.6989 390.417 82.771C390.197 82.779 390.117 82.891 390.185 83.1071C390.752 84.8759 389.581 88.4334 389.342 90.4023C389.318 90.6183 389.218 90.6664 389.038 90.5463C388.722 90.3302 389.713 83.9515 389.761 83.0471C389.769 82.851 389.701 82.6829 389.553 82.5429C389.23 82.2507 388.878 82.2187 388.49 82.4668C388.271 82.6029 388.175 82.5429 388.203 82.2828L388.251 81.9666C388.267 81.7985 388.211 81.6665 388.067 81.5784C384.686 79.5016 381.585 79.7937 378.747 82.4588C378.1 83.0631 378.076 84.0835 378.695 84.7238C381.513 87.6571 385.777 87.441 387.339 83.3512H387.739C386.944 88.7255 380.438 88.0212 377.74 84.6758L377.452 82.771C377.417 82.5509 377.476 82.3588 377.632 82.1947L379.355 80.3899C383.307 78.9693 386.74 79.4215 389.653 81.7385C389.809 81.8626 389.981 81.9426 390.181 81.9786C393.686 82.6429 395.264 80.434 398.481 80.518C400.591 80.578 402.601 81.0822 404.512 82.0266M403.009 82.835C403.045 82.795 403.081 82.759 403.117 82.7269C403.277 82.5549 403.249 82.4348 403.021 82.3668C400.092 81.4904 393.977 81.1143 395.324 86.1644C395.376 86.3605 395.492 86.5006 395.676 86.5886C398.289 87.8291 400.855 87.8171 403.373 86.5486C405.059 85.7042 404.272 83.9795 403.021 83.0031C402.957 82.951 402.949 82.895 403.009 82.835Z" fill="#54211D"/>
<path d="M404.14 82.6549C406.166 82.0026 405.359 84.1995 405.283 85.0799C405.259 85.336 405.367 85.5161 405.599 85.6201L407.493 86.4845C407.689 86.5725 407.845 86.7046 407.965 86.8807C408.94 88.3013 409.1 89.8339 408.456 91.4867C408.38 91.6827 408.248 91.8348 408.061 91.9309C406.954 92.5071 406.434 93.0513 406.166 94.3439C405.167 99.142 401.431 103.58 403.748 108.33C403.736 109.823 403.389 111.239 402.713 112.576C401.523 114.925 399.716 116.437 397.294 117.122C392.023 118.606 390.189 111.659 389.15 108.15C389.086 107.922 388.91 107.75 388.69 107.67L384.582 106.257C378.384 100.459 376.102 93.2674 377.72 84.6717C380.418 88.0212 386.924 88.7215 387.719 83.3472C387.623 83.011 386.584 80.5139 385.977 81.2943C385.865 81.4423 385.877 81.5864 386.025 81.7144C386.58 82.1746 387.012 82.7189 387.316 83.3512C385.753 87.4409 381.489 87.657 378.671 84.7237C378.056 84.0835 378.08 83.063 378.723 82.4588C381.557 79.7936 384.662 79.5015 388.043 81.5784C388.187 81.6664 388.247 81.7985 388.227 81.9666L388.179 82.2827C388.151 82.5468 388.243 82.6068 388.467 82.4668C388.854 82.2227 389.21 82.2507 389.53 82.5428C389.677 82.6789 389.745 82.8469 389.737 83.047C389.689 83.9514 388.698 90.3302 389.014 90.5463C389.194 90.6663 389.294 90.6183 389.318 90.4022C389.558 88.4333 390.728 84.8758 390.161 83.107C390.097 82.891 390.173 82.7789 390.393 82.7709C392.135 82.6989 393.31 82.6829 395.02 81.8665C396.143 81.3263 397.342 81.0222 398.609 80.9461C399.033 80.9221 399.041 80.9821 398.637 81.1182C397.095 81.6464 395.16 82.1546 394.553 83.7953C392.327 89.8099 404.172 88.7375 404.72 86.0763C404.975 84.8238 404.78 83.6873 404.12 82.6549M382.492 82.7309V82.3307C382.492 82.0746 382.384 82.0146 382.176 82.1626C381.505 82.6348 381.249 83.2271 381.409 83.9354C381.461 84.1555 381.601 84.2876 381.821 84.3196C382.528 84.4196 383.871 83.6113 382.736 83.1111C382.576 83.039 382.492 82.915 382.492 82.7349M387.987 98.5057C391.476 99.8823 394.245 98.9379 396.283 95.6685C396.499 95.3203 396.195 94.8841 395.792 94.9722C392.543 95.7045 389.326 95.6605 386.125 94.8521C385.929 94.8041 385.837 94.8801 385.857 95.0842C385.993 96.861 386.7 98.0015 387.987 98.5057Z" fill="#F19975"/>
<path d="M508.416 107.622L504.928 106.353C504.628 106.245 504.624 106.125 504.916 105.993C512.457 102.608 510.419 85.9483 503.973 88.6495C503.469 88.8576 503.433 89.5579 503.913 89.822C509.835 93.0794 510.451 102.051 504.564 105.693C504.392 105.801 504.2 105.837 503.997 105.801C501.083 105.285 497.746 104.032 497.538 100.511C497.526 100.291 497.59 100.098 497.734 99.9344L500.959 96.2328C501.095 96.0727 501.275 96.0127 501.487 96.0647C503.233 96.5009 503.281 98.2616 503.957 98.5378C504.188 98.6338 504.284 98.5538 504.236 98.3057C503.841 96.1687 499.253 93.4076 497.502 92.047C497.455 92.031 497.407 92.019 497.355 91.9989C495.68 90.0301 494.429 87.9812 493.598 85.8643C493.342 85.212 493.562 84.8959 494.269 84.9239C495.608 84.9759 496.356 85.6842 496.511 87.0448C496.551 87.421 496.923 87.6731 497.291 87.561C499.485 86.8767 496.979 83.5193 495.712 83.0151L496.324 82.2708C496.503 82.0627 496.455 81.9666 496.176 81.9826C496.104 81.9866 496.032 81.9866 495.96 81.9866C495.824 81.9866 495.804 81.9466 495.912 81.8546C496.18 81.6465 496.372 81.3944 496.487 81.0862C497.954 81.4624 499.417 81.2423 500.883 80.426C501.207 80.2459 501.619 80.3299 501.838 80.6301C503.633 83.0551 505.799 85.092 508.333 86.7327C508.608 86.9128 508.788 87.2049 508.812 87.529C508.912 88.9176 509.116 90.2822 509.416 91.6268C510.802 97.8375 516.753 101.199 513.4 108.05C513.216 108.422 512.92 108.566 512.513 108.482L508.42 107.614L508.416 107.622Z" fill="#FBB9A3"/>
<path d="M110.406 80.9102C111.297 81.2223 111.577 81.9466 111.249 83.0831C111.201 83.2552 111.089 83.3392 110.913 83.3392C106.613 83.3472 104.991 83.6914 102.737 87.549C102.545 87.8732 102.05 87.7571 102.03 87.381C101.822 83.3392 106.222 79.4375 110.402 80.9062L110.406 80.9102Z" fill="#17081B"/>
<path d="M387.723 83.3432H387.324C387.02 82.715 386.588 82.1707 386.033 81.7065C385.885 81.5825 385.873 81.4384 385.985 81.2863C386.588 80.506 387.631 83.0071 387.727 83.3392L387.723 83.3432Z" fill="#6B2E1A"/>
<path d="M125.228 84.9159C122.466 83.6113 119.061 83.3872 117.423 86.2925C117.335 86.4605 117.267 86.4485 117.231 86.2645C116.18 80.6941 123.709 80.4619 125.695 84.4397C125.843 84.7398 125.535 85.0639 125.228 84.9199V84.9159Z" fill="#17081B"/>
<path d="M403.005 82.995C404.256 83.9715 405.043 85.6962 403.357 86.5406C400.839 87.8091 398.273 87.8211 395.66 86.5806C395.476 86.4925 395.36 86.3525 395.308 86.1564C393.961 81.1062 400.076 81.4864 403.005 82.3588C403.233 82.4228 403.261 82.5428 403.101 82.7189C403.065 82.7469 403.029 82.7829 402.993 82.827C402.933 82.887 402.941 82.939 403.005 82.995Z" fill="#F19975"/>
<path d="M382.76 83.1071C383.895 83.6113 382.552 84.4197 381.844 84.3156C381.625 84.2836 381.485 84.1556 381.433 83.9315C381.273 83.2232 381.529 82.6309 382.2 82.1587C382.408 82.0106 382.516 82.0707 382.516 82.3268V82.7269C382.516 82.907 382.6 83.0311 382.76 83.1031V83.1071Z" fill="#F19975"/>
<path d="M257.918 84.4276C257.83 84.4316 257.75 84.4196 257.678 84.3916C257.53 84.3316 257.475 84.2236 257.519 84.0675C257.978 82.5348 260.516 81.7545 260.504 83.7994C260.504 84.0075 260.42 84.1835 260.252 84.3076C259.577 84.8278 258.797 84.8638 257.918 84.4276ZM258.649 83.8874C258.997 84.1915 259.321 84.1795 259.617 83.8514C259.808 83.6433 259.776 83.4792 259.521 83.3672C259.221 83.2311 258.837 83.3632 258.621 83.6353C258.55 83.7233 258.558 83.8074 258.645 83.8874H258.649Z" fill="#F19975"/>
<path d="M268.388 82.5108C268.217 82.4108 268.065 82.4268 267.929 82.5709C267.601 82.919 267.186 83.2191 266.698 83.4633C265.567 84.0315 265.135 83.7034 265.407 82.4628C266.031 79.6016 267.046 76.1881 266.754 73.4509C266.25 68.8209 263.733 65.5035 259.201 63.4907C249.917 59.3689 243.28 62.4182 241.181 72.4105C241.022 73.1708 240.482 74.0712 239.559 75.1117C239.375 75.3197 239.243 75.2917 239.163 75.0236C238.8 73.7591 238.176 72.1664 236.598 73.507C233.189 76.3882 232.565 79.9337 234.727 84.1435C234.995 80.566 235.838 77.1966 237.265 74.0272C237.361 73.8191 237.481 73.8071 237.629 73.9792C238.028 74.4594 238.052 74.8756 237.681 75.4238C236.102 77.7488 236.01 80.7741 235.511 84.5437C234.639 91.7348 237.856 95.1923 242.52 99.8343C242.664 99.9784 242.736 100.15 242.736 100.355C242.72 102.479 242.46 104.528 241.977 106.513C241.289 118.15 256.256 117.346 257.714 107.113C257.766 106.773 257.894 106.633 258.114 106.381C258.597 101.703 260.004 97.3012 262.338 93.1754C262.462 92.9553 262.606 92.9433 262.77 93.1474L263.237 93.7637C263.373 93.9438 263.553 94.0318 263.781 94.0318C268.66 94.0678 272.792 85.216 268.396 82.5148L268.388 82.5108ZM241.873 71.4861C244.055 67.9206 251.088 67.4484 249.925 73.1628C249.877 73.3789 249.602 73.4389 249.478 73.2589C247.743 70.7778 244.934 70.6337 242.133 71.7902C241.733 71.9583 241.649 71.8543 241.877 71.4861H241.873ZM247.02 78.0609C246.952 78.7452 246.121 79.2174 245.166 79.1214C244.211 79.0253 243.487 78.3971 243.555 77.7128C243.623 77.0285 244.454 76.5563 245.41 76.6523C246.365 76.7484 247.088 77.3766 247.02 78.0609ZM253.166 91.9749C251.652 98.9339 241.341 98.1016 242.64 90.6984C242.672 90.5143 242.88 90.4182 243.036 90.5143C246.057 92.3351 249.238 92.6472 252.583 91.4547C252.911 91.3346 253.246 91.6268 253.17 91.9749H253.166ZM260.256 84.3076C259.581 84.8278 258.801 84.8639 257.922 84.4277C257.834 84.4357 257.754 84.4197 257.682 84.3917C257.534 84.3316 257.478 84.2236 257.522 84.0675C257.982 82.5349 260.52 81.7545 260.508 83.7994C260.508 84.0075 260.424 84.1836 260.256 84.3076Z" fill="#F19975"/>
<path d="M244.278 77.8208C244.039 78.145 244.282 78.6011 244.69 78.5771L246.253 78.4891C246.364 78.4811 246.456 78.3931 246.456 78.281C246.476 77.0845 244.83 77.0885 244.278 77.8248V77.8208Z" fill="#F19975"/>
<path d="M259.525 83.3672C259.225 83.2311 258.841 83.3632 258.63 83.6353C258.558 83.7234 258.566 83.8074 258.654 83.8874C259.001 84.1916 259.325 84.1795 259.621 83.8514C259.813 83.6433 259.781 83.4793 259.525 83.3672Z" fill="#F19975"/>
<path d="M492.567 86.0604L492.991 86.0364C493.566 87.9532 494.437 89.5059 495.612 90.6944C496.048 91.1386 496.072 91.8389 495.664 92.3111C494.317 93.8637 492.663 94.9362 490.693 95.5205C490.489 95.5805 490.305 95.5445 490.129 95.4124C489.054 94.56 488.271 93.5396 487.779 92.3471L488.055 92.3231C488.007 92.3991 488.031 92.4832 488.131 92.5872C488.255 92.6992 488.363 92.6952 488.467 92.5592L492.403 87.2529C492.515 87.0928 492.575 86.9168 492.575 86.7207L492.563 86.0604M492.275 91.2786H491.916C491.732 91.2786 491.64 91.1826 491.652 90.9985L491.74 89.698C491.744 89.6579 491.724 89.6339 491.68 89.6339H491.532C491.408 89.6339 491.316 89.694 491.268 89.814C490.976 90.5383 490.521 91.1306 489.893 91.6028C489.618 91.8109 489.65 91.9509 489.981 92.027C492.003 92.4872 493.834 91.6068 493.694 89.2498C493.682 89.0297 493.378 88.9856 493.298 89.1897L492.603 91.0465C492.551 91.2026 492.435 91.2786 492.267 91.2786H492.275Z" fill="#FBB9A3"/>
<path d="M508.416 107.622L508.268 107.922C506.282 107.57 504.56 106.753 502.478 106.197C499.636 105.437 497.694 103.572 496.659 100.611C496.575 100.371 496.611 100.15 496.771 99.9504L500.24 95.6365C500.504 95.3084 500.484 94.9962 500.188 94.7041L497.502 92.0509C499.257 93.4115 503.841 96.1727 504.236 98.3096C504.284 98.5618 504.188 98.6378 503.956 98.5417C503.281 98.2656 503.233 96.5049 501.487 96.0687C501.279 96.0167 501.099 96.0767 500.959 96.2368L497.734 99.9383C497.59 100.098 497.526 100.29 497.538 100.515C497.746 104.036 501.087 105.289 503.996 105.805C504.2 105.841 504.392 105.805 504.564 105.697C510.45 102.055 509.835 93.0834 503.912 89.826C503.433 89.5619 503.469 88.8616 503.972 88.6535C510.418 85.9523 512.461 102.616 504.916 105.997C504.624 106.129 504.628 106.249 504.928 106.357L508.416 107.626V107.622Z" fill="#17081B"/>
<path d="M492.615 91.0465L493.31 89.1897C493.386 88.9856 493.694 89.0296 493.706 89.2497C493.842 91.6108 492.011 92.4911 489.993 92.0269C489.657 91.9509 489.629 91.8108 489.905 91.6028C490.533 91.1306 490.988 90.5383 491.28 89.814C491.328 89.6939 491.416 89.6339 491.544 89.6339H491.692C491.731 89.6339 491.755 89.6579 491.751 89.6979L491.664 90.9985C491.652 91.1826 491.739 91.2786 491.927 91.2786H492.287C492.455 91.2786 492.567 91.2026 492.623 91.0465H492.615Z" fill="#FBB9A3"/>
<path d="M119.877 92.2671C119.285 92.063 118.95 91.4267 119.117 90.8184C119.481 89.5059 120.2 89.2137 121.263 89.938C121.915 90.3862 122.023 91.3146 121.491 91.9029C121.068 92.3711 120.528 92.4911 119.877 92.2671Z" fill="#17081B"/>
<path d="M110.689 91.0945C110.689 91.9469 110.002 92.6352 109.151 92.6352C108.3 92.6352 107.612 91.9469 107.612 91.0945C107.612 90.2421 108.3 89.5538 109.151 89.5538C110.002 89.5538 110.689 90.2421 110.689 91.0945Z" fill="#17081B"/>
<path d="M253.167 91.9749C251.652 98.9339 241.341 98.1015 242.64 90.6983C242.668 90.5143 242.88 90.4182 243.036 90.5143C246.057 92.3351 249.238 92.6472 252.583 91.4547C252.911 91.3346 253.246 91.6268 253.171 91.9749H253.167Z" fill="#FDFDFD"/>
<path d="M388.011 98.5017C386.724 97.9975 386.021 96.861 385.881 95.0802C385.865 94.8762 385.953 94.8001 386.149 94.8481C389.35 95.6565 392.567 95.7005 395.816 94.9682C396.215 94.8802 396.523 95.3163 396.307 95.6645C394.269 98.9339 391.5 99.8823 388.011 98.5017Z" fill="#FDFDFD"/>
<path d="M120.952 103.156C117.099 105.805 113.079 104.556 110.43 100.923C110.21 100.619 110.286 100.499 110.649 100.563C114.578 101.227 118.486 101.139 122.379 100.298C122.682 100.234 122.798 100.351 122.73 100.651C122.498 101.667 121.899 102.499 120.948 103.156H120.952Z" fill="#FDFDFD"/>
<path d="M498.313 108.358C492.93 112.24 487.244 107.438 488.814 101.391C488.866 101.183 489.142 101.127 489.274 101.303C491.552 104.34 494.513 106.389 498.158 107.45C498.829 107.646 498.881 107.946 498.313 108.358Z" fill="#FDFDFD"/>
<path d="M511.557 117.506L509.898 116.894C509.691 116.818 509.503 116.846 509.331 116.982C504.803 120.563 499.652 121.852 493.881 120.843C493.673 120.803 493.47 120.731 493.282 120.615C492.982 120.435 492.654 120.435 492.291 120.619L492.267 119.895C501.59 120.979 508.552 117.614 513.163 109.803C513.367 109.454 513.275 109.174 512.9 108.962C515.609 109.178 516.005 107.093 518.247 107.117C518.451 107.117 518.622 107.189 518.762 107.334C522.567 111.155 518.375 116.037 514.063 116.561C513.855 116.586 513.651 116.553 513.451 116.465L512.392 115.961C512.208 115.873 512.076 115.933 512.008 116.129L511.553 117.494L511.557 117.506Z" fill="#F19975"/>
<path d="M511.557 117.506V118.554C510.402 120.883 510.031 123.34 510.446 125.926C510.191 126.47 509.459 128.471 508.6 128.395C508.42 128.379 508.276 128.443 508.164 128.579C506.09 131.172 504.336 133.073 502.905 134.269C498.513 137.951 491.54 139.559 490.672 131.776C490.321 128.627 491.839 123.905 492.295 120.623C492.659 120.439 492.99 120.439 493.286 120.619C493.47 120.731 493.674 120.803 493.886 120.847C499.656 121.852 504.808 120.567 509.335 116.986C509.507 116.85 509.695 116.818 509.903 116.898L511.561 117.51L511.557 117.506Z" fill="#FBB9A3"/>
<path d="M265.731 182.638L265.559 183.29C265.511 183.474 265.4 183.594 265.22 183.654C261.743 184.799 258.19 185.611 254.549 186.091C245.262 187.308 235.935 187.728 226.563 187.356C224.037 187.256 221.544 186.912 219.082 186.332L219.106 185.455C231.75 187.504 245.538 186.784 258.502 184.599C260.98 184.179 263.389 183.526 265.731 182.634V182.638Z" fill="#584B79"/>
<path d="M101.454 295.41C101.961 291.073 101.733 286.775 100.758 282.517C100.742 282.441 100.786 282.361 100.858 282.337C100.934 282.313 101.014 282.353 101.042 282.425C102.74 286.683 102.984 291.033 101.773 295.47C101.39 296.883 101.282 296.867 101.45 295.41H101.454Z" fill="#234D30"/>
<path d="M511.557 118.554V117.506L512.012 116.141C512.076 115.945 512.208 115.885 512.396 115.973L513.455 116.477C513.651 116.566 513.855 116.598 514.067 116.574C518.379 116.045 522.571 111.167 518.766 107.346C518.63 107.201 518.454 107.129 518.251 107.129C516.009 107.105 515.613 109.19 512.904 108.974L508.268 107.926L508.416 107.626L512.508 108.494C512.916 108.578 513.207 108.434 513.395 108.062C516.752 101.211 510.798 97.8494 509.411 91.6388C509.111 90.2982 508.907 88.9336 508.807 87.541C508.783 87.2169 508.604 86.9247 508.328 86.7447C505.79 85.104 503.628 83.0671 501.834 80.642C501.614 80.3419 501.198 80.2579 500.879 80.4379C499.412 81.2543 497.949 81.4744 496.483 81.0982C494.604 79.3375 491.184 76.1161 492.175 73.1268C492.31 72.7026 492.438 72.7066 492.546 73.1428C492.898 74.5754 493.849 77.3126 495.775 77.1965C496.303 77.1605 496.591 76.5683 496.283 76.1361C494.305 73.3229 492.994 69.9974 495.5 66.9802C498.701 63.1185 501.93 66.8561 504.603 68.8049C504.847 68.985 505.195 68.7889 505.159 68.4808C505.059 67.5124 503.74 62.9584 505.662 63.1985C505.858 63.2225 506.022 63.3186 506.134 63.4866C508.028 66.2598 510.254 69.2491 513.351 69.8534C515.15 70.2055 517.615 69.8374 519.637 70.6857C522.611 71.9263 524.877 73.9992 526.431 76.9164C526.519 77.0885 526.671 77.1925 526.867 77.2206C533.756 78.153 533.361 84.5637 532.326 89.738C530.811 97.3492 529.848 109.695 523.754 114.897C520.041 118.07 516.133 117.902 511.553 118.55M528.737 78.6612C528.497 78.5291 528.246 78.8212 528.413 79.0373C529.58 80.57 530.416 82.2667 530.915 84.1275C530.955 84.2876 531.111 84.3956 531.279 84.3836C531.451 84.3676 531.582 84.2356 531.594 84.0675C531.79 81.6064 530.835 79.8017 528.737 78.6612Z" fill="#54211D"/>
<path d="M495.708 83.019C496.975 83.5233 499.48 86.8807 497.286 87.565C496.923 87.677 496.551 87.4289 496.507 87.0488C496.351 85.6882 495.604 84.9839 494.265 84.9279C493.558 84.8998 493.338 85.216 493.594 85.8683C494.425 87.9812 495.676 90.0301 497.35 92.0029C495.62 93.8997 493.594 95.3804 491.272 96.4528C491.076 96.5409 490.872 96.5409 490.672 96.4448C489.541 95.8886 488.626 95.0562 487.927 93.9478C486.592 92.299 485.793 90.4622 485.521 88.4334C485.121 85.356 488.578 84.2276 490.992 84.6237C491.196 84.6517 491.364 84.7478 491.5 84.8999L492.559 86.0603L492.571 86.7206C492.571 86.9167 492.511 87.0928 492.399 87.2529L488.462 92.5592C488.362 92.6952 488.254 92.7032 488.127 92.5872C488.027 92.4871 488.003 92.4031 488.051 92.3231L491.787 86.7246C492.187 86.1124 491.775 85.3 491.044 85.276C485.937 85.1039 485.057 88.7135 487.771 92.3511C488.262 93.5436 489.046 94.568 490.121 95.4164C490.293 95.5484 490.48 95.5845 490.684 95.5244C492.65 94.9362 494.309 93.8637 495.656 92.315C496.063 91.8428 496.039 91.1425 495.604 90.6983C494.433 89.5058 493.558 87.9572 492.982 86.0403C493.202 84.4356 494.113 83.4272 495.696 83.023L495.708 83.019Z" fill="#17081B"/>
<path d="M542.509 143.257C540.471 143.849 538.885 144.75 536.942 143.277C530.652 138.503 526.728 130.059 530.201 122.28C530.296 122.064 530.249 121.884 530.065 121.748C529.861 121.592 529.573 121.564 529.201 121.652C533.382 119.255 537.774 117.322 542.373 115.853C543.021 115.649 543.544 115.181 543.688 114.453C546.058 102.403 546.613 89.766 547.449 76.4562C547.796 70.8938 548.244 67.3283 546.681 63.4666C544.999 59.3048 541.422 57.7522 537.818 55.8914C537.454 55.7073 537.302 55.2631 537.478 54.8989C538.149 53.4423 539.848 54.1386 541.126 54.4508C541.37 54.5108 541.486 54.4147 541.454 54.1586C541.246 52.2378 540.723 49.6207 542.741 48.8804C544.779 48.132 546.881 47.8639 549.027 48.064C551.169 48.2601 553.052 47.4597 555.266 47.5678C555.929 47.5958 556.456 48.136 556.472 48.8003C556.56 51.7536 556.5 54.7229 556.293 57.7002C556.049 61.2297 555.765 64.5471 556.368 68.1046C559.202 84.8519 562.739 101.775 563.158 118.378C563.35 125.894 562.315 131.02 555.413 135.366C551.681 137.719 547.836 139.868 543.876 141.82C543.229 142.137 542.853 142.685 542.505 143.265L542.509 143.257Z" fill="#FBB9A3"/>
<path d="M487.931 93.9478C488.63 95.0562 489.545 95.8886 490.676 96.4448C490.872 96.5409 491.076 96.5409 491.276 96.4528C493.598 95.3804 495.624 93.8997 497.354 92.0029C497.406 92.0189 497.454 92.0309 497.502 92.0509L500.188 94.7041C500.487 94.9962 500.503 95.3083 500.24 95.6365L496.771 99.9503C496.611 100.146 496.575 100.371 496.659 100.611C497.694 103.576 499.636 105.437 502.478 106.197C504.56 106.753 506.282 107.57 508.268 107.922L512.904 108.97C513.28 109.178 513.372 109.462 513.168 109.811C508.556 117.622 501.594 120.987 492.271 119.903C485.837 117.83 484.238 111.063 483.423 105.109C483.359 104.624 483.075 104.348 482.592 104.288C476.717 103.54 472.973 105.793 471.358 111.043C471.198 109.014 470.831 107.017 470.263 105.061C466.623 92.6072 463.521 81.4504 464.94 68.2527C466.219 56.4076 469.132 44.7466 472.409 33.3096C472.781 32.0211 473.3 29.7521 473.001 28.4516C472.101 24.5779 470.391 18.7194 473.52 15.9382C475.378 14.2895 477.377 12.8288 479.515 11.5643C481.505 10.3838 482.8 11.2882 484.562 11.8884C484.794 11.9645 484.958 11.8884 485.058 11.6683L486.284 8.93915C486.428 8.61501 486.732 8.38691 487.088 8.33489C487.939 8.21084 488.427 8.56299 488.558 9.39935C489.653 16.2703 488.826 20.9123 484.13 25.8704C481.157 29.0078 481.037 34.8943 480.833 39.1322C480.042 55.6673 479.451 68.893 479.055 78.8092C478.743 86.6206 479.695 92.3071 483.743 98.4257C484.055 98.8979 484.77 98.8339 484.994 98.3056C485.665 96.701 485.913 94.1198 487.923 93.9518M488.81 101.395C487.236 107.438 492.926 112.24 498.309 108.362C498.877 107.95 498.825 107.65 498.154 107.454C494.513 106.393 491.552 104.344 489.27 101.307C489.138 101.135 488.862 101.187 488.81 101.395Z" fill="#FBB9A3"/>
<path d="M492.266 119.899L492.29 120.623C491.835 123.905 490.316 128.627 490.668 131.776C491.535 139.555 498.509 137.951 502.901 134.269C504.331 133.073 506.082 131.172 508.16 128.579C508.272 128.443 508.416 128.375 508.595 128.395C509.459 128.471 510.186 126.474 510.442 125.926C516.768 125.285 523.098 125.421 529.201 121.648C529.572 121.56 529.86 121.588 530.064 121.744C530.248 121.88 530.295 122.06 530.2 122.276C526.723 130.055 530.647 138.499 536.941 143.273C538.884 144.746 540.47 143.849 542.508 143.253C540.886 147.723 531.151 151.22 527.042 153.009C526.683 153.165 526.391 153.433 526.211 153.782C523.825 158.332 521.739 163.006 519.945 167.792C518.259 172.302 517.767 176.163 518.682 181.165C519.969 188.196 523.002 195.311 517.216 201.474C509.047 205.716 500.067 207.469 490.276 206.744C483.023 206.2 478.495 204.667 473.152 199.977C469.603 193.539 471.274 187.572 472.6 179.789C472.864 178.224 473.144 175.363 472.517 173.894C469.383 166.523 466.286 160.993 469.467 153.113C471.286 148.599 475.722 143.373 474.974 138.451C474.095 132.636 473.068 126.85 471.889 121.083C471.214 117.758 471.034 114.413 471.358 111.039C472.972 105.785 476.717 103.536 482.591 104.284C483.075 104.344 483.359 104.62 483.423 105.105C484.238 111.059 485.832 117.826 492.27 119.899H492.266Z" fill="#FEB547"/>
<path d="M532.642 322.038C533.125 322.074 533.581 322.022 534.004 321.882C538.4 320.413 540.486 317.32 540.263 312.586C540.067 308.532 538.38 305.315 535.191 302.938C536.134 301.337 537.685 300.161 539.831 299.396C542.521 298.44 543.903 302.197 544.898 304.775C548.283 313.514 552.891 326.652 551.988 336.876C551.612 341.154 547.06 342.603 544.595 338.929C540.75 333.199 536.766 327.568 532.646 322.034L532.642 322.038Z" fill="#17081B"/>
<path d="M535.187 302.938C538.376 305.315 540.063 308.532 540.259 312.586C540.487 317.316 538.4 320.413 534.001 321.882C533.577 322.018 533.121 322.074 532.638 322.038C528.35 320.749 524.006 319.721 519.598 318.949C519.45 318.925 519.33 318.861 519.226 318.753L519.03 318.549C523.834 314.963 525.089 310.301 522.787 304.57C526.412 304.683 530.036 304.426 533.653 303.798C534.312 303.686 534.632 303.338 535.183 302.942L535.187 302.938Z" fill="#FBB9A3"/>
<path d="M473.152 199.981C478.496 204.671 483.019 206.204 490.277 206.748C500.068 207.473 509.048 205.72 517.216 201.478C517.504 202.078 517.767 202.927 517.999 204.023C521.06 218.349 520.657 234.34 514.954 248.002C513.292 251.984 510.814 256.554 507.525 261.716C499.984 273.561 493.41 285.954 487.807 298.892C487.759 299.004 487.871 299.112 487.979 299.064C492.011 297.191 495.712 296.787 500.32 297.567C508.028 298.88 515.518 301.209 522.791 304.562C525.093 310.293 523.838 314.955 519.034 318.54C504.544 321.022 489.977 322.918 475.334 324.243C470.603 324.667 465.424 324.107 462.243 320.397C461.363 319.373 460.704 317.904 460.005 316.584C459.905 316.4 459.753 316.271 459.557 316.207C451.009 313.554 450.741 306.407 451.62 298.804C453.475 282.841 456.983 267.258 462.147 252.04C464.137 246.189 467.25 239.51 468.217 233.468C470.011 222.239 469.544 211.35 473.152 199.981Z" fill="#567F63"/>
<path d="M365.176 84.0915C365.791 92.9673 369.852 99.6222 377.353 104.052C379.399 106.549 380.422 109.334 380.414 112.396C380.402 119.015 378.851 125.409 375.766 131.584C373.608 128.05 372.174 125.793 371.458 124.805C362.862 112.864 355.481 101.763 352.068 87.641C349.39 76.5443 347.996 63.9829 346.297 52.2338C345.674 47.9159 342.948 43.5901 341.134 39.5443C339.392 35.6386 337.669 33.1736 341.422 30.4164C343.516 28.8757 345.766 27.5832 348.164 26.5347C348.599 26.3506 348.947 26.4507 349.203 26.8469C349.986 28.0314 350.322 29.3439 350.202 30.7806C350.174 31.0847 350.278 31.1407 350.513 30.9406C351.876 29.7841 353.99 27.5312 355.321 29.48C355.441 29.6521 355.441 29.8201 355.321 29.9962C354.178 31.6329 352.456 33.1536 351.804 34.8943C350.29 38.9601 350.769 42.3335 352.38 46.6674C356.872 58.7766 361.679 71.29 364.768 83.8314C364.796 83.9635 364.88 84.0475 365.008 84.0875C365.092 84.1115 365.144 84.1115 365.176 84.0875V84.0915Z" fill="#F19975"/>
<path d="M433.265 129.179C430.663 123.212 429.085 118.57 423.958 113.888C423.618 113.528 423.294 113.288 423.002 113.176C416.864 110.695 410.298 109.583 403.756 108.326C401.434 103.576 405.175 99.138 406.174 94.3399C406.442 93.0474 406.965 92.5031 408.068 91.9269C408.252 91.8308 408.384 91.6828 408.464 91.4827C409.111 89.83 408.947 88.2973 407.972 86.8767C407.852 86.7046 407.696 86.5726 407.501 86.4805L405.606 85.6162C405.375 85.5161 405.267 85.3361 405.291 85.0759C405.367 84.1956 406.174 81.9986 404.148 82.6509L404.499 82.0146C404.647 82.0026 404.803 82.0426 404.955 82.1467C405.111 82.2467 405.247 82.2307 405.375 82.0947C406.182 81.2063 406.737 80.1778 407.037 79.0093C407.149 78.5651 406.797 78.1409 406.342 78.169L401.706 78.5171C401.546 78.5291 401.454 78.4531 401.442 78.289C401.366 77.2646 400.995 76.3682 400.331 75.5959C400.187 75.4278 400.004 75.3517 399.78 75.3638C397.862 75.4598 396.335 76.2801 395.204 77.8208C394.984 78.1249 394.517 78.0729 394.361 77.7328C393.757 76.3842 392.794 72.3585 390.732 73.0788C389.745 73.4189 388.802 75.2477 388.182 76.1641C387.963 76.5002 387.543 76.6443 387.155 76.5243C383.347 75.3197 382.627 72.3905 382.508 68.2247C382.504 67.9085 382.46 67.9085 382.384 68.2127L379.346 80.3899L377.624 82.1947C377.468 82.3548 377.408 82.5468 377.444 82.7709L377.732 84.6758C376.109 93.2715 378.395 100.463 384.594 106.261L377.364 104.064C369.863 99.6302 365.803 92.9793 365.188 84.1035C366.259 82.6469 367.078 81.2783 366.918 79.3735C366.402 73.1628 365.907 73.0388 370.642 68.6409C372.633 66.7961 373.496 64.7352 374.727 62.4302C377.172 57.8562 382.755 52.4659 388.538 53.7344C388.73 53.7745 388.902 53.7464 389.066 53.6344C390.34 52.742 391.895 52.1738 393.729 51.9137C408.22 49.9008 413.439 62.1901 419.178 72.5425C422.359 78.281 428.19 81.9586 434.812 82.7189C443.528 83.7194 444.894 86.9287 442.377 95.0162C440.894 99.7783 446.689 97.8374 448.591 98.5698C451.4 99.6422 449.374 103.968 448.191 105.793C448.083 105.961 447.936 106.081 447.748 106.157C444.854 107.326 444.487 108.182 447.616 109.522C447.892 109.635 447.944 109.823 447.776 110.075L447.38 110.651C447.28 110.799 447.232 110.967 447.244 111.147C447.452 114.545 448.255 118.154 444.411 119.815C443.975 119.999 443.787 120.523 444.003 120.939C445.002 122.884 444.934 124.821 443.807 126.754C443.707 126.934 443.552 127.034 443.348 127.066C440.95 127.414 438.784 126.85 436.854 125.381C436.274 124.937 435.435 125.261 435.291 125.982C435.035 127.31 434.36 128.383 433.277 129.199L433.265 129.179Z" fill="#6B2E1A"/>
<path d="M377.352 104.052L384.582 106.249L388.69 107.662C388.91 107.738 389.086 107.914 389.15 108.142C390.189 111.651 392.027 118.598 397.294 117.114C399.716 116.429 401.522 114.917 402.713 112.568C403.389 111.231 403.736 109.815 403.748 108.322C410.29 109.579 416.86 110.695 422.995 113.172C423.286 113.284 423.61 113.524 423.95 113.884C422.207 113.76 420.745 114.353 419.554 115.665C412.488 123.476 412.932 135.778 417.915 144.466C420.117 148.303 422.767 153.477 425.86 159.988C426.128 165.703 426.02 171.397 425.548 177.068C421.999 183.274 418.447 187.524 410.878 188.545C400.088 189.989 390.824 186.908 383.083 179.317C377.564 173.218 378.711 168.208 379.335 160.488C379.351 160.292 379.307 160.104 379.191 159.936C374.287 152.701 370.207 148.767 372.797 139.643C373.652 136.614 374.643 133.925 375.762 131.58C378.847 125.405 380.398 119.011 380.41 112.392C380.414 109.33 379.395 106.545 377.348 104.048L377.352 104.052Z" fill="#F3DBB6"/>
<path d="M423.958 113.888C429.085 118.57 430.664 123.212 433.266 129.179C435.34 138.167 437.266 147.211 439.036 156.303C439.911 160.777 441.978 165.863 442.637 169.736C443.888 177.08 444.104 184.451 443.288 191.862C443.045 194.103 442.917 196.348 442.913 198.605C442.913 198.813 443.009 198.969 443.2 199.065C448.428 201.646 454.85 203.547 457.667 209.253C457.755 209.433 457.763 209.642 457.691 209.83C457.555 210.206 457.355 210.37 457.1 210.31C456.904 210.27 456.76 210.154 456.664 209.982C456.204 209.161 455.493 208.717 454.53 208.653C454.11 208.625 453.835 209.089 454.07 209.446L456.464 213.087C456.6 213.291 456.608 213.499 456.492 213.711L456.284 214.108C456.125 214.408 455.721 214.468 455.477 214.232C454.426 213.219 452.74 210.858 451.309 210.65C451.065 210.614 451.017 210.69 451.173 210.89C452.244 212.227 452.955 213.735 453.315 215.412C453.423 215.908 452.772 216.204 452.472 215.788C451.365 214.26 449.387 210.702 447.273 211.094C446.985 211.146 446.877 211.506 447.093 211.71C448.392 212.939 449.331 214.412 449.902 216.144C450.122 216.821 449.255 217.313 448.791 216.773C445.65 213.151 443.568 210.734 438.709 209.598C436.183 209.009 434.129 210.414 432.107 211.686C431.779 211.895 431.339 211.698 431.287 211.31C430.94 208.817 433.909 204.427 435.324 202.434C435.436 202.274 435.491 202.086 435.479 201.882C435.452 201.338 435.392 200.818 435.312 200.314C433.821 190.741 432.386 181.165 431.004 171.577C430.388 167.331 428.134 163.558 425.872 160C422.779 153.489 420.13 148.315 417.928 144.478C412.944 135.786 412.505 123.484 419.566 115.677C420.757 114.365 422.224 113.772 423.962 113.896L423.958 113.888Z" fill="#F19975"/>
<path d="M425.552 177.076C429.361 183.79 430.62 190.882 429.313 198.349C427.854 206.696 424.605 212.359 419.426 220.778C411.381 233.864 404.328 247.474 398.281 261.6C397.546 263.105 397.015 264.773 396.695 266.626C396.008 270.632 394.201 274.105 391.272 277.035C388.682 279.636 386.157 281.413 383.699 282.373C377.353 274.582 375.874 269.639 377.301 259.243C378.615 249.667 380.494 240.199 382.928 230.823C385.086 222.727 387.651 214.752 390.632 206.908C391.46 204.74 392.918 198.153 390.029 197.104C383.443 194.715 380.274 200.418 377.265 205.06C371.722 213.619 367.062 221.319 363.282 228.166C361.379 231.615 358.19 238.13 359.029 242.06C359.597 244.721 361.723 247.678 362.163 250.187C363.417 257.254 355.441 264.417 350.641 268.255C349.798 268.931 349.015 269.035 348.291 268.559C347.264 263.881 346.573 259.155 346.221 254.369C345.742 247.762 347.416 243.336 350.206 236.353C358.65 215.192 369.632 197.644 383.083 179.317C390.824 186.912 400.088 189.989 410.878 188.545C418.451 187.528 422.004 183.274 425.548 177.068L425.552 177.076Z" fill="#222F42"/>
<path d="M382.931 230.823C377.308 236.493 372.205 242.572 367.625 249.059C367.493 249.243 367.525 249.407 367.709 249.531C370.251 251.251 371.262 253.5 370.742 256.282C370.199 259.175 365.759 281.464 363.673 282.509C359.593 284.726 355.544 284.702 351.532 282.445L348.295 268.563C349.018 269.035 349.802 268.935 350.645 268.259C355.44 264.421 363.421 257.258 362.166 250.191C361.723 247.682 359.601 244.725 359.033 242.064C358.194 238.134 361.383 231.619 363.285 228.17C367.066 221.323 371.725 213.623 377.268 205.064C380.278 200.422 383.447 194.719 390.033 197.108C392.922 198.157 391.463 204.743 390.636 206.912C387.659 214.76 385.093 222.731 382.931 230.827V230.823Z" fill="#1B1D2F"/>
<path d="M405.967 298.756C404.464 300.689 402.534 301.965 400.16 302.57C394.901 295.627 389.046 289.232 383.707 282.369C386.165 281.412 388.69 279.632 391.28 277.031C394.209 274.101 396.016 270.628 396.703 266.622C397.019 264.773 397.554 263.101 398.29 261.596C404.44 260.944 406.222 265.149 406.518 270.396C406.954 278.163 407.189 285.93 407.213 293.71C407.221 295.511 406.806 297.195 405.971 298.752L405.967 298.756Z" fill="#1B1D2F"/>
<path d="M351.532 282.441C355.545 284.698 359.597 284.722 363.673 282.505C363.649 282.773 363.737 282.977 363.941 283.129C364.101 283.241 364.145 283.393 364.073 283.577C363.282 285.666 362.878 287.847 362.858 290.112C362.103 289.772 361.627 290.012 361.427 290.845C359.521 292.185 357.419 293.09 355.129 293.558C353.047 293.982 354.034 295.935 353.526 297.607C353.359 292.425 352.695 287.371 351.528 282.441H351.532Z" fill="#FBB9A3"/>
<path d="M362.858 290.116C367.014 290.236 368.832 292.385 368.317 296.559C367.39 304.146 366.195 320.553 358.282 324.283C355.58 325.56 352.971 324.887 352.251 321.678C352.223 321.554 352.223 321.434 352.251 321.306L352.327 320.966C354.553 324.115 358.034 322.462 360.204 320.349C364.808 315.851 365.551 306.287 366.562 299.544C366.922 297.155 367.805 291.221 364.081 291.153C363.885 291.149 363.705 291.089 363.549 290.969C362.914 290.476 362.21 290.436 361.427 290.849C361.623 290.016 362.102 289.776 362.858 290.116Z" fill="#F3DBB6"/>
<path d="M352.331 320.966C351.931 317.924 351.931 314.879 352.331 311.834C352.683 310.149 352.823 308.456 352.731 306.743L353.526 297.611C354.033 295.939 353.046 293.99 355.128 293.562C357.418 293.094 359.52 292.189 361.427 290.849C362.21 290.436 362.917 290.476 363.549 290.969C363.705 291.089 363.884 291.149 364.08 291.153C367.805 291.217 366.922 297.155 366.562 299.544C365.551 306.287 364.808 315.851 360.204 320.349C358.034 322.462 354.553 324.115 352.327 320.966H352.331Z" fill="#FEB547"/>
<path d="M410.498 330.998C411.221 331.998 412.108 332.238 413.167 331.722C420.141 328.309 415.153 308.144 413.167 302.506C412.408 300.361 411.333 299.104 408.955 299.612C408.735 299.66 408.583 299.792 408.507 300.009C407.436 302.954 405.606 305.291 403.017 307.024C402.813 307.156 402.729 307.34 402.765 307.58L403.124 310.037L400.159 302.574C402.533 301.969 404.467 300.693 405.966 298.76C408.987 298.604 410.905 298.6 411.725 298.748C413.107 299 414.062 299.956 414.59 301.629C416.904 309.008 421.679 327.58 414.422 333.703C414.25 333.847 414.05 333.911 413.831 333.907C411.916 333.855 410.805 332.891 410.498 331.002V330.998Z" fill="#F3DBB6"/>
<path d="M410.498 330.998C407.161 323.207 405.323 316.744 403.125 310.037L402.765 307.58C402.729 307.34 402.813 307.156 403.017 307.024C405.606 305.291 407.437 302.958 408.508 300.009C408.584 299.792 408.735 299.66 408.955 299.612C411.329 299.104 412.408 300.361 413.167 302.506C415.154 308.14 420.141 328.309 413.167 331.722C412.108 332.238 411.225 331.998 410.498 330.998Z" fill="#FEB547"/>
<path d="M245.545 248.47L246.868 259.575L231.67 277.387C233.125 271.848 234.695 266.354 236.382 260.912C237.397 257.63 238.212 254.301 238.815 250.915L245.545 248.47Z" fill="#C6C9C8"/>
<path d="M293.969 292.517C295.1 295.687 297.386 302.113 296.458 305.339C294.956 310.569 289.725 308.556 287.139 305.691L285.089 298.092C287.946 298.348 293.457 296.671 293.377 292.99C293.373 292.793 293.465 292.661 293.657 292.605L293.969 292.517Z" fill="#F19975"/>
<path d="M243.556 228.114C242.449 235.225 240.97 242.232 239.112 249.135C239.072 248.082 239.1 247.038 239.2 246.001C239.311 244.821 239.299 243.792 239.172 242.912C237.741 233.204 236.302 223.5 234.84 213.799C234.68 212.715 234.668 211.062 234.804 208.833C234.816 208.649 234.9 208.605 235.055 208.701C236.354 209.474 238.069 210.294 240.207 211.174C242.061 211.935 241.925 213.439 242.161 215.156C242.752 219.474 243.22 223.792 243.556 228.11V228.114Z" fill="#C6C9C8"/>
<path d="M293.77 320.137C294.445 319.917 295.02 319.705 295.5 319.509C297.486 318.701 298.561 316.54 299.368 314.551C303.009 305.567 300.26 297.74 296.211 288.952C296.063 288.628 295.564 288.119 294.717 287.423C298.014 284.734 301.163 298.288 301.57 300.013C303.205 306.852 302.174 313.13 298.477 318.849C297.262 320.729 295.692 321.162 293.77 320.137Z" fill="#F3DBB6"/>
<path d="M267.202 182.166C274.415 193.407 275.418 207.321 274.931 220.01C274.367 234.54 273.392 249.047 272.001 263.521C271.977 263.749 272.077 263.869 272.305 263.881C281.605 264.341 289.501 279.748 292.962 287.507L293.965 292.513L293.653 292.601C293.462 292.653 293.366 292.785 293.374 292.986C293.45 296.667 287.943 298.348 285.085 298.088C282.903 296.035 280.398 294.362 277.572 293.086C269.044 289.228 263.098 286.695 259.737 285.486C254.549 283.625 251.236 280.208 249.79 275.258C248.467 270.736 247.492 265.506 246.864 259.571L245.542 248.466C245.226 241.655 244.563 234.872 243.551 228.11C243.216 223.792 242.748 219.474 242.157 215.156C241.917 213.435 242.057 211.935 240.203 211.174C238.068 210.294 236.35 209.474 235.051 208.701C234.895 208.605 234.811 208.649 234.799 208.833C234.664 211.062 234.676 212.715 234.835 213.799C236.294 223.504 237.737 233.204 239.167 242.912C239.299 243.792 239.311 244.821 239.195 246.001C239.096 247.038 239.064 248.078 239.108 249.135C238.852 249.715 238.756 250.307 238.816 250.915C238.212 254.301 237.397 257.63 236.382 260.912C234.696 266.354 233.121 271.848 231.67 277.387C230.164 279.704 229.44 282.789 227.782 284.61C224.797 287.891 219.498 288.616 215.489 287.303C209.263 285.274 207.481 279.72 207.249 273.757C206.601 256.946 209.131 240.063 212.72 223.688C214.274 216.585 216.033 209.522 216.996 202.382C217.719 197.032 218.415 191.686 219.078 186.332C221.544 186.912 224.037 187.252 226.559 187.356C235.93 187.728 245.258 187.308 254.545 186.091C258.186 185.611 261.739 184.799 265.216 183.654C265.395 183.594 265.507 183.474 265.555 183.29L265.727 182.638L267.198 182.166H267.202Z" fill="#DADDDC"/>
<path d="M294.716 287.427C295.567 288.123 296.063 288.632 296.21 288.956C300.259 297.744 303.012 305.571 299.368 314.555C298.56 316.544 297.485 318.705 295.499 319.513C295.02 319.709 294.448 319.921 293.769 320.141C290.699 315.703 288.486 310.889 287.135 305.695C289.72 308.556 294.952 310.569 296.454 305.343C297.381 302.113 295.095 295.687 293.964 292.521L292.961 287.515C293.661 287.359 294.248 287.331 294.716 287.431V287.427Z" fill="#604F3A"/>
<path d="M213.371 45.0107C210.218 44.3264 207.037 43.9222 203.824 43.7901L205.534 33.9419C205.57 33.7378 205.53 33.5577 205.403 33.3977C203.125 30.3564 200.211 27.4271 203.077 23.4254C205.482 20.0719 210.626 18.3752 214.482 17.7589C217.699 17.2507 219.53 21.7887 220.145 24.1977C221.02 27.5992 217.455 30.2403 215.253 32.3852C215.106 32.5293 215.022 32.7014 214.99 32.9135L213.367 45.0107H213.371Z" fill="#F19975"/>
<path d="M307.745 58.9887C304.204 58.3484 302.046 59.2408 298.769 59.9891C298.165 60.1252 297.578 60.3413 297.01 60.6254L297.918 59.8931C298.109 59.737 298.193 59.5329 298.173 59.2888L297.014 44.5505C296.999 44.3224 296.907 44.1303 296.747 43.9702C294.773 42.0014 291.376 39.8325 292.439 36.539C293.27 33.9699 295.428 29.484 298.705 30.0122C302.37 30.6005 308.028 35.1584 309.979 37.8516C312.544 41.4051 309.655 44.6545 307.085 47.2917C306.949 47.4277 306.877 47.5958 306.857 47.7959C306.59 51.2294 306.614 54.6668 306.929 58.0963C306.949 58.2924 307.029 58.4485 307.185 58.5685L307.741 58.9927L307.745 58.9887Z" fill="#F19975"/>
<path d="M203.828 43.7901C207.041 43.9222 210.222 44.3304 213.375 45.0107C215.437 46.1111 216.472 47.8719 216.48 50.2889C216.484 58.0083 216.564 65.7356 216.708 73.4629C216.712 73.647 216.796 73.791 216.96 73.8871C217.048 73.9391 217.155 73.9511 217.287 73.9351C215.697 78.405 226.235 95.7125 228.809 99.9543C231.243 103.972 237.904 105.681 241.973 106.513C241.285 118.15 256.252 117.346 257.71 107.113C257.762 106.773 257.89 106.633 258.11 106.381C261.663 107.502 263.441 106.789 267.094 105.473C274.319 102.868 281.736 98.0335 287.723 93.2554C291.351 90.3502 293.417 86.5886 293.901 81.9706C294.5 76.2561 294.704 70.5256 294.516 64.7712C294.7 63.0264 295.532 61.6498 297.01 60.6334C297.578 60.3533 298.165 60.1372 298.769 59.9971C302.046 59.2488 304.204 58.3564 307.744 58.9967C310.478 59.5489 310.901 62.098 311.165 64.5311C311.765 70.1535 312.068 75.7919 312.08 81.4383C312.104 91.3786 311.837 97.8134 305.466 104.564C297.37 113.152 286.836 120.071 276.429 125.509C275.59 125.946 274.359 127.038 273.815 127.822C265.071 140.436 266.119 152.857 270.83 166.895C272.772 172.682 272.177 178.276 267.206 182.174L265.735 182.646C263.389 183.538 260.979 184.191 258.506 184.611C245.537 186.796 231.75 187.516 219.11 185.467C211.189 182.15 214.018 173.442 213.327 166.787C212.436 158.199 210.625 148.919 212.943 140.692C213.715 137.951 215.053 134.253 216.956 129.611C218.159 126.666 216.62 122.704 215.121 120.123C209.834 111.039 205.007 103.34 201.39 94.4359C198.113 86.3685 197.537 79.7096 198.281 71.0379C198.704 66.0357 199.735 58.2764 201.354 47.7638C201.654 45.819 202.477 44.4984 203.836 43.7981L203.828 43.7901Z" fill="#F47920"/>
<path d="M294.513 64.7632C294.696 70.5177 294.497 76.2522 293.897 81.9626C293.414 86.5806 291.348 90.3422 287.719 93.2475C281.732 98.0255 274.315 102.86 267.09 105.465C263.437 106.781 261.659 107.494 258.106 106.373C258.59 101.695 259.996 97.2932 262.33 93.1674C262.454 92.9473 262.598 92.9353 262.762 93.1394L263.229 93.7557C263.365 93.9358 263.545 94.0238 263.773 94.0238C268.652 94.0598 272.785 85.208 268.389 82.5068C268.217 82.4068 268.065 82.4228 267.929 82.5669C267.601 82.915 267.186 83.2152 266.698 83.4593C265.567 84.0275 265.136 83.6994 265.407 82.4588C266.031 79.5976 267.046 76.1801 266.754 73.4469C266.251 68.8169 263.733 65.4995 259.201 63.4867C249.918 59.3649 243.28 62.4142 241.182 72.4065C241.022 73.1668 240.482 74.0672 239.559 75.1077C239.375 75.3158 239.243 75.2877 239.163 75.0196C238.8 73.7551 238.176 72.1624 236.598 73.503C233.189 76.3842 232.566 79.9297 234.728 84.1395L235.511 84.5397C234.636 91.7308 237.857 95.1883 242.52 99.8303C242.664 99.9744 242.736 100.146 242.736 100.351C242.72 102.475 242.46 104.524 241.977 106.509C237.909 105.677 231.247 103.968 228.813 99.9504C226.239 95.7085 215.701 78.4011 217.292 73.9312C218.482 72.9147 219.829 72.1464 221.336 71.6302C221.556 71.5541 221.683 71.318 221.628 71.0979C220.565 66.64 220.652 59.609 227.278 60.1852C227.702 60.2212 228.098 59.9651 228.229 59.561C229.209 56.5917 231.586 52.9741 235.287 54.0386C237.145 54.5788 239.104 56.8358 240.606 58.3645C241.15 58.9287 242.109 58.6566 242.281 57.8922C242.844 55.4312 243.951 52.1738 246.641 51.0813C248.567 50.297 249.99 50.7532 250.905 52.4339C251.088 52.77 251.564 52.8061 251.796 52.4979C255.297 47.924 257.986 48.6843 261.547 52.562C261.799 52.8381 262.234 52.8381 262.478 52.5579C264.704 50.0489 267.058 47.8039 270.679 47.7319C274.747 47.6558 275.074 51.3414 276.993 53.6504C278.423 55.3712 281.573 52.602 283.107 52.1418C287.083 50.9453 291.044 53.8785 291.427 57.8842C291.619 59.8611 290.596 62.1141 290.069 64.1429C289.933 64.6632 290.356 65.1674 290.896 65.1114L294.521 64.7592L294.513 64.7632Z" fill="#17081B"/>
<path d="M255.505 75.7199C257.918 74.2713 260.588 75.1597 262.83 77.1325C263.15 77.4167 263.261 77.3606 263.17 76.9685C262.274 73.2068 255.864 70.2816 255.117 75.4758C255.093 75.6719 255.329 75.824 255.505 75.7159V75.7199Z" fill="#17081B"/>
<path d="M244.71 79.6976C244.118 79.4935 243.783 78.8573 243.95 78.249C244.314 76.9364 245.033 76.6443 246.096 77.3686C246.748 77.8168 246.856 78.7452 246.324 79.3335C245.901 79.8017 245.361 79.9217 244.71 79.6976Z" fill="#17081B"/>
<path d="M255.272 81.8986C254.681 81.6945 254.345 81.0582 254.513 80.45C254.877 79.1374 255.596 78.8453 256.659 79.5696C257.31 80.0178 257.418 80.9462 256.887 81.5344C256.463 82.0026 255.924 82.1227 255.272 81.8986Z" fill="#17081B"/>
<path d="M383.527 84.9519C382.936 84.7478 382.6 84.1115 382.768 83.5032C383.131 82.1907 383.851 81.8985 384.914 82.6229C385.565 83.0711 385.673 83.9995 385.142 84.5877C384.718 85.0559 384.179 85.176 383.527 84.9519Z" fill="#17081B"/>
<path d="M397.765 86.3645C397.174 86.1604 396.838 85.5242 397.006 84.9159C397.37 83.6033 398.089 83.3112 399.152 84.0355C399.804 84.4837 399.911 85.4121 399.38 86.0004C398.956 86.4686 398.417 86.5886 397.765 86.3645Z" fill="#17081B"/>
<path d="M491.42 93.3075C490.828 93.1034 490.493 92.4671 490.66 91.8589C491.024 90.5463 491.743 90.2542 492.806 90.9785C493.458 91.4267 493.566 92.3551 493.034 92.9433C492.611 93.4115 492.071 93.5316 491.42 93.3075Z" fill="#17081B"/>
<path d="M500.511 101.291C499.92 101.087 499.584 100.451 499.752 99.8423C500.116 98.5298 500.835 98.2376 501.898 98.9619C502.55 99.4101 502.657 100.339 502.126 100.927C501.702 101.395 501.163 101.515 500.511 101.291Z" fill="#17081B"/>
<path d="M160.384 6.46605C161.603 5.24953 166.187 0.155337 167.849 0.00327114C168.101 -0.0207392 168.257 0.0873073 168.309 0.331412C168.588 1.49992 169.1 2.47634 169.835 3.26067C172.86 6.50207 175.662 11.064 175.774 15.3579C175.906 20.4081 169.503 20.6522 165.887 22.9171C165.719 23.0252 165.607 23.1733 165.539 23.3653C165.128 24.5979 164.924 25.8744 164.924 27.191C164.928 32.5853 165.235 38.5399 164.948 43.3619C164.384 52.802 162.482 61.97 159.237 70.8658C158.817 72.0223 158.59 73.1828 158.554 74.3513C158.086 89.4378 157.71 104.852 154.857 119.707C154.769 120.163 154.701 120.463 154.653 120.603C154.493 121.119 154.218 121.183 153.838 120.807C149.034 116.033 144.466 111.087 140.118 105.953C139.239 104.916 138.552 103.9 138.056 102.904C137.96 102.708 137.948 102.507 138.028 102.311C141.977 92.255 145.362 83.2591 147.684 73.1268C147.951 71.9583 148.043 70.6697 147.951 69.2651C147 54.1106 153.131 39.0481 158.066 24.922C160.26 18.6393 154.817 12.0164 160.388 6.46205L160.384 6.46605Z" fill="#F19975"/>
<path d="M37.8359 38.1797C32.3449 37.4074 24.4122 35.1264 27.5134 27.7992C29.4556 23.2053 32.8724 20.1079 37.764 18.5112C37.9598 18.4472 38.0637 18.3072 38.0637 18.0991C38.0677 17.1787 38.3754 16.3423 38.9788 15.606C39.5064 14.9657 40.5214 15.0898 40.8691 15.8461C41.9161 18.1391 42.6994 19.7398 44.3219 22.1888C45.8166 24.4458 46.4999 26.9069 46.3601 29.584C46.0364 36.2309 45.6607 40.2766 49.1655 45.3588C56.8864 56.5596 67.3008 68.3047 68.1441 82.3227C68.1561 82.5268 68.228 82.7069 68.3639 82.863C70.422 85.228 72.4121 87.565 74.0826 90.2942C78.7423 97.9054 83.6658 105.345 88.861 112.604C88.9929 112.788 89.0209 112.988 88.957 113.204L83.49 130.68C83.3901 131.008 82.9745 131.116 82.7307 130.876C74.6461 123.136 68.3399 113.032 62.9209 103.332C60.3312 98.6898 58.365 93.8037 57.0303 88.6655C56.7265 87.493 56.263 86.3965 55.6475 85.384C47.0115 71.1419 42.7394 54.2987 38.2795 38.5679C38.2155 38.3398 38.0717 38.2077 37.8359 38.1797Z" fill="#F19975"/>
<path d="M127.633 109.767C132.153 104.44 132.8 98.3377 131.617 91.6308C131.59 91.4347 131.498 91.2666 131.362 91.1226C129.823 89.5099 128.576 87.8171 128.636 85.4441C128.784 78.9573 120.588 75.6199 115.568 74.0712C115.484 70.9979 115.444 67.9326 115.444 64.8833C115.444 61.8339 115.528 58.8887 115.688 55.8874C115.692 55.7073 115.764 55.5592 115.904 55.4392L116.34 55.051C116.511 54.895 116.547 54.7149 116.435 54.5068C116.348 54.3387 116.22 54.2147 116.06 54.1226C119.201 52.2178 123.297 50.9533 126.522 53.1462C128.416 54.4348 129.028 56.9198 129.751 59.0768C129.815 59.2728 129.923 59.4489 130.075 59.597L130.966 60.4894C131.114 60.6374 131.294 60.7535 131.506 60.8175C135.43 62.0981 139.938 63.0625 140.649 66.9161C141.213 69.9574 138.599 72.5225 139.179 75.4678C139.442 76.8044 139.902 78.0689 140.561 79.2534C141.944 81.7625 142.1 84.3516 141.405 86.9808C140.709 89.6179 137.164 90.9625 135.138 92.5032C134.978 92.6272 134.91 92.7913 134.954 92.9874C135.402 95.3364 136.281 98.1856 136.065 100.319C135.594 105.037 131.594 107.81 127.645 109.771L127.633 109.767Z" fill="#17081B"/>
<path d="M116.053 54.1226C116.212 54.2106 116.34 54.3387 116.428 54.5067C116.54 54.7148 116.504 54.8949 116.332 55.051L115.897 55.4391C115.761 55.5592 115.689 55.7073 115.681 55.8873C115.521 58.8886 115.437 61.8819 115.437 64.8832C115.437 67.8845 115.477 70.9978 115.561 74.0712C112.044 73.587 110.777 75.4838 108.42 77.1845C108.26 77.3046 108.072 77.3526 107.868 77.3286C104.052 76.9204 101.23 78.285 100.399 82.1907C99.7596 85.1919 99.0482 88.2293 98.265 91.2866C98.177 91.6227 97.8294 91.8148 97.4937 91.7108C94.0049 90.6263 92.6381 93.5195 92.4623 96.4288C92.2665 99.7782 93.6092 102.459 96.5066 104.484C96.6904 104.608 96.8782 104.604 97.0581 104.468L97.7334 103.94C97.9732 103.756 98.1291 103.808 98.205 104.1C98.4488 105.004 98.7605 105.669 99.1362 106.093C101.762 109.038 104.903 111.263 108.544 112.764C103.536 113.972 100.439 111.667 95.5275 109.518C92.9858 108.406 91.0476 106.649 89.7128 104.26C88.7697 102.571 88.9535 100.29 87.2551 98.8178C80.6292 93.0753 77.572 85.5401 86.5837 79.5695C89.2173 77.8248 90.604 75.3757 90.7479 72.2264C90.9517 67.7524 92.83 64.9392 97.2179 63.4146C102.002 61.7619 105.53 61.1976 109.69 58.1803C111.729 56.6997 113.855 55.3471 116.049 54.1146L116.053 54.1226Z" fill="#17081B"/>
<path d="M115.561 74.0712C120.58 75.6239 128.781 78.9573 128.629 85.4441C128.569 87.8171 129.82 89.5099 131.354 91.1226C131.49 91.2666 131.582 91.4347 131.61 91.6308C132.793 98.3377 132.15 104.44 127.626 109.767C126.059 111.839 123.629 114.056 123.158 116.469C122.271 121.015 127.178 123.208 126.93 127.77C126.699 132.132 123.006 134.285 118.91 133.425C112.719 132.124 111.696 127.65 111.069 121.896C110.813 119.487 110.334 117.11 109.638 114.757C109.443 114.08 109.071 113.42 108.539 112.776C104.899 111.271 101.758 109.05 99.132 106.105C98.7563 105.681 98.4446 105.017 98.2008 104.112C98.1249 103.82 97.969 103.764 97.7293 103.952L97.0539 104.48C96.874 104.616 96.6902 104.624 96.5024 104.496C93.609 102.471 92.2623 99.7903 92.4581 96.4409C92.6299 93.5316 94.0007 90.6384 97.4895 91.7228C97.8252 91.8229 98.1729 91.6348 98.2608 91.2986C99.0441 88.2373 99.7554 85.2 100.395 82.2027C101.226 78.297 104.047 76.9324 107.864 77.3406C108.068 77.3646 108.252 77.3166 108.415 77.1966C110.773 75.4958 112.04 73.599 115.557 74.0832M110.402 80.9222C106.221 79.4535 101.818 83.3552 102.029 87.397C102.045 87.7731 102.545 87.8892 102.737 87.565C104.991 83.7074 106.613 83.3592 110.913 83.3552C111.085 83.3552 111.201 83.2712 111.249 83.0991C111.577 81.9626 111.297 81.2383 110.406 80.9262M117.423 86.3085C119.062 83.4032 122.467 83.6273 125.228 84.9319C125.532 85.076 125.843 84.7518 125.696 84.4517C123.709 80.474 116.18 80.7101 117.231 86.2765C117.267 86.4606 117.331 86.4726 117.423 86.3045M119.877 92.2751C120.528 92.4951 121.068 92.3751 121.491 91.9109C122.023 91.3226 121.915 90.3942 121.264 89.9461C120.201 89.2217 119.481 89.5139 119.118 90.8264C118.95 91.4387 119.285 92.071 119.877 92.2751ZM110.689 91.1026C110.689 90.2502 110.002 89.5619 109.151 89.5619C108.3 89.5619 107.612 90.2502 107.612 91.1026C107.612 91.9549 108.3 92.6432 109.151 92.6432C110.002 92.6432 110.689 91.9549 110.689 91.1026ZM110.434 100.931C113.083 104.564 117.103 105.813 120.956 103.164C121.907 102.511 122.507 101.679 122.738 100.659C122.802 100.359 122.69 100.238 122.387 100.307C118.494 101.147 114.586 101.235 110.657 100.571C110.294 100.507 110.214 100.623 110.438 100.931H110.434Z" fill="#F19975"/>
<path d="M94.5205 353.928L82.3197 349.106C85.1012 331.55 89.0855 314.271 94.2648 297.255C94.3287 297.047 94.1928 296.831 93.985 296.799L80.7971 294.758C76.8328 290.885 75.1343 286.163 75.6938 280.6C83.075 280.624 89.8528 280.796 96.0191 281.128C97.2141 281.192 98.6168 281.384 100.223 281.709C100.475 281.761 100.571 281.661 100.511 281.408C94.7043 257.554 88.2023 233.052 94.2208 208.969C94.5725 207.573 95.1639 206.048 96.0032 204.383C96.1031 204.179 96.2429 204.155 96.4148 204.311C102.785 210.122 110.13 212.463 118.443 211.338C128.941 209.914 141.062 200.694 148.631 193.082C148.767 192.946 148.863 192.97 148.923 193.146C149.442 194.667 149.762 195.8 149.862 196.536C151.017 204.679 151.792 213.511 154.314 221.355C157.635 231.723 160.132 240.515 161.807 247.742C164.936 261.248 165.623 275.186 163.865 289.54C162.598 299.9 160.724 315.247 146.765 315.639C144.611 315.703 141.441 315.039 137.253 313.658C132.234 311.998 127.294 310.125 122.431 308.036C122.235 307.952 122.079 307.996 121.951 308.168C111.645 322.262 101.118 337.741 94.5205 353.924M101.454 295.402C101.286 296.859 101.394 296.875 101.778 295.463C102.993 291.025 102.745 286.675 101.047 282.417C101.019 282.345 100.939 282.305 100.863 282.329C100.791 282.353 100.743 282.429 100.763 282.509C101.738 286.767 101.966 291.069 101.458 295.402H101.454Z" fill="#386145"/>
<path d="M73.9108 279.94C71.1013 281.733 69.0672 282.533 67.6725 285.826C65.9421 289.904 65.7902 294.05 67.2009 298.272C68.0561 300.837 69.6307 302.938 72.588 303.062C71.3691 307.9 69.255 320.257 64.3156 322.286C60.0035 318.536 59.2562 307.588 59.4161 302.366C59.524 298.848 60.0275 294.89 60.9187 290.488C61.9458 285.426 63.5203 280.528 65.6424 275.798C67.7284 274.582 69.6187 274.373 71.3052 275.17C73.1275 276.034 73.5711 278.091 73.9068 279.936L73.9108 279.94Z" fill="#604F3A"/>
<path d="M65.6426 275.802C63.5205 280.532 61.946 285.434 60.9189 290.492C60.0277 294.894 59.5242 298.852 59.4163 302.37C59.2564 307.592 60.0037 318.54 64.3158 322.29L63.9521 322.71C63.8202 322.858 63.6604 322.902 63.4726 322.834C58.8128 321.198 57.7898 305.847 58.1135 301.789C58.621 295.278 59.6401 288.848 61.1627 282.485C61.6702 280.36 62.5854 278.431 63.9082 276.706C64.5596 275.85 65.139 275.546 65.6426 275.802Z" fill="#F3DBB6"/>
<path d="M73.9112 279.94C74.2988 280.616 74.8983 280.84 75.6935 280.604C75.1301 286.167 76.8285 290.889 80.7969 294.762C75.1101 294.534 72.3766 297.303 72.5924 303.062C69.6311 302.938 68.0605 300.833 67.2053 298.272C65.7946 294.05 65.9505 289.904 67.6769 285.826C69.0716 282.533 71.1058 281.729 73.9152 279.94H73.9112Z" fill="#F19975"/>
<path d="M82.3191 349.11L94.5199 353.932L93.349 359.15C92.0022 362.679 93.8046 370.151 94.7957 373.824C90.8673 377.718 86.2955 376.517 83.0185 372.68C78.2589 367.109 78.6745 358.049 81.5239 351.695C81.7197 351.263 81.6437 350.654 81.6597 350.19C82.1553 350.046 82.3711 349.686 82.3191 349.114V349.11Z" fill="#F19975"/>
<path d="M81.66 350.186C81.644 350.646 81.7199 351.259 81.5241 351.691C78.6787 358.046 78.2591 367.105 83.0187 372.676C86.2957 376.513 90.8675 377.714 94.7959 373.82L96.854 382.644C97.917 388.335 98.1169 394.041 91.9865 395.39C87.7464 396.322 83.2425 389.287 81.4881 386.402C79.2222 382.216 77.5158 377.818 76.3808 373.22C74.6384 367.302 72.948 358.374 74.9341 352.439C76.9203 350.954 79.1623 350.206 81.664 350.194L81.66 350.186Z" fill="#604F3A"/>
<path d="M74.9337 352.431C72.9476 358.366 74.642 367.297 76.3804 373.212C74.5621 376.469 70.4059 359.986 70.278 359.57C70.254 357.157 70.8815 355.204 72.1563 353.72C72.7437 353.043 73.6709 352.611 74.9297 352.431H74.9337Z" fill="#F3DBB6"/>
</svg>
