<svg width="50" height="32" viewBox="0 0 50 32" fill="none" xmlns="http://www.w3.org/2000/svg">
<rect x="0.5" y="0.5" width="49" height="31" rx="2.5" stroke="white" stroke-opacity="0.5"/>
<path d="M23.9714 16.827V21.2502H22.5682V10.3269H26.2898C26.734 10.3176 27.1757 10.3964 27.5893 10.5587C28.0029 10.721 28.3803 10.9636 28.6996 11.2726C29.0222 11.5627 29.279 11.9186 29.4526 12.3162C29.6262 12.7138 29.7127 13.144 29.7063 13.5778C29.7155 14.014 29.6304 14.447 29.4566 14.8472C29.2829 15.2473 29.0246 15.6052 28.6996 15.8962C28.0489 16.5168 27.2456 16.8268 26.2898 16.8262H23.9714V16.827ZM23.9714 11.6717V15.4848H26.3246C26.5826 15.4925 26.8393 15.4462 27.0784 15.3489C27.3175 15.2517 27.5336 15.1056 27.713 14.9201C27.8915 14.7466 28.0333 14.539 28.1302 14.3098C28.2271 14.0805 28.277 13.8341 28.277 13.5853C28.277 13.3364 28.2271 13.09 28.1302 12.8607C28.0333 12.6315 27.8915 12.4239 27.713 12.2505C27.5359 12.061 27.3205 11.9113 27.0811 11.8114C26.8418 11.7115 26.5839 11.6636 26.3246 11.6709H23.9714V11.6717Z" fill="white"/>
<path d="M32.9398 13.5327C33.977 13.5327 34.7957 13.8099 35.3959 14.3642C35.9961 14.9185 36.296 15.6785 36.2954 16.6442V21.2504H34.9532V20.2133H34.8921C34.3111 21.0674 33.5383 21.4945 32.5738 21.4945C31.7504 21.4945 31.0616 21.2504 30.5073 20.7624C30.2413 20.5383 30.0286 20.2578 29.8848 19.9412C29.7409 19.6245 29.6695 19.2798 29.6758 18.9321C29.6758 18.1587 29.9681 17.5437 30.5526 17.087C31.1372 16.6303 31.9175 16.4013 32.8937 16.4002C33.7269 16.4002 34.4131 16.5527 34.9523 16.8577V16.537C34.9539 16.3 34.9027 16.0655 34.8024 15.8507C34.7022 15.6359 34.5554 15.4461 34.3727 15.295C34.0016 14.9602 33.518 14.7776 33.0183 14.7834C32.2345 14.7834 31.6142 15.114 31.1575 15.7753L29.9216 14.9969C30.6014 14.0208 31.6075 13.5327 32.9398 13.5327ZM31.1244 18.9626C31.1234 19.1412 31.1652 19.3174 31.2461 19.4766C31.3271 19.6358 31.4449 19.7733 31.5898 19.8777C31.9001 20.1218 32.2853 20.2512 32.6801 20.2438C33.2723 20.2428 33.8399 20.0071 34.2585 19.5884C34.7234 19.1508 34.9558 18.6375 34.9558 18.0483C34.5182 17.6997 33.9082 17.5254 33.1255 17.5254C32.5555 17.5254 32.0802 17.6628 31.6996 17.9376C31.3152 18.2165 31.1244 18.5555 31.1244 18.9626Z" fill="white"/>
<path d="M44 13.7769L39.3144 24.5451H37.8659L39.6047 20.7773L36.5237 13.7769H38.0489L40.2758 19.1457H40.3063L42.4721 13.7769H44Z" fill="white"/>
<path d="M18.301 15.8736C18.3015 15.446 18.2653 15.0191 18.1929 14.5977H12.275V17.0145H15.6645C15.5951 17.4005 15.4483 17.7685 15.2329 18.0962C15.0175 18.424 14.738 18.7047 14.4112 18.9215V20.4903H16.4341C17.6185 19.3982 18.301 17.7832 18.301 15.8736Z" fill="white"/>
<path d="M12.275 22.0059C13.9685 22.0059 15.3944 21.4498 16.4341 20.4911L14.4112 18.9223C13.8482 19.304 13.1231 19.5219 12.275 19.5219C10.6382 19.5219 9.24895 18.4185 8.75216 16.9316H6.66824V18.5484C7.19054 19.5877 7.99144 20.4614 8.9815 21.072C9.97157 21.6825 11.1118 22.0058 12.275 22.0059Z" fill="white"/>
<path d="M8.75212 16.9319C8.48948 16.1527 8.48948 15.309 8.75212 14.5298V12.9131H6.6682C6.22883 13.7874 6 14.7524 6 15.7309C6 16.7094 6.22883 17.6743 6.6682 18.5486L8.75212 16.9319Z" fill="white"/>
<path d="M12.275 11.9395C13.1699 11.9248 14.0347 12.263 14.6823 12.8807L16.4734 11.0897C15.3376 10.0229 13.8331 9.43729 12.275 9.45549C11.1118 9.45554 9.97157 9.77889 8.9815 10.3894C7.99143 11 7.19054 11.8737 6.66824 12.913L8.75216 14.5297C9.24895 13.0429 10.6382 11.9395 12.275 11.9395Z" fill="white"/>
</svg>
