<svg width="360" height="360" viewBox="0 0 360 360" fill="none" xmlns="http://www.w3.org/2000/svg">
<circle cx="180" cy="180" r="180" fill="white"/>
<g clip-path="url(#clip0_963_2953)">
<path fill-rule="evenodd" clip-rule="evenodd" d="M165.915 184.27C155.094 208.04 138.592 232.385 116.864 235.848C91.7408 239.594 62.6649 183.481 59.0505 175.762C55.4376 168.042 70.7898 153.195 75.2209 155.53C79.6503 157.862 112.166 199.382 114.436 196.94C115.72 195.558 128.206 146.126 152.263 132.235C156.014 130.068 170.57 174.046 165.917 184.272" fill="#EEF1F0"/>
<path fill-rule="evenodd" clip-rule="evenodd" d="M160.61 55.4658C166.459 98.1668 137.788 111.344 165.86 150.834C165.86 150.834 183.053 131.893 190.417 130.556C197.781 129.217 198.76 106.047 198.76 104.858C198.76 103.668 192.206 57.4741 192.206 57.4741L160.609 55.4658H160.61Z" fill="#17081B"/>
<path fill-rule="evenodd" clip-rule="evenodd" d="M225.889 125.644C241.17 125.644 254.271 130.333 263.521 139.901C274.312 151.065 240.128 215.2 236.974 246.078C236.307 252.612 243.755 276.606 246.41 316.068C202.967 316.068 161.893 316.068 118.449 316.068C125.435 277.321 131.689 244.838 133.055 229.074C137.561 177.1 130.418 193.928 136.028 151.834C140.314 145.081 143.534 137.175 153.426 131.54C170.786 121.649 204.684 125.644 225.889 125.644Z" fill="#EEF1F0"/>
<path fill-rule="evenodd" clip-rule="evenodd" d="M249.157 203.104C245.32 213.788 241.68 224.365 239.346 233.577C239.661 230.054 240.004 224.8 240.099 217.995C240.285 204.589 239.049 191.621 239.049 191.621L249.047 201.32L249.158 203.106L249.157 203.104Z" fill="#E4E7E6"/>
<path fill-rule="evenodd" clip-rule="evenodd" d="M183.23 125.035C164.257 135.304 153.869 239.521 150.984 316.068H197.509C191.294 206.082 213.629 150.465 224.868 125.641C209.431 124.622 202.395 123.409 183.231 125.035" fill="#386145"/>
<path d="M216.999 166.026C217.459 164.78 219.653 158.004 220.57 150.042C221.187 144.69 222.089 138.009 220.611 133.024C219.193 128.236 216.346 124.242 211.195 122.336C209.817 121.827 208.275 121.459 206.548 121.261C171.856 117.257 156.378 154.925 145.442 182.5L144.505 184.861L141.807 183.791L142.745 181.43C154.031 152.966 169.981 114.112 206.877 118.368C208.844 118.596 210.61 119.015 212.196 119.602C218.352 121.881 221.735 126.584 223.4 132.203C225.006 137.624 224.115 144.7 223.462 150.373C222.51 158.64 220.213 165.723 219.73 167.029L216.999 166.027V166.026Z" fill="#17081B"/>
<path fill-rule="evenodd" clip-rule="evenodd" d="M162.498 97.7803C161.885 105.634 176.431 121.288 184.186 120.377V126.635L183.069 128.144C176.525 141.055 183.563 151.023 190.33 154.506C200.917 150.705 215.934 138.972 216.172 125.455L215.485 124.62L214.949 106.618C215.748 106.382 215.933 102.571 217.559 101.622C219.186 100.674 220.975 96.6943 220.316 93.0848C219.657 89.4754 214.417 91.9161 214.417 91.9161C218.964 81.2167 224.785 71.9864 213.068 66.0396C201.351 60.0912 177.717 60.538 177.717 60.538L164.407 59.4233C168.238 65.2493 163.925 88.7154 162.499 97.7819" fill="#F19975"/>
<path fill-rule="evenodd" clip-rule="evenodd" d="M181.577 120.509C182.465 120.491 183.336 120.447 184.186 120.377C191.215 120.257 199.109 115.121 204.204 111.549C204.204 111.549 199.475 125.838 193.456 128.497C187.438 131.157 186.596 130.815 184.184 131.082V120.377L181.658 120.435L181.576 120.51L181.577 120.509Z" fill="#F19975"/>
<path fill-rule="evenodd" clip-rule="evenodd" d="M229.137 165.478C223.555 153.986 229.821 141.958 241.65 136.902C252.352 129.761 262.105 135.5 267.686 146.992C286.86 186.472 276.302 318 274.3 318C266.126 318 254.103 316.073 254.103 316.073C252.002 269.691 249.741 207.912 229.135 165.48" fill="#EEF1F0"/>
<path fill-rule="evenodd" clip-rule="evenodd" d="M75.2669 157.805C75.5481 165.186 66.6272 174.804 61.2493 176.261C60.7996 175.172 57.9017 170.338 56.0397 166.666C52.0392 158.781 65.3848 144.919 68.3542 148.708L75.2669 157.803V157.805Z" fill="#386145"/>
<path d="M237.832 285.021H208.91V289.88H237.832V285.021Z" fill="#E4E7E6"/>
<path d="M191.258 213.088C199.904 217.243 206.529 218.183 212.061 215.554C217.536 212.955 221.774 206.895 225.703 197.024L223.678 196.219C219.962 205.554 216.053 211.239 211.123 213.579C206.254 215.893 200.218 214.968 192.197 211.112L191.258 213.087V213.088Z" fill="#D0D2D3"/>
<path d="M208.602 219.976C199.462 217.068 193.995 213.206 191.767 207.497C189.562 201.85 190.628 194.527 194.529 184.647L196.554 185.451C192.864 194.798 191.817 201.617 193.801 206.704C195.762 211.729 200.788 215.196 209.269 217.895L208.6 219.976H208.602Z" fill="#D0D2D3"/>
<path d="M218.409 165.024C207.159 162.057 198.995 172.22 194.726 181.657C194.03 183.197 193.577 184.127 193.652 184.944C193.873 187.374 196.904 187.156 197.414 185.728C200.487 177.11 208.743 164.771 219.307 169.064C219.364 169.088 219.383 169.096 219.439 169.113C219.674 169.203 222.429 170.276 224.297 173.756C226.199 177.298 227.478 184.006 222.78 195.858C222.469 196.642 222.833 197.547 223.602 198.046L223.641 198.072L223.683 198.097L223.722 198.121H223.725L223.764 198.145L223.77 198.148H223.775C223.818 198.173 223.862 198.194 223.907 198.215H223.913L223.94 198.229C223.94 198.229 223.943 198.231 223.945 198.232C223.945 198.232 223.948 198.232 223.949 198.234H223.954C223.954 198.234 223.954 198.237 223.956 198.237H223.959H223.961H223.962H223.964H223.965L223.967 198.239C223.967 198.239 223.967 198.239 223.969 198.239H223.972C223.972 198.239 223.973 198.239 223.975 198.239C223.975 198.239 223.976 198.239 223.978 198.239C223.978 198.239 223.98 198.239 223.981 198.239H223.983H223.984C225.022 198.65 226.158 198.247 226.519 197.335C230.7 186.787 231.11 178.339 227.734 172.227C225.613 168.387 222.432 166.075 218.387 165.006" fill="#17081B"/>
<path d="M213.148 220.28C213.451 219.367 212.958 218.38 212.046 218.076L208.867 217.311C207.828 217.232 207.689 217.744 207.447 218.378C207.217 219.072 207.047 219.579 208.006 220.166L210.945 221.384C211.857 221.687 212.844 221.194 213.148 220.282" fill="#17081B"/>
<path d="M187.74 210.191C188.144 209.318 189.179 208.938 190.052 209.342L192.891 210.967C193.703 211.622 193.453 212.091 193.194 212.718C192.888 213.381 192.664 213.866 191.563 213.635L188.588 212.504C187.716 212.101 187.336 211.065 187.74 210.191Z" fill="#17081B"/>
<path d="M136.115 185.701C134.892 189.269 136.366 193.006 139.407 194.049C142.448 195.092 145.903 193.047 147.125 189.479C148.347 185.912 146.874 182.174 143.833 181.131C140.792 180.088 137.337 182.134 136.115 185.701Z" fill="#17081B"/>
<path d="M136.321 185.809C135.467 188.304 136.498 190.918 138.623 191.648C140.749 192.378 143.166 190.947 144.02 188.452C144.875 185.957 143.844 183.343 141.718 182.615C139.593 181.885 137.176 183.316 136.321 185.811" fill="#A6A8AB"/>
<path d="M136.649 185.838C136.074 187.515 136.766 189.271 138.196 189.762C139.626 190.253 141.25 189.291 141.825 187.614C142.398 185.938 141.706 184.181 140.277 183.69C138.847 183.2 137.224 184.16 136.65 185.838" fill="#EEF1F0"/>
<path fill-rule="evenodd" clip-rule="evenodd" d="M124.501 285.272L140.16 285.188V290.047H123.521L124.501 285.272Z" fill="#E4E7E6"/>
<path fill-rule="evenodd" clip-rule="evenodd" d="M62.0152 142.892C63.9741 135.498 61.127 136.215 63.1956 128.696C63.4323 127.831 65.261 125.633 63.051 125.668C58.9854 125.73 55.3392 132.556 55.4933 133.58C53.2118 134.258 34.0768 122.048 32.6882 123.35C27.6026 128.122 31.0661 142.658 32.3324 143.475C33.8719 144.469 45.2108 150.391 45.9957 151.001C50.9367 154.836 53.8442 159.306 57.0868 164.197C59.3206 162.876 65.1831 157.511 66.7989 150.236L62.0152 142.893V142.892Z" fill="#F19975"/>
<path fill-rule="evenodd" clip-rule="evenodd" d="M37.0572 99.4309H56.4862C58.2672 99.4309 59.7241 101.048 59.7241 103.026V147.672C59.7241 149.65 58.2672 151.267 56.4862 151.267H37.0572C35.2762 151.267 33.8193 149.648 33.8193 147.672V103.026C33.8193 101.048 35.2762 99.4309 37.0572 99.4309Z" fill="#17081B"/>
<path fill-rule="evenodd" clip-rule="evenodd" d="M37.4593 101.994C36.5696 101.994 35.8356 102.825 35.8356 103.834V144.151C35.8356 145.159 36.5696 145.991 37.4593 145.991H56.0859C56.9756 145.991 57.7096 145.159 57.7096 144.151V103.834C57.7096 102.825 56.9756 101.994 56.0859 101.994H37.4593Z" fill="#EEF1F0"/>
<path fill-rule="evenodd" clip-rule="evenodd" d="M46.6105 147.303C45.84 147.303 45.214 147.929 45.214 148.7C45.214 149.472 45.84 150.098 46.6105 150.098C47.3811 150.098 48.007 149.472 48.007 148.7C48.007 147.929 47.3811 147.303 46.6105 147.303Z" fill="#EEF1F0"/>
<path fill-rule="evenodd" clip-rule="evenodd" d="M92.0268 23C109.425 23 123.529 37.1149 123.529 54.5276C123.529 71.9403 109.425 86.0553 92.0268 86.0553C74.6283 86.0553 60.5249 71.9403 60.5249 54.5276C60.5249 37.1149 74.6283 23 92.0268 23Z" fill="#C80000"/>
<path fill-rule="evenodd" clip-rule="evenodd" d="M85.2268 37.1277H97.9671V48.4107H109.241V61.1614H97.9671V72.4444H85.2268V61.1614H73.9514V48.4107H85.2268V37.1277Z" fill="white"/>
<path fill-rule="evenodd" clip-rule="evenodd" d="M198.339 74.6276C198.339 74.6276 172.974 79.6061 159.05 71.1613C149.918 64.8233 150.901 49.8975 164.287 40.4319C181.528 28.2393 210.231 31.3193 222.92 50.7498C227.349 57.5313 231.383 69.6046 236.641 81.6191C248.861 109.552 270.514 107.17 274.891 133.275C275.257 135.455 273.819 132.682 266.933 130.916C274.944 141.191 270.173 149.686 270.006 152.591C263.333 132.293 249.794 128.138 215.488 124.616C215.027 118.911 213.453 108.135 213.432 104.573C213.432 104.573 218.764 101.945 218.413 96.1029C218.062 90.2611 214.199 92.0515 213.532 92.1914C212.863 92.3313 207.792 97.2557 207.792 97.2557C207.881 89.8604 208.685 75.4672 198.34 74.6245" fill="#17081B"/>
<path d="M178.69 80.53C179.383 81.1953 179.333 82.0572 178.544 83.1173C178.426 83.2785 178.286 83.3235 178.123 83.2564C174.132 81.6254 172.481 81.3656 168.743 84.5289C168.427 84.7938 168.017 84.4838 168.159 84.084C169.692 79.7902 175.439 77.3992 178.688 80.5243L178.69 80.53Z" fill="#17081B"/>
<path d="M193.799 85.8095C191.608 83.2567 188.289 81.5724 185.346 83.9465C185.183 84.0867 185.12 84.0452 185.166 83.8353C186.597 77.501 194.262 80.4565 194.481 85.505C194.496 85.885 194.042 86.0968 193.797 85.8137L193.799 85.8095Z" fill="#17081B"/>
<path d="M187.164 91.2792C186.608 90.9537 186.337 90.0282 186.552 89.1725C187.019 87.3259 187.743 86.9527 188.712 88.0465C189.306 88.723 189.33 90.0507 188.763 90.8565C188.312 91.4978 187.777 91.6367 187.164 91.2792Z" fill="#17081B"/>
<path d="M177.134 88.8058C177.067 89.9181 176.116 90.7616 175.006 90.6939C173.895 90.6262 173.054 89.6733 173.121 88.561C173.189 87.4487 174.14 86.6052 175.25 86.6729C176.36 86.7406 177.202 87.6935 177.134 88.8058Z" fill="#17081B"/>
<path d="M185.715 108.403C182.089 108.92 178.512 107.952 176.299 106.256C176.115 106.115 176.19 106.079 176.516 106.148C180.04 106.886 183.585 107.338 187.154 107.506C187.432 107.52 187.531 107.578 187.454 107.682C187.192 108.035 186.606 108.274 185.711 108.402L185.715 108.403Z" fill="#FDFDFD"/>
</g>
<defs>
<clipPath id="clip0_963_2953">
<rect width="249" height="295" fill="white" transform="translate(30 23)"/>
</clipPath>
</defs>
</svg>
