<svg width="391" height="360" viewBox="0 0 391 360" fill="none" xmlns="http://www.w3.org/2000/svg">
<circle cx="180" cy="180" r="180" fill="white"/>
<g clip-path="url(#clip0_963_2954)">
<path fill-rule="evenodd" clip-rule="evenodd" d="M389.985 277.988H1.01472C0.455931 277.988 0 278.441 0 278.993C0 279.546 0.455931 279.999 1.01472 279.999H389.985C390.544 279.999 391 279.546 391 278.993C391 278.441 390.544 277.988 389.985 277.988Z" fill="#386145"/>
<path fill-rule="evenodd" clip-rule="evenodd" d="M103.724 91.5965C103.595 94.6347 104.419 95.9445 104.952 98.1542C106.167 103.204 106.286 107.159 108.823 111.463C109.035 111.824 109.205 112.675 109.124 113.205C108.991 114.067 108.472 114.655 108.501 115.143C108.616 117.063 110.899 117.654 110.406 119.9C109.881 122.288 109.787 125.221 107.985 128.313C107.985 128.313 100.46 121.504 97.4909 121.251C94.5205 120.998 93.2678 111.926 93.2248 111.459C93.1803 110.991 94.0569 92.591 94.0569 92.591L103.727 91.595L103.724 91.5965Z" fill="#17081B"/>
<path fill-rule="evenodd" clip-rule="evenodd" d="M122.589 244.277C120.615 244.277 119 245.879 119 247.836V277.987H126.128C126.155 277.987 126.178 277.964 126.178 277.936V247.836C126.178 245.877 124.563 244.277 122.589 244.277Z" fill="#2E573B"/>
<path fill-rule="evenodd" clip-rule="evenodd" d="M80.5891 254C78.6149 254 77 255.602 77 257.561V280.042H84.1767V257.561C84.1767 255.602 82.5618 254 80.5876 254" fill="#2E573B"/>
<path fill-rule="evenodd" clip-rule="evenodd" d="M162.189 244.277C160.214 244.277 158.599 245.879 158.599 247.836V277.987H165.776V247.836C165.776 245.877 164.161 244.277 162.187 244.277" fill="#2E573B"/>
<path fill-rule="evenodd" clip-rule="evenodd" d="M40.5891 244.277C38.6149 244.277 37 245.879 37 247.836V277.987H44.1767V247.836C44.1767 245.877 42.5617 244.277 40.5876 244.277" fill="#2E573B"/>
<path fill-rule="evenodd" clip-rule="evenodd" d="M164.161 234.728H82.6832C79.7357 234.728 77.3256 237.12 77.3256 240.043V263.461H169.52V240.043C169.52 237.119 167.109 234.728 164.163 234.728" fill="#426B4F"/>
<mask id="mask0_963_2954" style="mask-type:luminance" maskUnits="userSpaceOnUse" x="119" y="186" width="64" height="54">
<path d="M170.274 186.297H131.773C131.673 186.297 131.574 186.297 131.474 186.3L131.393 186.303C131.32 186.304 131.25 186.308 131.179 186.311L131.078 186.315L130.891 186.327L130.766 186.336L130.6 186.352L130.479 186.364L130.273 186.387L130.197 186.396C130.103 186.408 130.011 186.42 129.917 186.435H129.904L129.821 186.451L129.633 186.481L129.518 186.502L129.34 186.536L129.24 186.557L129.059 186.597L128.956 186.62L128.777 186.664L128.671 186.691L128.507 186.735L128.394 186.766C128.307 186.79 128.221 186.818 128.134 186.844L128.038 186.874L127.871 186.929L127.756 186.968L127.596 187.025L127.495 187.061L127.334 187.122L127.22 187.166L127.068 187.229L126.965 187.272L126.787 187.349L126.714 187.381H126.712L126.623 187.422L126.469 187.494L126.348 187.553L126.218 187.617L126.092 187.681L125.983 187.738L125.838 187.815L125.742 187.869L125.602 187.948L125.524 187.993C125.324 188.111 125.129 188.233 124.939 188.359L124.767 188.476L124.713 188.513L124.555 188.625L124.497 188.668L124.34 188.784L124.294 188.819C124.038 189.014 123.789 189.219 123.548 189.433H123.547C123.487 189.487 123.428 189.541 123.368 189.596L123.356 189.608C123.301 189.66 123.246 189.711 123.192 189.763L123.163 189.79C122.808 190.135 122.475 190.499 122.163 190.882L122.16 190.887C120.463 192.984 119.442 195.643 119.442 198.526V227.037C119.442 233.765 124.991 239.271 131.773 239.271H170.274C177.056 239.271 182.606 233.765 182.606 227.037V198.526C182.606 195.738 181.652 193.159 180.053 191.097L180.033 191.071C179.987 191.012 179.939 190.952 179.892 190.893L179.875 190.873C179.615 190.553 179.341 190.247 179.05 189.956L179.043 189.949C178.991 189.896 178.937 189.844 178.883 189.792L178.852 189.762C178.802 189.713 178.75 189.664 178.699 189.615L178.66 189.58C178.61 189.533 178.559 189.487 178.507 189.44L178.467 189.405C178.237 189.201 177.999 189.005 177.753 188.817L177.707 188.782L177.551 188.667L177.494 188.625L177.326 188.507L177.296 188.485C177.234 188.443 177.171 188.4 177.108 188.359C176.921 188.234 176.729 188.114 176.533 188L176.444 187.948L176.31 187.872L176.203 187.812L176.071 187.741L175.953 187.678L175.831 187.616L175.688 187.546L175.584 187.495C175.512 187.46 175.44 187.428 175.368 187.395L175.337 187.381H175.335L175.282 187.357C175.217 187.328 175.151 187.299 175.087 187.272L174.973 187.224L174.829 187.165L174.709 187.119L174.559 187.061L174.451 187.022L174.293 186.967L174.178 186.927L174.02 186.876L173.912 186.842L173.902 186.839C173.82 186.813 173.737 186.79 173.654 186.766L173.524 186.731L173.381 186.693L173.265 186.664L173.096 186.623L172.988 186.598L172.81 186.56L172.706 186.539L172.535 186.507L172.411 186.484L172.239 186.455L172.132 186.439C172.038 186.425 171.944 186.411 171.851 186.399L171.766 186.388C171.7 186.381 171.634 186.373 171.568 186.365L171.444 186.353L171.281 186.338L171.154 186.329L170.968 186.317L170.865 186.312C170.795 186.309 170.724 186.306 170.653 186.304L170.57 186.301C170.472 186.298 170.372 186.298 170.273 186.298L170.274 186.297Z" fill="white"/>
</mask>
<g mask="url(#mask0_963_2954)">
<path d="M182.607 186.297H119.442V239.275H182.607V186.297Z" fill="#386145"/>
</g>
<path fill-rule="evenodd" clip-rule="evenodd" d="M173.22 186.297C168.059 186.297 163.834 190.486 163.834 195.608V263.464H173.22C178.383 263.464 182.606 259.274 182.606 254.153V195.608C182.606 190.488 178.383 186.297 173.22 186.297Z" fill="#426B4F"/>
<mask id="mask1_963_2954" style="mask-type:luminance" maskUnits="userSpaceOnUse" x="28" y="147" width="99" height="73">
<path d="M28.1879 147.325L38.1017 219.707L123.29 219.747C123.444 219.747 123.596 219.707 123.752 219.707C125.375 219.707 126.46 217.753 126.207 215.987L118.198 158.898C117.724 155.637 116.121 147.325 105.26 147.325H28.1879Z" fill="white"/>
</mask>
<g mask="url(#mask1_963_2954)">
<path d="M126.46 147.325H28.1879V219.747H126.46V147.325Z" fill="#386145"/>
</g>
<path fill-rule="evenodd" clip-rule="evenodd" d="M156.062 212.785H92.7413C88.466 212.785 84.9674 216.424 84.9674 220.872V241.621C84.9674 246.069 88.466 249.707 92.7413 249.707H156.062C160.337 249.707 163.836 246.068 163.836 241.621V220.872C163.836 216.424 160.337 212.785 156.062 212.785Z" fill="#2E573B"/>
<path fill-rule="evenodd" clip-rule="evenodd" d="M157.5 212.784H84.556C82.6694 212.784 81.125 216.424 81.125 220.874H163.834C163.834 216.425 160.6 212.784 157.499 212.784" fill="#2E573B"/>
<path fill-rule="evenodd" clip-rule="evenodd" d="M28.1879 147.325C23.4382 147.849 20.0932 152.121 20.7518 156.817L25.787 192.678C26.4471 197.375 30.8713 200.789 35.6209 200.265C40.3706 199.741 43.7156 195.47 43.0571 190.773L38.0219 154.912C37.3618 150.216 32.9376 146.801 28.1879 147.325Z" fill="#2E573B"/>
<mask id="mask2_963_2954" style="mask-type:luminance" maskUnits="userSpaceOnUse" x="13" y="186" width="72" height="78">
<path d="M13.8008 250.62C13.8008 250.729 13.8008 250.84 13.8054 250.95C13.8084 251.06 13.813 251.169 13.8176 251.278C13.8238 251.387 13.8299 251.495 13.8391 251.603C13.8468 251.712 13.8575 251.82 13.8683 251.928C13.879 252.036 13.8913 252.143 13.9051 252.249C13.919 252.356 13.9343 252.462 13.9497 252.569C13.9665 252.674 13.9834 252.781 14.0034 252.886C14.0218 252.991 14.0433 253.096 14.0648 253.2C14.0863 253.303 14.1093 253.408 14.1339 253.512C14.1584 253.615 14.1845 253.717 14.2106 253.821C14.2367 253.923 14.2659 254.025 14.2951 254.127C14.3242 254.229 14.3549 254.33 14.3856 254.43C14.4179 254.531 14.4501 254.63 14.4839 254.73C14.5177 254.829 14.553 254.928 14.5898 255.025C14.6266 255.124 14.6635 255.222 14.7019 255.318C14.7402 255.415 14.7802 255.511 14.8216 255.607C14.8631 255.703 14.9045 255.799 14.9475 255.894C14.9905 255.988 15.035 256.082 15.081 256.177C15.1271 256.27 15.1731 256.363 15.2207 256.456C15.2683 256.548 15.3175 256.64 15.3681 256.73C15.4188 256.821 15.4694 256.911 15.5216 257.001C15.5738 257.091 15.6275 257.179 15.6813 257.267C15.735 257.356 15.7903 257.444 15.8471 257.529C15.9039 257.616 15.9607 257.703 16.019 257.788C16.0773 257.873 16.1372 257.959 16.1971 258.042C16.2569 258.126 16.3183 258.21 16.3813 258.292C16.4442 258.374 16.5072 258.457 16.5716 258.537C16.6361 258.618 16.7006 258.699 16.7666 258.778C16.8326 258.857 16.9002 258.936 16.9677 259.014C17.0353 259.092 17.1043 259.168 17.1734 259.244C17.2425 259.32 17.3131 259.396 17.3853 259.471C17.4574 259.546 17.5296 259.619 17.6032 259.692C17.6769 259.765 17.7506 259.836 17.8258 259.908C17.9011 259.98 17.9763 260.05 18.053 260.118C18.1298 260.187 18.2081 260.255 18.2864 260.324C18.3647 260.391 18.443 260.458 18.5243 260.523C18.6041 260.589 18.6855 260.654 18.7669 260.717C18.8482 260.781 18.9311 260.843 19.014 260.906C19.0969 260.968 19.1814 261.027 19.2658 261.088C19.3502 261.148 19.4362 261.207 19.5221 261.265C19.6081 261.323 19.6956 261.379 19.7831 261.436C19.8706 261.492 19.9581 261.547 20.0472 261.6C20.1362 261.655 20.2252 261.707 20.3158 261.758C20.4064 261.81 20.4969 261.86 20.5891 261.911C20.6812 261.961 20.7733 262.008 20.8654 262.055C20.959 262.103 21.0527 262.15 21.1463 262.194C21.2399 262.24 21.3351 262.284 21.4303 262.326C21.5255 262.369 21.6222 262.412 21.7189 262.451C21.8156 262.492 21.9123 262.532 22.0106 262.57C22.1088 262.608 22.2071 262.646 22.3053 262.681C22.4051 262.718 22.5034 262.753 22.6047 262.786C22.7045 262.82 22.8058 262.852 22.9071 262.884C23.0084 262.916 23.1097 262.945 23.2126 262.974C23.3154 263.003 23.4183 263.03 23.5211 263.057C23.624 263.083 23.7284 263.109 23.8328 263.134C23.9372 263.158 24.0415 263.181 24.1459 263.202C24.2503 263.223 24.3562 263.243 24.4622 263.263C24.5681 263.281 24.674 263.3 24.7815 263.316C24.8889 263.333 24.9949 263.348 25.1038 263.361C25.2113 263.374 25.3203 263.386 25.4278 263.397C25.5368 263.408 25.6457 263.418 25.7547 263.426C25.8637 263.434 25.9743 263.441 26.0833 263.447C26.1938 263.453 26.3028 263.456 26.4133 263.459C26.5238 263.463 26.6344 263.464 26.7464 263.464H72.0218C72.1323 263.464 72.2444 263.463 72.3549 263.459H72.3595C72.4654 263.456 72.5713 263.452 72.6773 263.447H72.6865H72.6957C72.8016 263.443 72.9075 263.435 73.0119 263.428H73.015H73.0273C73.124 263.42 73.2207 263.411 73.3159 263.402L73.3558 263.397C73.451 263.388 73.5461 263.376 73.6398 263.364L73.6812 263.359C73.7733 263.347 73.8639 263.335 73.9545 263.321L74.0082 263.313C74.0988 263.3 74.1909 263.284 74.2815 263.268L74.306 263.263L74.3337 263.258C74.4212 263.243 74.5087 263.226 74.5962 263.208L74.6407 263.199C74.7282 263.181 74.8157 263.163 74.9032 263.143L74.9554 263.131C75.0398 263.111 75.1242 263.089 75.2087 263.068L75.2824 263.05C75.3607 263.03 75.4389 263.009 75.5157 262.986L75.594 262.963C75.6692 262.942 75.7444 262.919 75.8197 262.896L75.9225 262.864L76.1052 262.805L76.248 262.756L76.3708 262.713L76.512 262.661L76.6118 262.623L76.6517 262.608L76.8098 262.546L76.9081 262.506L76.9495 262.489L77.1045 262.424L77.2013 262.381L77.2427 262.363L77.3947 262.294L77.4914 262.25L77.5221 262.237L77.6833 262.159L77.7785 262.112L77.7831 262.109L77.9658 262.016L78.0594 261.967L78.0717 261.961L78.2451 261.868L78.3372 261.816L78.3495 261.809L78.5199 261.711L78.6105 261.658C82.4053 259.413 84.9628 255.298 84.9628 250.62V199.448C84.9628 199.338 84.9628 199.227 84.9582 199.117C84.9552 199.007 84.9506 198.898 84.9459 198.79C84.9398 198.68 84.9337 198.572 84.9245 198.464C84.9168 198.356 84.906 198.247 84.8953 198.139C84.8846 198.031 84.8723 197.925 84.8585 197.818C84.8446 197.711 84.8293 197.605 84.8139 197.498C84.797 197.392 84.7802 197.287 84.7602 197.181C84.7418 197.076 84.7218 196.971 84.6988 196.868C84.6773 196.764 84.6543 196.659 84.6297 196.557C84.6051 196.455 84.5791 196.351 84.553 196.248C84.5269 196.146 84.4977 196.044 84.4685 195.942C84.4394 195.84 84.4087 195.739 84.378 195.639C84.3457 195.538 84.3135 195.438 84.2797 195.339C84.2459 195.24 84.2106 195.141 84.1738 195.042C84.1369 194.943 84.1001 194.845 84.0602 194.749C84.0218 194.652 83.9819 194.556 83.9404 194.46C83.899 194.364 83.8575 194.268 83.8146 194.174C83.7716 194.079 83.7271 193.985 83.681 193.89C83.635 193.797 83.5889 193.703 83.5413 193.612C83.4937 193.519 83.4446 193.427 83.3939 193.338C83.3433 193.246 83.2926 193.156 83.2404 193.066C83.1882 192.977 83.1345 192.887 83.0808 192.8C83.0271 192.712 82.9718 192.623 82.915 192.538C82.8582 192.451 82.8014 192.364 82.743 192.279C82.6847 192.194 82.6249 192.109 82.565 192.025C82.5051 191.941 82.4437 191.857 82.3808 191.775C82.3178 191.693 82.2549 191.611 82.1919 191.53C82.1275 191.449 82.063 191.368 81.997 191.289C81.931 191.21 81.8634 191.131 81.7959 191.053C81.7283 190.975 81.6593 190.898 81.5902 190.822C81.5211 190.746 81.4505 190.671 81.3783 190.596C81.3062 190.522 81.234 190.449 81.1619 190.375C81.0882 190.302 81.0145 190.231 80.9393 190.161C80.8641 190.089 80.7888 190.019 80.7121 189.951C80.6353 189.882 80.5586 189.813 80.4787 189.746C80.4005 189.679 80.3222 189.612 80.2408 189.547C80.161 189.481 80.0796 189.416 79.9983 189.352C79.9169 189.288 79.834 189.226 79.7511 189.165C79.6682 189.102 79.5838 189.041 79.4993 188.982C79.4149 188.923 79.3289 188.863 79.243 188.805C79.157 188.747 79.0695 188.691 78.982 188.635C78.8945 188.578 78.807 188.524 78.718 188.47C78.6289 188.415 78.5399 188.364 78.4493 188.312C78.3587 188.26 78.2682 188.21 78.1761 188.16C78.084 188.109 77.9919 188.062 77.8982 188.013C77.8046 187.966 77.7109 187.92 77.6173 187.875C77.5236 187.829 77.4285 187.785 77.3333 187.742C77.2381 187.7 77.1414 187.657 77.0447 187.616C76.948 187.575 76.8513 187.535 76.753 187.497C76.6548 187.459 76.5565 187.421 76.4583 187.384C76.3585 187.348 76.2602 187.313 76.1589 187.279C76.0591 187.246 75.9578 187.214 75.8565 187.182C75.7552 187.15 75.6539 187.119 75.551 187.09C75.4497 187.062 75.3453 187.034 75.2425 187.007C75.1396 186.981 75.0352 186.955 74.9308 186.931C74.8264 186.906 74.722 186.883 74.6161 186.862C74.5117 186.841 74.4058 186.821 74.2999 186.801C74.194 186.783 74.088 186.765 73.9806 186.748C73.8731 186.731 73.7672 186.717 73.6597 186.704C73.5523 186.69 73.4433 186.678 73.3358 186.667C73.2268 186.656 73.1178 186.646 73.0088 186.638C72.8999 186.631 72.7909 186.623 72.6803 186.617C72.5713 186.611 72.4608 186.608 72.3503 186.605C72.2397 186.602 72.1292 186.6 72.0172 186.6H26.7464C26.6344 186.6 26.5238 186.6 26.4133 186.605C26.3028 186.608 26.1923 186.612 26.0833 186.617C25.9727 186.623 25.8637 186.629 25.7547 186.638C25.6457 186.646 25.5368 186.656 25.4278 186.667C25.3188 186.678 25.2113 186.69 25.1038 186.704C24.9964 186.717 24.8889 186.733 24.7815 186.748C24.674 186.765 24.5681 186.781 24.4622 186.801C24.3562 186.819 24.2503 186.839 24.1459 186.862C24.0415 186.883 23.9356 186.906 23.8328 186.931C23.7284 186.955 23.6255 186.979 23.5211 187.007C23.4183 187.033 23.3154 187.062 23.2126 187.09C23.1097 187.119 23.0084 187.15 22.9071 187.182C22.8058 187.214 22.706 187.246 22.6047 187.279C22.5049 187.313 22.4051 187.348 22.3053 187.384C22.2071 187.421 22.1073 187.458 22.0106 187.497C21.9123 187.535 21.8156 187.575 21.7189 187.616C21.6222 187.657 21.5255 187.698 21.4303 187.742C21.3351 187.785 21.2399 187.829 21.1463 187.875C21.0527 187.92 20.9575 187.966 20.8654 188.013C20.7733 188.061 20.6796 188.109 20.5891 188.16C20.4969 188.21 20.4064 188.26 20.3158 188.312C20.2252 188.364 20.1362 188.417 20.0472 188.47C19.9581 188.525 19.8691 188.578 19.7831 188.635C19.6956 188.691 19.6081 188.747 19.5221 188.805C19.4362 188.863 19.3502 188.923 19.2658 188.982C19.1814 189.041 19.0969 189.102 19.014 189.165C18.9311 189.227 18.8482 189.29 18.7669 189.352C18.6855 189.416 18.6041 189.48 18.5243 189.545C18.4445 189.611 18.3647 189.678 18.2864 189.745C18.2081 189.812 18.1298 189.88 18.053 189.949C17.9763 190.018 17.9011 190.088 17.8258 190.159C17.7506 190.231 17.6769 190.302 17.6032 190.374C17.5296 190.447 17.4574 190.52 17.3853 190.595C17.3131 190.669 17.2425 190.744 17.1734 190.82C17.1043 190.896 17.0353 190.974 16.9677 191.052C16.9002 191.129 16.8326 191.208 16.7666 191.288C16.7006 191.367 16.6361 191.448 16.5716 191.528C16.5072 191.609 16.4442 191.691 16.3813 191.773C16.3183 191.856 16.2569 191.939 16.1971 192.023C16.1372 192.107 16.0773 192.192 16.019 192.278C15.9607 192.363 15.9039 192.448 15.8471 192.536C15.7903 192.623 15.735 192.712 15.6813 192.798C15.6275 192.887 15.5738 192.975 15.5216 193.065C15.4694 193.155 15.4188 193.245 15.3681 193.336C15.3175 193.427 15.2699 193.519 15.2207 193.612C15.1731 193.705 15.1256 193.797 15.081 193.89C15.035 193.983 14.9905 194.078 14.9475 194.174C14.9045 194.268 14.8615 194.364 14.8216 194.46C14.7802 194.556 14.7402 194.652 14.7019 194.749C14.6635 194.847 14.6251 194.944 14.5898 195.042C14.553 195.139 14.5177 195.238 14.4839 195.339C14.4501 195.438 14.4179 195.538 14.3856 195.639C14.3534 195.739 14.3242 195.84 14.2951 195.942C14.2659 196.044 14.2383 196.146 14.2106 196.248C14.1845 196.35 14.1584 196.453 14.1339 196.557C14.1093 196.661 14.0863 196.764 14.0648 196.868C14.0433 196.971 14.0233 197.076 14.0034 197.181C13.985 197.287 13.9665 197.393 13.9497 197.498C13.9328 197.605 13.919 197.711 13.9051 197.818C13.8913 197.925 13.879 198.033 13.8683 198.139C13.8575 198.247 13.8468 198.356 13.8391 198.464C13.8315 198.572 13.8238 198.68 13.8176 198.79C13.8115 198.899 13.8084 199.007 13.8054 199.117C13.8023 199.227 13.8008 199.336 13.8008 199.448V250.62Z" fill="white"/>
</mask>
<g mask="url(#mask2_963_2954)">
<path d="M84.9674 186.603H13.8008V263.462H84.9674V186.603Z" fill="#386145"/>
</g>
<path d="M44.1767 277H37V281.646H44.1767V277Z" fill="#2E573B"/>
<path d="M129.517 186.504C136.597 193.584 147.412 188.857 154.28 203.269L146.616 265.107C146.762 265.34 146.907 265.57 147.049 265.796C147.16 265.974 147.27 266.146 147.382 266.316C147.648 266.729 147.914 267.121 148.179 267.488C148.299 267.655 148.42 267.818 148.544 267.975C150.537 270.54 153.316 271.342 155.583 272.085C157.341 272.661 158.702 272.984 159.726 275.457C159.759 275.535 159.782 275.611 159.798 275.689C159.987 276.558 159.255 277.408 158.314 277.311L137.14 274.961C136.095 274.853 135.327 273.992 135.298 272.995C135.295 272.853 135.304 272.71 135.332 272.567L137.492 263.487C137.492 263.487 137.492 263.473 137.501 263.45C140.18 244.901 133.629 224.922 138.68 204.226C138.68 204.226 109.19 183.58 109.35 182.631C109.508 181.686 129.517 186.504 129.517 186.504Z" fill="#F19975"/>
<path d="M137.958 245.923C137.315 233.832 135.576 221.27 137.811 208.408C137.868 208.951 140.801 208.777 140.798 209.357C142.24 222.38 140.837 234.728 137.958 245.923Z" fill="#F09DA1"/>
<path fill-rule="evenodd" clip-rule="evenodd" d="M153.626 270.935C153.626 270.935 163.765 274.006 163.251 276.24C162.213 280.751 135.114 279.082 134.992 277.438C134.916 276.389 135.143 270.914 135.826 268.602C136.07 267.778 136.574 267.09 136.861 267.516C137.366 268.269 137.935 268.927 138.568 269.489C141.787 272.353 146.676 272.778 153.626 270.935Z" fill="black"/>
<path d="M130.336 190.825C130.293 198.802 136.353 202.868 136.311 210.845C138.496 230.566 133.74 255.016 134.205 266.017C134.234 266.696 136.007 272.826 135.944 273.494C134.099 275.943 128.266 279.819 126.488 269.655C127.239 252.168 118.872 232.679 123.407 211.011L115.958 191.103L130.338 190.825H130.336Z" fill="#F19975"/>
<path fill-rule="evenodd" clip-rule="evenodd" d="M113.485 173.9C115.625 187.039 161.877 172.202 156.748 221.927C151.021 224.381 127.131 224.877 117.25 222.384C107.322 205.513 59.3555 230.133 76.5519 174.764C80.5417 165.513 112.012 167.981 113.485 173.902" fill="#7E3F12"/>
<path fill-rule="evenodd" clip-rule="evenodd" d="M108.786 125.183C101.608 133.67 108.446 160.159 111.459 168.829C113.301 173.946 125.344 184.239 139.179 186.297C143.391 186.923 154.192 186.678 156.811 186.297C156.133 184.815 152.434 181.628 148.921 181.095C146.541 180.734 145.912 182.084 142.894 181.445C131.749 179.083 120.971 163.591 120.854 163.071C119.3 152.453 122.151 133.037 112.081 126.379C111.373 125.911 109.403 124.455 108.786 125.185" fill="#F19975"/>
<path fill-rule="evenodd" clip-rule="evenodd" d="M72.5437 125.693C68.4771 142.158 78.3633 144.8 74.6729 178.04C86.8756 179.721 111.341 179.885 115.974 177.245C114.294 165.014 116.427 153.901 116.913 147.225C117.646 137.179 113.68 129.175 108.042 123.223C102.652 117.533 79.2107 116.46 72.5437 125.695" fill="#F47920"/>
<path fill-rule="evenodd" clip-rule="evenodd" d="M99.5342 115.825L99.5818 119.889L100.174 120.397C102.491 122.893 99.9287 127.97 97.2714 127.795C90.5476 128.078 85.4264 122.574 87.4681 119.62L88.3524 118.656L88.5872 112.907C88.2403 112.885 85.7273 111.445 84.9766 111.21C84.2275 110.976 83.1345 109.532 83.0716 108.015C83.0086 106.498 85.3666 107.005 85.3666 107.005C82.5327 103.102 79.3151 99.907 83.5413 96.4392C87.766 92.97 97.4295 90.9963 97.4295 90.9963L103.251 89.0393C102.497 91.0222 102.724 95.2818 104.186 99.4333C106.263 105.335 104.517 113.361 99.5357 115.826" fill="#F19975"/>
<path fill-rule="evenodd" clip-rule="evenodd" d="M91.3167 113.723C91.3167 113.723 94.5619 119.335 97.2576 119.859C99.9517 120.385 98.5762 120.001 99.5817 119.888L99.5342 115.823C97.6736 116.107 95.8545 115.948 91.3167 113.722" fill="#E78F6B"/>
<path fill-rule="evenodd" clip-rule="evenodd" d="M72.5452 125.693C64.5257 133.404 65.2304 157.29 67.3304 166.222C68.6322 171.499 80.1272 182.412 93.6762 185.871C97.801 186.923 108.475 186.684 111.118 186.571C110.596 185.028 107.248 181.48 103.809 180.591C101.479 179.987 100.713 181.268 97.778 180.324C86.937 176.838 77.3333 161.982 77.2719 161.452C76.8267 150.732 81.6147 134.31 75.6984 127.218C75.1565 126.569 73.2345 125.031 72.5452 125.695" fill="#F19975"/>
<path fill-rule="evenodd" clip-rule="evenodd" d="M139.168 277.315C139.171 280.26 126.889 278.925 125.231 278.133C122.767 276.956 125.757 267.588 126.717 268.566C126.717 268.566 128.982 272.582 132.229 271.52C135.476 270.459 134.741 268.898 135.367 269.968C136.537 271.974 139.163 274.6 139.17 277.315" fill="black"/>
<path fill-rule="evenodd" clip-rule="evenodd" d="M75.5817 186.603C70.4191 186.603 66.196 190.793 66.196 195.914V254.151C66.196 259.273 70.4191 263.462 75.5817 263.462H84.7264C84.8584 263.462 84.9674 263.356 84.9674 263.223V195.914C84.9674 190.793 80.7443 186.603 75.5817 186.603Z" fill="#426B4F"/>
<mask id="mask3_963_2954" style="mask-type:luminance" maskUnits="userSpaceOnUse" x="66" y="86" width="41" height="49">
<path d="M93.756 86.8099C89.496 87.4495 84.9244 90.1603 82.4283 94.8616C78.7226 101.838 80.3728 109.541 72.3595 110.3C70.1919 110.505 66.9789 112.962 69.5364 117.163C68.0182 117.809 64.9924 120.281 68.0888 125.023C65.3854 127.356 67.6083 134.718 67.9629 134.336C68.996 130.737 70.4805 127.679 72.5452 125.693C75.551 121.53 81.9678 119.462 88.6026 118.968C88.5796 116.824 88.7853 113.798 88.6855 112.68C88.6855 112.68 86.8249 111.669 86.7451 109.358C86.6131 107.537 87.5771 107.855 90.282 108.838C89.8506 105.294 90.6136 104.095 91.2123 103.472C91.8739 102.784 92.9731 102.498 97.1256 102.146C99.3945 101.954 101.815 101.34 103.208 100.701C110.033 97.5694 105.963 84.9778 93.756 86.8083" fill="white"/>
</mask>
<g mask="url(#mask3_963_2954)">
<path d="M110.031 84.9792H64.9924V134.72H110.031V84.9792Z" fill="#17081B"/>
</g>
<path fill-rule="evenodd" clip-rule="evenodd" d="M296.386 270.634L319.734 262.87L342.311 270.634V277.988L335.845 277.973L335.834 273.281L303.891 273.34V277.988H296.386V270.634Z" fill="#2E573B"/>
<path fill-rule="evenodd" clip-rule="evenodd" d="M305.855 208.437H259.152C256.64 208.437 254.586 210.475 254.586 212.966C254.586 215.458 256.64 217.497 259.152 217.497H305.855C308.366 217.497 310.42 215.46 310.42 212.968C310.42 210.476 308.366 208.437 305.855 208.437Z" fill="#2E573B"/>
<mask id="mask4_963_2954" style="mask-type:luminance" maskUnits="userSpaceOnUse" x="306" y="138" width="57" height="71">
<path d="M319.967 138.023H362.669L351.93 208.605L309.227 208.643C309.061 208.643 308.896 208.631 308.727 208.605C306.967 208.605 305.793 206.7 306.068 204.977L316.31 140.661C316.585 138.938 318.209 138.023 319.967 138.023Z" fill="white"/>
</mask>
<g mask="url(#mask4_963_2954)">
<path d="M362.671 138.023H305.793V208.644H362.671V138.023Z" fill="#2E573B"/>
</g>
<mask id="mask5_963_2954" style="mask-type:luminance" maskUnits="userSpaceOnUse" x="296" y="138" width="70" height="80">
<path d="M359.513 140.661L348.663 208.437H301.281C298.77 208.437 296.714 210.477 296.714 212.968C296.714 215.46 298.768 217.499 301.281 217.499H349.019C351.53 217.499 353.584 215.461 353.584 212.968C353.584 212.851 353.58 212.734 353.571 212.618C354.195 212.175 354.641 211.532 354.774 210.701L365.829 141.652C366.105 139.93 364.929 138.025 363.17 138.025C361.411 138.025 359.788 138.94 359.513 140.662" fill="white"/>
</mask>
<g mask="url(#mask5_963_2954)">
<path d="M366.106 138.023H296.716V217.497H366.106V138.023Z" fill="#386145"/>
</g>
<path fill-rule="evenodd" clip-rule="evenodd" d="M266.383 270.701L263.89 262.236L271.304 260.269L273.754 268.965L266.383 270.701Z" fill="#F8A98E"/>
<path fill-rule="evenodd" clip-rule="evenodd" d="M310.63 184.258L293.552 181.044C293.552 181.044 250.317 183.269 241.238 200.066C232.161 216.861 262.444 264.053 262.444 264.053L273.629 262.698C273.629 262.698 267.395 232.817 264.475 223.874C261.556 214.931 259.789 209.997 259.827 209.989L263.193 209.246L308.536 193.391L310.632 184.258H310.63Z" fill="#DADDDC"/>
<path fill-rule="evenodd" clip-rule="evenodd" d="M310.63 184.258L304.209 185.732C299.275 185.822 278.394 189.293 274.811 190.059C262.672 192.652 261.827 199.778 263.192 209.246L272.716 207.964L308.535 193.391L310.63 184.258Z" fill="#C6C9C8"/>
<path fill-rule="evenodd" clip-rule="evenodd" d="M282.904 268.322L282.172 260.653L289.931 260.837L289.855 269.62L282.904 268.322Z" fill="#F8A98E"/>
<path fill-rule="evenodd" clip-rule="evenodd" d="M282.522 267.023C280.33 270.931 276.758 274.668 279.547 277.988H293.749C293.772 277.924 293.796 277.856 293.818 277.783C293.956 277.327 294.617 277.139 294.174 275.474C293.351 272.384 290.932 267.634 290.101 267.389C288.452 266.904 286.113 268.269 282.524 267.023" fill="#17081B"/>
<path fill-rule="evenodd" clip-rule="evenodd" d="M278.488 275.404V275.41C278.456 276.449 278.563 277.365 279.547 277.988H293.749C294.481 277.566 294.674 277.275 294.174 275.474L278.488 275.404Z" fill="#2B1C2F"/>
<path fill-rule="evenodd" clip-rule="evenodd" d="M288.161 266.641H284.872C284.42 266.641 284.051 267.008 284.051 267.457V271.653C284.051 272.102 284.421 272.469 284.872 272.469H288.161C288.614 272.469 288.982 272.102 288.982 271.653V267.457C288.982 267.008 288.612 266.641 288.161 266.641Z" fill="#2B1C2F"/>
<path fill-rule="evenodd" clip-rule="evenodd" d="M333.352 185.635C333.352 185.635 335.135 202.271 326.121 206.554C317.105 210.836 288.976 211.29 288.976 211.29C294.647 232.41 289.733 244.916 291.595 263.769L279.374 263.831C279.374 263.831 271.858 230.229 269.076 211.183C267.673 201.574 267.378 193.935 279.647 191.312C283.773 190.43 310.629 184.258 310.629 184.258L333.352 185.635Z" fill="#DADDDC"/>
<path fill-rule="evenodd" clip-rule="evenodd" d="M342.777 126.622C346.784 142.841 332.9 159.23 334.064 191.514C322.042 193.171 290.46 186.734 289.905 181.323C291.369 170.659 293.372 162.752 293.986 156.507C292.976 157.509 291.808 158.477 290.45 159.39C278.795 167.225 247.158 168.197 247.971 164.085C248.063 163.62 251.275 161.799 252.965 161.67C254.383 161.56 258.112 161.931 259.514 161.567C266.129 159.857 273.906 157.264 284.684 148.351C288.056 145.563 291.876 126.802 301.463 121.912C313.954 116.148 332.191 116.869 342.776 126.622" fill="#FEB547"/>
<path fill-rule="evenodd" clip-rule="evenodd" d="M293.988 156.507C292.978 157.509 291.81 158.477 290.451 159.39C288.512 160.693 286.019 161.805 283.215 162.737C284.372 162.027 286.084 160.623 289.059 157.882C292.034 155.141 295.159 147.002 295.159 147.002L293.988 156.505V156.507Z" fill="#F4AB3D"/>
<path fill-rule="evenodd" clip-rule="evenodd" d="M305.739 161.14L331.731 157.183L333.617 147.295L336.973 144.135C336.973 144.135 341.066 153.519 340.989 154.095C340.912 154.669 336.945 162.818 337.166 162.867C337.387 162.915 321.643 165.28 320.369 165.357C319.095 165.433 305.739 161.138 305.739 161.138" fill="#F4AB3D"/>
<path fill-rule="evenodd" clip-rule="evenodd" d="M340.818 124.985C350.058 130.026 348.729 157.474 345.218 164.639C343.898 169.994 321.88 168.794 305.624 168.154C303.719 166.188 302.304 163.785 304.852 161.193C315.233 159.301 333.106 159.303 333.166 158.781C333.603 148.221 333.88 133.448 335.82 126.711C336.05 125.913 339.991 124.533 340.818 124.985Z" fill="#FEB547"/>
<path fill-rule="evenodd" clip-rule="evenodd" d="M305.624 168.153C296.972 167.812 289.601 167.253 287.132 167.148C287.646 165.628 288.551 162.233 291.94 161.357C293.919 160.846 297.781 161.533 305.624 161.983C307.169 165.445 306.206 166.188 305.624 168.153Z" fill="#F19975"/>
<path d="M200.066 174.072H193.6V277.988H200.066V174.072Z" fill="#426B4F"/>
<path d="M194.825 174.072H193.6V277.988H194.825V174.072Z" fill="#426B4F"/>
<path fill-rule="evenodd" clip-rule="evenodd" d="M172.521 166.187H307.23V174.765H172.521C170.144 174.765 168.199 172.836 168.199 170.477C168.199 168.118 170.144 166.188 172.521 166.188" fill="#2E573B"/>
<path fill-rule="evenodd" clip-rule="evenodd" d="M171.821 166.187H306.208V170.475H168.199C168.199 168.116 169.829 166.187 171.821 166.187Z" fill="#2E573B"/>
<path fill-rule="evenodd" clip-rule="evenodd" d="M302.938 166.187H364.356C366.734 166.187 368.679 168.116 368.679 170.475C368.679 172.834 366.734 174.764 364.356 174.764H336.958V277.987H330.172V174.764H302.936C300.558 174.764 298.613 172.834 298.613 170.475C298.613 168.116 300.558 166.187 302.936 166.187" fill="#426B4F"/>
<path fill-rule="evenodd" clip-rule="evenodd" d="M264.566 266.789C264.566 266.789 254.337 270.957 250.928 272.614C248.28 273.901 246.78 276.608 248.955 277.988H275.448C275.471 277.926 275.494 277.857 275.517 277.783C275.91 276.484 276.94 267.206 274.185 267.411C272.475 267.539 268.394 268.744 264.567 266.789" fill="#17081B"/>
<path fill-rule="evenodd" clip-rule="evenodd" d="M247.899 275.41V275.416L247.922 276.464C247.962 277.288 248.255 277.544 248.96 277.99H275.574C275.597 277.927 275.62 277.857 275.643 277.784C275.72 277.531 275.909 276.211 276.001 275.48L247.899 275.41Z" fill="#2B1C2F"/>
<path fill-rule="evenodd" clip-rule="evenodd" d="M263.438 267.262C259.753 268.782 253.577 271.356 251.041 272.557C252.368 273.572 253.633 273.371 253.633 273.371C253.633 273.371 260.826 271.144 262.873 269.705C264.081 268.854 263.838 267.9 263.438 267.262Z" fill="#2B1C2F"/>
<path d="M322.745 217.497H315.949V268.657H322.745V217.497Z" fill="#2E573B"/>
<path fill-rule="evenodd" clip-rule="evenodd" d="M243.016 162.423H291.383V164.306C291.383 165.341 290.529 166.187 289.487 166.187H244.913C243.871 166.187 243.017 165.34 243.017 164.306V162.423H243.016Z" fill="#E4E7E6"/>
<path fill-rule="evenodd" clip-rule="evenodd" d="M223.412 134.048H261.499C263.002 134.048 263.949 135.309 264.23 136.789L269.161 162.761H225.991L221.059 136.409C220.821 135.132 222.117 134.048 223.411 134.048" fill="#E4E7E6"/>
<mask id="mask6_963_2954" style="mask-type:luminance" maskUnits="userSpaceOnUse" x="219" y="134" width="50" height="33">
<path d="M222.107 134.048H260.194C261.695 134.048 262.644 135.309 262.925 136.789L267.793 162.423H267.857L268.17 164.306C268.339 165.326 267.315 166.188 266.273 166.188H226.817C225.775 166.188 225.075 165.331 224.921 164.306L224.688 162.761L219.757 136.41C219.519 135.134 220.815 134.05 222.109 134.05" fill="white"/>
</mask>
<g mask="url(#mask6_963_2954)">
<path d="M268.339 134.048H219.518V166.187H268.339V134.048Z" fill="#EEF1F0"/>
</g>
<path fill-rule="evenodd" clip-rule="evenodd" d="M242.557 148.231C243.674 147.966 244.835 148.809 245.15 150.112C245.464 151.416 244.813 152.689 243.696 152.954C242.578 153.219 241.418 152.377 241.103 151.073C240.788 149.77 241.439 148.498 242.557 148.231Z" fill="#E4E7E6"/>
<path d="M327.732 132.639C327.816 132.161 328.167 129.581 327.979 126.657C327.851 124.693 327.48 122.581 326.616 120.884C325.787 119.254 324.491 118.003 322.497 117.654C321.964 117.561 321.379 117.529 320.739 117.57C307.887 118.391 305.099 129.941 302.941 140.571L302.755 141.482L301.707 141.271L301.891 140.361C304.118 129.386 307 117.38 320.668 116.507C321.396 116.46 322.065 116.496 322.679 116.605C325.063 117.022 326.599 118.494 327.572 120.407C328.511 122.253 328.912 124.504 329.047 126.587C329.244 129.623 328.875 132.321 328.786 132.821L327.728 132.638L327.732 132.639Z" fill="#006294"/>
<path d="M320.598 151.23C324.007 152.16 326.474 152.068 328.309 150.761C330.125 149.469 331.265 147.013 332.044 143.207L331.256 143.05C330.521 146.651 329.475 148.95 327.841 150.114C326.226 151.263 323.975 151.323 320.81 150.459L320.598 151.231V151.23Z" fill="white"/>
<path d="M327.345 152.578C323.837 152.127 321.6 151.094 320.417 149.186C319.245 147.298 319.152 144.594 319.919 140.787L320.707 140.944C319.981 144.547 320.048 147.068 321.103 148.769C322.144 150.449 324.196 151.368 327.451 151.786L327.345 152.578Z" fill="white"/>
<path d="M327.297 132.172C323.02 131.838 320.724 136.026 319.795 139.698C319.643 140.298 319.54 140.661 319.621 140.95C319.861 141.809 320.948 141.533 321.038 140.987C321.588 137.686 323.774 132.709 327.89 133.565C327.913 133.57 327.919 133.571 327.94 133.574C328.031 133.591 329.101 133.797 330.008 134.928C330.931 136.078 331.835 138.408 330.908 142.977C330.846 143.28 331.038 143.582 331.35 143.711L331.365 143.717L331.382 143.723L331.397 143.729L331.413 143.735H331.416H331.417C331.434 143.742 331.451 143.746 331.47 143.751H331.471L331.482 143.754C331.482 143.754 331.482 143.754 331.483 143.754C331.483 143.754 331.483 143.754 331.485 143.754H331.486C331.89 143.834 332.275 143.615 332.346 143.263C333.172 139.197 332.765 136.131 331.139 134.153C330.119 132.91 328.812 132.286 327.274 132.166" fill="#006294"/>
<path d="M329.013 152.39C329.064 152.042 328.82 151.719 328.468 151.668L327.265 151.6C326.883 151.639 326.866 151.833 326.82 152.077C326.781 152.342 326.754 152.535 327.141 152.683L328.287 152.929C328.639 152.98 328.964 152.737 329.013 152.389" fill="#006294"/>
<path d="M319.132 150.418C319.221 150.078 319.572 149.873 319.915 149.963L321.051 150.362C321.388 150.545 321.329 150.729 321.276 150.972C321.209 151.231 321.16 151.42 320.745 151.408L319.592 151.195C319.248 151.106 319.043 150.759 319.133 150.418" fill="#006294"/>
<path d="M300.302 140.766C300.093 142.129 300.873 143.378 302.044 143.554C303.216 143.731 304.336 142.772 304.545 141.409C304.754 140.046 303.974 138.797 302.803 138.62C301.631 138.443 300.511 139.404 300.302 140.766Z" fill="#006294"/>
<path d="M300.538 140.764C300.413 141.579 300.879 142.325 301.579 142.432C302.279 142.538 302.949 141.963 303.074 141.148C303.2 140.333 302.734 139.587 302.032 139.482C301.332 139.375 300.663 139.951 300.537 140.764" fill="white"/>
<path fill-rule="evenodd" clip-rule="evenodd" d="M307.076 110.313C308.656 113.009 310.299 114.947 312.563 115.858L312.845 120.171C311.63 122.982 311.869 125.543 315.698 125.967C326.123 125.844 324.406 118.746 324.294 118.415L322.917 112.474C323.261 112.433 326.064 110.756 326.797 110.484C327.529 110.21 328.539 108.716 328.519 107.203C328.499 105.691 326.181 106.322 326.181 106.322C328.788 102.286 331.815 98.9338 327.421 95.7098C323.029 92.4857 313.308 91.039 313.308 91.039L307.41 89.4033C308.266 91.3359 307.692 97.9911 306.462 102.201C305.362 105.976 304.956 106.69 307.078 110.309" fill="#F19975"/>
<path fill-rule="evenodd" clip-rule="evenodd" d="M316.401 125.951C317.847 127.25 320.054 129.048 321.502 130.347C324.191 127.168 325.549 124.833 326.675 121.013C326.45 120.56 326.198 120.127 325.919 119.726C325.453 119.059 324.908 118.479 324.267 118.033C323.109 120.716 320.862 123.68 316.401 125.952" fill="#F4AB3D"/>
<path fill-rule="evenodd" clip-rule="evenodd" d="M316.401 125.951C315.14 127.394 312.964 128.666 311.705 130.108C310.902 127.576 310.729 125.258 311.092 122.21C311.608 121.667 312.27 120.916 312.847 120.173C313.386 122.317 314.899 124.466 316.402 125.951" fill="#F4AB3D"/>
<path fill-rule="evenodd" clip-rule="evenodd" d="M320.624 113.327C318.929 116.667 317.03 120.41 312.844 120.173L312.561 115.86C314.428 116.043 316.229 115.787 320.622 113.329" fill="#E78F6B"/>
<mask id="mask7_963_2954" style="mask-type:luminance" maskUnits="userSpaceOnUse" x="303" y="84" width="30" height="28">
<path d="M308.239 98.3187C313.257 100.379 318.565 97.0272 321.64 100.078C323.163 101.588 323.215 103.941 321.955 107.682C321.734 108.338 323.407 108.236 323.433 108.222C324.234 107.773 324.908 107.545 325.409 107.881C326.519 108.632 326.138 110.431 325.352 111.063C325.002 111.344 324.33 111.778 324.33 111.778C330.71 110.038 332.934 104.019 332.46 99.3573C332.298 97.7765 332.005 96.383 331.6 95.1571C331.698 94.7154 331.732 94.2509 331.694 93.7758C331.528 91.7488 330.085 90.1421 328.26 89.7476C327.755 87.6566 325.857 86.184 323.729 86.356C323.089 86.4078 322.494 86.6043 321.969 86.9104L321.751 86.8723C320.863 85.6098 319.331 84.8346 317.66 84.9702C316.488 85.0646 315.457 85.59 314.714 86.3728C313.403 84.8758 311.534 84.0046 309.536 84.1645C305.98 84.4509 303.36 87.8988 303.685 91.866C303.89 94.3484 305.197 96.4455 307.02 97.5968C307.391 97.8709 307.796 98.1146 308.239 98.3217" fill="white"/>
</mask>
<g mask="url(#mask7_963_2954)">
<path d="M332.934 84H303.36V111.778H332.934V84Z" fill="#17081B"/>
</g>
<path d="M99.2892 103.788C99.5024 103.993 99.4871 104.258 99.2443 104.584C99.208 104.634 99.165 104.647 99.1148 104.627C97.8869 104.125 97.3787 104.045 96.2287 105.018C96.1314 105.1 96.0052 105.004 96.049 104.881C96.5207 103.56 98.2888 102.824 99.2886 103.786L99.2892 103.788Z" fill="#17081B"/>
<path d="M103.611 105.238C102.794 104.602 101.69 104.297 100.948 105.194C100.907 105.246 100.886 105.237 100.887 105.171C100.93 103.173 103.423 103.595 103.798 105.104C103.826 105.218 103.702 105.309 103.611 105.239L103.611 105.238Z" fill="#17081B"/>
<path d="M101.897 107.095C101.725 106.995 101.642 106.71 101.708 106.447C101.852 105.879 102.075 105.764 102.373 106.1C102.556 106.309 102.563 106.717 102.389 106.965C102.25 107.162 102.085 107.205 101.897 107.095Z" fill="#17081B"/>
<path d="M98.8105 106.334C98.7897 106.677 98.4971 106.936 98.1555 106.915C97.8139 106.894 97.5549 106.601 97.5757 106.259C97.5965 105.917 97.8891 105.657 98.2307 105.678C98.5722 105.699 98.8313 105.992 98.8105 106.334Z" fill="#17081B"/>
<path d="M99.9892 112.459C98.8737 112.618 97.7729 112.32 97.0919 111.798C97.0355 111.755 97.0585 111.744 97.1589 111.765C98.2432 111.992 99.3339 112.131 100.432 112.183C100.518 112.187 100.548 112.205 100.524 112.237C100.444 112.346 100.264 112.419 99.9881 112.459L99.9892 112.459Z" fill="#FDFDFD"/>
</g>
<defs>
<clipPath id="clip0_963_2954">
<rect width="391" height="196" fill="white" transform="translate(0 84)"/>
</clipPath>
</defs>
</svg>
