<svg width="360" height="360" viewBox="0 0 360 360" fill="none" xmlns="http://www.w3.org/2000/svg">
<circle cx="180" cy="180" r="180" fill="white"/>
<g clip-path="url(#clip0_963_2952)">
<path fill-rule="evenodd" clip-rule="evenodd" d="M224.357 267.612C221.304 267.612 218.807 270.114 218.807 273.174V320.278H229.83C229.873 320.278 229.907 320.242 229.907 320.201V273.174C229.907 270.114 227.41 267.612 224.357 267.612Z" fill="#2E573B"/>
<path d="M229.907 297.583H218.807V304.842H229.907V297.583Z" fill="#2E573B"/>
<path fill-rule="evenodd" clip-rule="evenodd" d="M183.241 279.593C180.187 279.593 177.691 282.095 177.691 285.155V320.281H188.791V285.155C188.791 282.097 186.294 279.593 183.241 279.593Z" fill="#2E573B"/>
<path fill-rule="evenodd" clip-rule="evenodd" d="M297.493 267.612C294.44 267.612 291.943 270.114 291.943 273.174V320.278H303.043V273.174C303.043 270.114 300.544 267.612 297.493 267.612Z" fill="#2E573B"/>
<path fill-rule="evenodd" clip-rule="evenodd" d="M109.939 267.612C106.886 267.612 104.39 270.114 104.39 273.174V320.278H115.489V273.174C115.489 270.114 112.993 267.612 109.939 267.612Z" fill="#2E573B"/>
<path fill-rule="evenodd" clip-rule="evenodd" d="M300.542 252.695H174.53C169.973 252.695 166.243 256.433 166.243 261V297.585H308.827V261C308.827 256.433 305.099 252.695 300.54 252.695" fill="#426B4F"/>
<mask id="mask0_963_2952" style="mask-type:luminance" maskUnits="userSpaceOnUse" x="231" y="177" width="99" height="83">
<path d="M309.996 177.03H250.452C239.963 177.03 231.379 185.63 231.379 196.145V240.684C231.379 251.196 239.961 259.798 250.452 259.798H309.996C320.486 259.798 329.067 251.198 329.067 240.684V196.145C329.067 185.632 320.486 177.03 309.996 177.03Z" fill="white"/>
</mask>
<g mask="url(#mask0_963_2952)">
<path d="M329.067 177.03H231.379V259.796H329.067V177.03Z" fill="#386145"/>
</g>
<path fill-rule="evenodd" clip-rule="evenodd" d="M314.553 177.03C306.571 177.03 300.039 183.576 300.039 191.575V297.583H314.555C322.54 297.583 329.069 291.038 329.069 283.036V191.575C329.069 183.576 322.537 177.03 314.555 177.03" fill="#426B4F"/>
<mask id="mask1_963_2952" style="mask-type:luminance" maskUnits="userSpaceOnUse" x="90" y="116" width="157" height="114">
<path d="M90.2493 116.147L106.042 229.229L241.753 229.291C241.995 229.291 242.24 229.229 242.49 229.229C245.074 229.229 246.802 226.178 246.398 223.415L233.639 134.226C232.883 129.134 230.328 116.145 213.027 116.145H90.2493V116.147Z" fill="white"/>
</mask>
<g mask="url(#mask1_963_2952)">
<path d="M246.804 116.147H90.2493V229.291H246.804V116.147Z" fill="#386145"/>
</g>
<path fill-rule="evenodd" clip-rule="evenodd" d="M287.429 218.413H184.73C177.794 218.413 172.121 224.1 172.121 231.048V263.463C172.121 270.412 177.794 276.098 184.73 276.098H287.429C294.362 276.098 300.037 270.412 300.037 263.463V231.048C300.037 224.1 294.362 218.413 287.429 218.413Z" fill="#2E573B"/>
<mask id="mask2_963_2952" style="mask-type:luminance" maskUnits="userSpaceOnUse" x="78" y="116" width="36" height="83">
<path d="M90.2493 116.148C82.9052 116.968 77.7291 123.641 78.7497 130.979L86.5385 187.002C87.5592 194.34 94.4026 199.674 101.747 198.855C109.093 198.037 114.267 191.362 113.246 184.024L105.457 128.001C104.437 120.663 97.5933 115.329 90.2493 116.148Z" fill="white"/>
</mask>
<g mask="url(#mask2_963_2952)">
<path d="M114.269 115.329H77.7312V199.674H114.269V115.329Z" fill="#2E573B"/>
</g>
<path d="M188.791 297.583H177.691V304.842H188.791V297.583Z" fill="#2E573B"/>
<path d="M115.489 297.583H104.39V304.842H115.489V297.583Z" fill="#2E573B"/>
<path d="M303.041 297.583H291.941V304.842H303.041V297.583Z" fill="#2E573B"/>
<path fill-rule="evenodd" clip-rule="evenodd" d="M222.627 57.3232C220.408 67.7191 217.026 96.0642 221.747 105.259C225.588 112.741 222.419 123.86 220.889 124.763C219.359 125.665 201.637 131.73 197.187 132.262C192.738 132.794 167.721 112.651 167.721 112.651L165.718 90.862L222.627 57.3232Z" fill="#17081B"/>
<path fill-rule="evenodd" clip-rule="evenodd" d="M268.937 155.627C267.165 155.203 265.323 156.551 264.825 158.639C264.326 160.73 265.36 162.767 267.13 163.191C268.903 163.616 270.744 162.268 271.241 160.179C271.739 158.09 270.708 156.051 268.935 155.627" fill="white"/>
<mask id="mask3_963_2952" style="mask-type:luminance" maskUnits="userSpaceOnUse" x="215" y="104" width="40" height="74">
<path d="M217.93 119.558C219.585 123.197 223.521 148.302 232.159 164.197C237.717 174.423 247.307 179.323 252.567 177.267C261.643 173.719 241.512 157.203 241.355 157.347C235.633 144.73 236.024 112.847 218.985 104.359C217.273 103.254 212.926 112.007 217.93 119.558Z" fill="white"/>
</mask>
<g mask="url(#mask3_963_2952)">
<path d="M261.645 103.254H212.926V179.323H261.645V103.254Z" fill="#F19975"/>
</g>
<mask id="mask4_963_2952" style="mask-type:luminance" maskUnits="userSpaceOnUse" x="195" y="183" width="138" height="98">
<path d="M235.386 188.662C248.94 192.232 256.398 175.26 274.928 187.878L308.073 261.932C314.093 265.108 316.921 265.242 324.729 263.549C327.252 263.002 329.119 262.43 332.112 264.703C332.206 264.775 332.288 264.85 332.363 264.934C333.21 265.855 332.937 267.406 331.738 267.955L304.628 280.118C303.296 280.728 302.772 279.86 302.024 278.669C301.919 278.501 301.829 278.321 301.76 278.127C290.086 249.075 266.872 231.912 260.302 210.233C260.302 210.233 240.21 222.543 227.556 222.709C209.246 222.948 196.201 210.989 195.913 210.242C195.428 208.982 235.386 188.66 235.386 188.66" fill="white"/>
</mask>
<g mask="url(#mask4_963_2952)">
<path d="M333.21 175.26H195.428V280.73H333.21V175.26Z" fill="#F19975"/>
</g>
<path d="M265.828 186.976C255.512 192.019 236.342 211.738 240.685 210.591C247.687 210.089 255.24 201.013 263.031 206.76C268.426 210.739 270.431 226.998 281.129 244.069C280.882 243.77 270.753 231.414 268.422 228.576C244.875 199.902 247.361 232.62 213.023 225.297C197.093 221.901 208.444 203.698 208.255 202.888C207.946 201.575 265.826 186.974 265.826 186.974" fill="#E78F6B"/>
<mask id="mask5_963_2952" style="mask-type:luminance" maskUnits="userSpaceOnUse" x="189" y="183" width="89" height="137">
<path d="M235.352 195.8C241.684 202.197 231.383 201.627 237.541 202.322C241.463 202.766 209.428 223.781 215.494 226.886C216.972 227.642 243.661 214.025 254.14 209.712C264.773 205.337 268.48 220.973 268.383 228.641C268.149 247.172 261.03 282.123 258.263 302.224C262.132 308.468 263.319 309.4 271.636 312.154C274.085 312.966 275.985 313.42 277.414 316.902C277.459 317.012 277.491 317.12 277.515 317.229C277.779 318.452 276.756 319.652 275.446 319.516L247.969 316.437C246.512 316.286 245.442 315.072 245.399 313.668C245.395 313.468 245.407 313.267 245.446 313.065C244.679 309.202 244.675 306.011 246.426 299.995C249.715 276.983 242.696 255.384 245.865 229.935C246.127 227.836 230.936 230.2 215.775 229.1C206.096 228.398 197.606 226.852 189.328 219.979C189.328 219.979 213.012 185.131 213.234 183.794C213.453 182.461 235.352 195.8 235.352 195.8Z" fill="white"/>
</mask>
<g mask="url(#mask5_963_2952)">
<path d="M277.775 182.461H189.328V319.652H277.775V182.461Z" fill="#F19975"/>
</g>
<path fill-rule="evenodd" clip-rule="evenodd" d="M270.196 310.757C270.196 310.757 282.306 316.336 281.606 319.413C280.19 325.627 244.329 322.759 243.48 318.437C243.102 316.51 242.823 307.74 244.643 305.757C245.996 304.282 258.858 313.793 270.196 310.757Z" fill="black"/>
<path fill-rule="evenodd" clip-rule="evenodd" d="M224.51 171.272C225.58 185.199 262.625 168.701 274.928 187.878C252.137 180.258 224.557 231.679 209.299 231.968C186.171 232.407 158.325 229.898 175.175 175.092C180.737 162.065 222.453 162.933 224.508 171.272" fill="#7E3F12"/>
<path fill-rule="evenodd" clip-rule="evenodd" d="M323.487 263.084C323.487 263.084 335.928 260.078 336.903 263.155C338.874 269.365 310 287.424 304.768 284.466C303.023 283.48 297.811 274.664 298.387 271.971C298.814 269.968 315.071 271.658 323.487 263.086" fill="black"/>
<path fill-rule="evenodd" clip-rule="evenodd" d="M164.981 105.758C159.277 129.084 179.006 132.534 173.832 179.618C190.946 182 222.243 180.163 228.738 176.421C224.385 153.532 228.21 142.156 228.949 138.175C233.762 112.27 219.282 95.3194 194.126 95.4507C182.248 95.5132 169.917 98.4265 164.981 105.758Z" fill="#F47920"/>
<path fill-rule="evenodd" clip-rule="evenodd" d="M175.196 161.921C175.387 166.858 174.371 173.206 173.666 179.616C179.981 180.495 183.988 181.095 191.339 180.68C189.914 177.532 178.625 164.218 175.194 161.919" fill="#F47920"/>
<mask id="mask6_963_2952" style="mask-type:luminance" maskUnits="userSpaceOnUse" x="186" y="58" width="37" height="52">
<path d="M205.765 93.6958L204.08 99.1994L204.654 100.138C206.676 104.499 201.072 110.254 197.596 108.883C188.492 106.391 184.014 96.777 188.011 93.6613L189.605 92.7376L192.387 85.0785C191.934 84.8998 189.195 81.881 188.292 81.2458C187.394 80.6084 186.552 78.1946 187.119 76.1189C187.686 74.0454 190.619 75.7378 190.619 75.7378C188.511 69.2587 185.585 63.572 192.72 60.6975C199.856 57.8208 213.614 59.2849 213.614 59.2849L222.232 59.1321C221.203 60.4348 220.041 62.9541 219.237 66.0009C216.878 74.9282 219.98 89.8178 205.758 93.6936" fill="white"/>
</mask>
<g mask="url(#mask6_963_2952)">
<path d="M222.236 57.823H184.016V110.254H222.236V57.823Z" fill="#F19975"/>
</g>
<path fill-rule="evenodd" clip-rule="evenodd" d="M195.69 87.3479C196.805 92.5437 198.296 98.0409 204.082 99.1993L205.767 93.6956C203.159 93.2844 200.797 92.2939 195.692 87.3479" fill="#E78F6B"/>
<path fill-rule="evenodd" clip-rule="evenodd" d="M267.062 176.212H217.387V178.656C217.387 179.999 218.485 181.1 219.826 181.1H264.623C265.964 181.1 267.062 179.999 267.062 178.656V176.212Z" fill="#E4E7E6"/>
<path fill-rule="evenodd" clip-rule="evenodd" d="M292.269 139.357H243.295C241.364 139.357 240.145 140.994 239.784 142.919L236.778 158.904L233.442 176.653H288.95L295.29 142.426C295.598 140.768 293.93 139.359 292.267 139.359" fill="#E4E7E6"/>
<mask id="mask7_963_2952" style="mask-type:luminance" maskUnits="userSpaceOnUse" x="234" y="139" width="64" height="43">
<path d="M293.948 139.357H244.976C243.044 139.357 241.826 140.994 241.465 142.919L235.206 176.214H235.122L234.72 178.658C234.503 179.982 235.818 181.102 237.159 181.102H287.89C289.231 181.102 290.129 179.989 290.329 178.658L290.63 176.651L296.971 142.423C297.278 140.765 295.611 139.357 293.948 139.357Z" fill="white"/>
</mask>
<g mask="url(#mask7_963_2952)">
<path d="M297.28 139.357H234.503V181.102H297.28V139.357Z" fill="#EEF1F0"/>
</g>
<path fill-rule="evenodd" clip-rule="evenodd" d="M267.586 158.062C266.282 157.75 264.928 158.743 264.56 160.28C264.193 161.818 264.954 163.318 266.258 163.631C267.562 163.943 268.918 162.95 269.283 161.413C269.651 159.875 268.89 158.375 267.586 158.062Z" fill="#E4E7E6"/>
<mask id="mask8_963_2952" style="mask-type:luminance" maskUnits="userSpaceOnUse" x="156" y="106" width="70" height="77">
<path d="M165.845 106.307C149.135 111.07 160.59 150.225 163.533 162.879C165.357 170.355 185.557 177.347 204.555 182.245C210.339 183.735 222.125 182.405 225.833 182.245C225.101 180.06 220.406 175.034 215.582 173.774C212.316 172.922 211.242 174.735 207.123 173.398C191.921 168.46 177.56 156.874 177.474 156.124C176.851 140.938 178.563 118.516 170.267 108.469C169.506 107.55 167.141 105.941 165.845 106.311" fill="white"/>
</mask>
<g mask="url(#mask8_963_2952)">
<path d="M225.833 105.937H149.135V183.733H225.833V105.937Z" fill="#F19975"/>
</g>
<path fill-rule="evenodd" clip-rule="evenodd" d="M220.939 67.5318C226.871 63.0811 226.3 52.2051 217.87 46.5485C214.433 44.2424 209.688 42.8019 203.547 43.0215C186.244 43.6374 185.071 57.7432 177.089 68.8668C173.989 73.1883 171.051 76.9586 162.341 79.3552C147.289 83.498 139.509 102.584 143.981 116.107C144.03 116.147 146.434 108.618 152.238 108.303C145.188 120.796 155.783 132.333 157.601 134.213C153.978 112.618 163.183 103.191 186.674 95.8124C192.022 92.8732 192.725 87.8066 192.961 82.865C194.162 57.5817 208.994 76.4785 220.939 67.5296" fill="#17081B"/>
<mask id="mask9_963_2952" style="mask-type:luminance" maskUnits="userSpaceOnUse" x="68" y="177" width="111" height="121">
<path d="M158.041 177.51H88.0211C77.0093 177.51 68 186.539 68 197.574V277.519C68 288.555 77.0093 297.583 88.0211 297.583H158.041C169.053 297.583 178.062 288.555 178.062 277.519V197.574C178.062 186.539 169.053 177.51 158.041 177.51Z" fill="white"/>
</mask>
<g mask="url(#mask9_963_2952)">
<path d="M178.062 177.51H68V297.583H178.062V177.51Z" fill="#386145"/>
</g>
<path fill-rule="evenodd" clip-rule="evenodd" d="M163.548 177.51C155.564 177.51 149.034 184.056 149.034 192.055V283.038C149.034 291.037 155.566 297.583 163.548 297.583H177.691C177.895 297.583 178.062 297.415 178.062 297.211V192.055C178.062 184.056 171.53 177.51 163.548 177.51Z" fill="#426B4F"/>
<path d="M207.791 72.804C208.163 73.1604 208.136 73.6221 207.713 74.1901C207.65 74.2764 207.575 74.3005 207.488 74.2646C205.35 73.3908 204.465 73.2516 202.463 74.9463C202.293 75.0882 202.074 74.9221 202.15 74.7079C202.971 72.4076 206.05 71.1267 207.79 72.8009L207.791 72.804Z" fill="#17081B"/>
<path d="M215.316 75.3279C213.894 74.2213 211.971 73.691 210.68 75.2511C210.609 75.3422 210.571 75.3271 210.573 75.212C210.649 71.7338 214.989 72.4681 215.642 75.0953C215.69 75.2933 215.474 75.4528 215.316 75.3303L215.316 75.3279Z" fill="#17081B"/>
<path d="M212.332 78.5626C212.033 78.3882 211.888 77.8924 212.004 77.434C212.254 76.4447 212.641 76.2448 213.161 76.8308C213.479 77.1932 213.492 77.9045 213.188 78.3361C212.946 78.6797 212.66 78.7541 212.332 78.5626Z" fill="#17081B"/>
<path d="M206.958 77.2375C206.922 77.8334 206.412 78.2853 205.818 78.249C205.223 78.2127 204.772 77.7023 204.808 77.1064C204.844 76.5105 205.354 76.0586 205.949 76.0949C206.543 76.1311 206.994 76.6416 206.958 77.2375Z" fill="#17081B"/>
<path d="M209.01 87.9011C207.068 88.1783 205.152 87.6593 203.966 86.7511C203.868 86.6752 203.908 86.6561 204.082 86.6932C205.97 87.0884 207.869 87.3308 209.781 87.4205C209.93 87.4279 209.983 87.4589 209.942 87.5149C209.802 87.7042 209.488 87.8319 209.008 87.9008L209.01 87.9011Z" fill="#FDFDFD"/>
</g>
<defs>
<clipPath id="clip0_963_2952">
<rect width="269" height="280" fill="white" transform="translate(68 43)"/>
</clipPath>
</defs>
</svg>
