<svg width="391" height="360" viewBox="0 0 391 360" fill="none" xmlns="http://www.w3.org/2000/svg">
<circle cx="180" cy="180" r="180" fill="#F8FBFA"/>
<g clip-path="url(#clip0_929_2942)">
<path fill-rule="evenodd" clip-rule="evenodd" d="M389.985 277.988H1.01472C0.455931 277.988 0 278.441 0 278.993C0 279.546 0.455931 279.999 1.01472 279.999H389.985C390.544 279.999 391 279.546 391 278.993C391 278.441 390.544 277.988 389.985 277.988Z" fill="#386145"/>
<path fill-rule="evenodd" clip-rule="evenodd" d="M103.723 91.5965C103.594 94.6347 104.418 95.9445 104.951 98.1542C106.167 103.204 106.285 107.159 108.823 111.463C109.035 111.824 109.205 112.675 109.124 113.205C108.99 114.067 108.471 114.655 108.5 115.143C108.615 117.063 110.898 117.654 110.405 119.9C109.88 122.288 109.787 125.221 107.984 128.313C107.984 128.313 100.459 121.504 97.4904 121.251C94.5199 120.998 93.2673 111.926 93.2243 111.459C93.1798 110.991 94.0563 92.591 94.0563 92.591L103.726 91.595L103.723 91.5965Z" fill="#17081B"/>
<path fill-rule="evenodd" clip-rule="evenodd" d="M122.589 244.277C120.615 244.277 119 245.879 119 247.836V277.987H126.128C126.155 277.987 126.178 277.964 126.178 277.936V247.836C126.178 245.877 124.563 244.277 122.589 244.277Z" fill="#2E573B"/>
<path fill-rule="evenodd" clip-rule="evenodd" d="M80.5891 254C78.6149 254 77 255.602 77 257.561V280.042H84.1767V257.561C84.1767 255.602 82.5618 254 80.5876 254" fill="#2E573B"/>
<path fill-rule="evenodd" clip-rule="evenodd" d="M162.189 244.277C160.215 244.277 158.6 245.879 158.6 247.836V277.987H165.776V247.836C165.776 245.877 164.161 244.277 162.187 244.277" fill="#2E573B"/>
<path fill-rule="evenodd" clip-rule="evenodd" d="M40.5891 244.277C38.6149 244.277 37 245.879 37 247.836V277.987H44.1767V247.836C44.1767 245.877 42.5617 244.277 40.5876 244.277" fill="#2E573B"/>
<path fill-rule="evenodd" clip-rule="evenodd" d="M164.162 234.728H82.6837C79.7363 234.728 77.3262 237.12 77.3262 240.043V263.461H169.521V240.043C169.521 237.119 167.109 234.728 164.163 234.728" fill="#426B4F"/>
<mask id="mask0_929_2942" style="mask-type:luminance" maskUnits="userSpaceOnUse" x="119" y="186" width="64" height="54">
<path d="M170.274 186.297H131.773C131.673 186.297 131.573 186.297 131.474 186.3L131.392 186.303C131.32 186.304 131.25 186.308 131.179 186.311L131.078 186.315L130.89 186.327L130.766 186.336L130.6 186.352L130.479 186.364L130.273 186.387L130.196 186.396C130.103 186.408 130.011 186.42 129.917 186.435H129.903L129.82 186.451L129.633 186.481L129.518 186.502L129.34 186.536L129.24 186.557L129.059 186.597L128.956 186.62L128.776 186.664L128.671 186.691L128.506 186.735L128.394 186.766C128.307 186.79 128.221 186.818 128.133 186.844L128.038 186.874L127.871 186.929L127.756 186.968L127.596 187.025L127.495 187.061L127.333 187.122L127.22 187.166L127.068 187.229L126.965 187.272L126.787 187.349L126.713 187.381H126.712L126.623 187.422L126.469 187.494L126.348 187.553L126.217 187.617L126.092 187.681L125.983 187.738L125.838 187.815L125.742 187.869L125.602 187.948L125.524 187.993C125.324 188.111 125.129 188.233 124.939 188.359L124.767 188.476L124.713 188.513L124.555 188.625L124.497 188.668L124.34 188.784L124.294 188.819C124.038 189.014 123.789 189.219 123.548 189.433H123.546C123.486 189.487 123.428 189.541 123.368 189.596L123.356 189.608C123.301 189.66 123.245 189.711 123.192 189.763L123.163 189.79C122.808 190.135 122.475 190.499 122.163 190.882L122.16 190.887C120.462 192.984 119.441 195.643 119.441 198.526V227.037C119.441 233.765 124.991 239.271 131.773 239.271H170.274C177.056 239.271 182.606 233.765 182.606 227.037V198.526C182.606 195.738 181.652 193.159 180.053 191.097L180.033 191.071C179.987 191.012 179.939 190.952 179.891 190.893L179.875 190.873C179.615 190.553 179.34 190.247 179.05 189.956L179.042 189.949C178.99 189.896 178.937 189.844 178.883 189.792L178.852 189.762C178.801 189.713 178.749 189.664 178.699 189.615L178.66 189.58C178.61 189.533 178.559 189.487 178.507 189.44L178.467 189.405C178.237 189.201 177.999 189.005 177.753 188.817L177.707 188.782L177.55 188.667L177.494 188.625L177.326 188.507L177.296 188.485C177.234 188.443 177.171 188.4 177.108 188.359C176.921 188.234 176.729 188.114 176.533 188L176.444 187.948L176.31 187.872L176.203 187.812L176.07 187.741L175.952 187.678L175.831 187.616L175.688 187.546L175.584 187.495C175.512 187.46 175.44 187.428 175.367 187.395L175.337 187.381H175.335L175.281 187.357C175.217 187.328 175.151 187.299 175.086 187.272L174.973 187.224L174.829 187.165L174.709 187.119L174.558 187.061L174.451 187.022L174.293 186.967L174.178 186.927L174.02 186.876L173.912 186.842L173.901 186.839C173.82 186.813 173.737 186.79 173.654 186.766L173.524 186.731L173.381 186.693L173.264 186.664L173.095 186.623L172.988 186.598L172.81 186.56L172.706 186.539L172.535 186.507L172.411 186.484L172.239 186.455L172.131 186.439C172.038 186.425 171.944 186.411 171.85 186.399L171.766 186.388C171.7 186.381 171.634 186.373 171.568 186.365L171.444 186.353L171.281 186.338L171.154 186.329L170.968 186.317L170.865 186.312C170.794 186.309 170.724 186.306 170.653 186.304L170.57 186.301C170.472 186.298 170.372 186.298 170.272 186.298L170.274 186.297Z" fill="white"/>
</mask>
<g mask="url(#mask0_929_2942)">
<path d="M182.607 186.297H119.441V239.275H182.607V186.297Z" fill="#386145"/>
</g>
<path fill-rule="evenodd" clip-rule="evenodd" d="M173.22 186.297C168.059 186.297 163.834 190.486 163.834 195.608V263.464H173.22C178.382 263.464 182.605 259.274 182.605 254.153V195.608C182.605 190.488 178.382 186.297 173.22 186.297Z" fill="#426B4F"/>
<mask id="mask1_929_2942" style="mask-type:luminance" maskUnits="userSpaceOnUse" x="28" y="147" width="99" height="73">
<path d="M28.1875 147.325L38.1013 219.707L123.29 219.747C123.443 219.747 123.595 219.707 123.752 219.707C125.375 219.707 126.46 217.753 126.207 215.987L118.198 158.898C117.723 155.637 116.121 147.325 105.26 147.325H28.1875Z" fill="white"/>
</mask>
<g mask="url(#mask1_929_2942)">
<path d="M126.46 147.325H28.1875V219.747H126.46V147.325Z" fill="#386145"/>
</g>
<path fill-rule="evenodd" clip-rule="evenodd" d="M156.061 212.785H92.7407C88.4653 212.785 84.9668 216.424 84.9668 220.872V241.621C84.9668 246.069 88.4653 249.707 92.7407 249.707H156.061C160.337 249.707 163.835 246.068 163.835 241.621V220.872C163.835 216.424 160.337 212.785 156.061 212.785Z" fill="#2E573B"/>
<path fill-rule="evenodd" clip-rule="evenodd" d="M157.5 212.784H84.556C82.6693 212.784 81.125 216.424 81.125 220.874H163.834C163.834 216.425 160.6 212.784 157.499 212.784" fill="#2E573B"/>
<path fill-rule="evenodd" clip-rule="evenodd" d="M28.1888 147.325C23.4391 147.849 20.0941 152.121 20.7527 156.817L25.7879 192.678C26.448 197.375 30.8722 200.789 35.6219 200.265C40.3715 199.741 43.7166 195.47 43.058 190.773L38.0228 154.912C37.3627 150.216 32.9385 146.801 28.1888 147.325Z" fill="#2E573B"/>
<mask id="mask2_929_2942" style="mask-type:luminance" maskUnits="userSpaceOnUse" x="13" y="186" width="72" height="78">
<path d="M13.8008 250.62C13.8008 250.729 13.8008 250.84 13.8054 250.95C13.8085 251.06 13.8131 251.169 13.8177 251.278C13.8238 251.387 13.8299 251.495 13.8392 251.603C13.8468 251.712 13.8576 251.82 13.8683 251.928C13.8791 252.036 13.8914 252.143 13.9052 252.249C13.919 252.356 13.9343 252.462 13.9497 252.569C13.9666 252.674 13.9835 252.781 14.0034 252.886C14.0218 252.991 14.0433 253.096 14.0648 253.2C14.0863 253.303 14.1093 253.408 14.1339 253.512C14.1585 253.615 14.1846 253.717 14.2107 253.821C14.2368 253.923 14.2659 254.025 14.2951 254.127C14.3243 254.229 14.355 254.33 14.3857 254.43C14.4179 254.531 14.4501 254.63 14.4839 254.73C14.5177 254.829 14.553 254.928 14.5898 255.025C14.6267 255.124 14.6635 255.222 14.7019 255.318C14.7403 255.415 14.7802 255.511 14.8216 255.607C14.8631 255.703 14.9045 255.799 14.9475 255.894C14.9905 255.988 15.035 256.082 15.0811 256.177C15.1271 256.27 15.1732 256.363 15.2208 256.456C15.2684 256.548 15.3175 256.64 15.3681 256.73C15.4188 256.821 15.4695 256.911 15.5217 257.001C15.5738 257.091 15.6276 257.179 15.6813 257.267C15.735 257.356 15.7903 257.444 15.8471 257.529C15.9039 257.616 15.9607 257.703 16.019 257.788C16.0774 257.873 16.1372 257.959 16.1971 258.042C16.257 258.126 16.3184 258.21 16.3813 258.292C16.4443 258.374 16.5072 258.457 16.5717 258.537C16.6361 258.618 16.7006 258.699 16.7666 258.778C16.8326 258.857 16.9002 258.936 16.9677 259.014C17.0353 259.092 17.1044 259.168 17.1734 259.244C17.2425 259.32 17.3131 259.396 17.3853 259.471C17.4574 259.546 17.5296 259.619 17.6033 259.692C17.677 259.765 17.7506 259.836 17.8259 259.908C17.9011 259.98 17.9763 260.05 18.0531 260.118C18.1298 260.187 18.2081 260.255 18.2864 260.324C18.3647 260.391 18.443 260.458 18.5243 260.523C18.6042 260.589 18.6855 260.654 18.7669 260.717C18.8483 260.781 18.9312 260.843 19.0141 260.906C19.0969 260.968 19.1814 261.027 19.2658 261.088C19.3502 261.148 19.4362 261.207 19.5222 261.265C19.6081 261.323 19.6956 261.379 19.7831 261.436C19.8707 261.492 19.9582 261.547 20.0472 261.6C20.1362 261.655 20.2253 261.707 20.3158 261.758C20.4064 261.81 20.497 261.86 20.5891 261.911C20.6812 261.961 20.7733 262.008 20.8654 262.055C20.9591 262.103 21.0527 262.15 21.1463 262.194C21.24 262.24 21.3352 262.284 21.4303 262.326C21.5255 262.369 21.6222 262.412 21.7189 262.451C21.8156 262.492 21.9124 262.532 22.0106 262.57C22.1089 262.608 22.2071 262.646 22.3054 262.681C22.4051 262.718 22.5034 262.753 22.6047 262.786C22.7045 262.82 22.8058 262.852 22.9071 262.884C23.0084 262.916 23.1098 262.945 23.2126 262.974C23.3155 263.003 23.4183 263.03 23.5212 263.057C23.624 263.083 23.7284 263.109 23.8328 263.134C23.9372 263.158 24.0416 263.181 24.146 263.202C24.2504 263.223 24.3563 263.243 24.4622 263.263C24.5681 263.281 24.674 263.3 24.7815 263.316C24.889 263.333 24.9949 263.348 25.1039 263.361C25.2113 263.374 25.3203 263.386 25.4278 263.397C25.5368 263.408 25.6458 263.418 25.7548 263.426C25.8638 263.434 25.9743 263.441 26.0833 263.447C26.1938 263.453 26.3028 263.456 26.4133 263.459C26.5239 263.463 26.6344 263.464 26.7465 263.464H72.0218C72.1323 263.464 72.2444 263.463 72.3549 263.459H72.3595C72.4654 263.456 72.5714 263.452 72.6773 263.447H72.6865H72.6957C72.8016 263.443 72.9076 263.435 73.0119 263.428H73.015H73.0273C73.124 263.42 73.2207 263.411 73.3159 263.402L73.3558 263.397C73.451 263.388 73.5462 263.376 73.6398 263.364L73.6813 263.359C73.7734 263.347 73.8639 263.335 73.9545 263.321L74.0082 263.313C74.0988 263.3 74.1909 263.284 74.2815 263.268L74.3061 263.263L74.3337 263.258C74.4212 263.243 74.5087 263.226 74.5962 263.208L74.6407 263.199C74.7282 263.181 74.8157 263.163 74.9032 263.143L74.9554 263.131C75.0398 263.111 75.1243 263.089 75.2087 263.068L75.2824 263.05C75.3607 263.03 75.439 263.009 75.5157 262.986L75.594 262.963C75.6692 262.942 75.7445 262.919 75.8197 262.896L75.9225 262.864L76.1052 262.805L76.248 262.756L76.3708 262.713L76.512 262.661L76.6118 262.623L76.6517 262.608L76.8098 262.546L76.9081 262.506L76.9495 262.489L77.1046 262.424L77.2013 262.381L77.2427 262.363L77.3947 262.294L77.4914 262.25L77.5221 262.237L77.6833 262.159L77.7785 262.112L77.7831 262.109L77.9658 262.016L78.0594 261.967L78.0717 261.961L78.2452 261.868L78.3373 261.816L78.3496 261.809L78.52 261.711L78.6105 261.658C82.4054 259.413 84.9629 255.298 84.9629 250.62V199.448C84.9629 199.338 84.9629 199.227 84.9583 199.117C84.9552 199.007 84.9506 198.898 84.946 198.79C84.9398 198.68 84.9337 198.572 84.9245 198.464C84.9168 198.356 84.9061 198.247 84.8953 198.139C84.8846 198.031 84.8723 197.925 84.8585 197.818C84.8447 197.711 84.8293 197.605 84.814 197.498C84.7971 197.392 84.7802 197.287 84.7602 197.181C84.7418 197.076 84.7219 196.971 84.6988 196.868C84.6773 196.764 84.6543 196.659 84.6297 196.557C84.6052 196.455 84.5791 196.351 84.553 196.248C84.5269 196.146 84.4977 196.044 84.4686 195.942C84.4394 195.84 84.4087 195.739 84.378 195.639C84.3457 195.538 84.3135 195.438 84.2797 195.339C84.246 195.24 84.2107 195.141 84.1738 195.042C84.137 194.943 84.1001 194.845 84.0602 194.749C84.0218 194.652 83.9819 194.556 83.9405 194.46C83.899 194.364 83.8576 194.268 83.8146 194.174C83.7716 194.079 83.7271 193.985 83.681 193.89C83.635 193.797 83.5889 193.703 83.5413 193.612C83.4938 193.519 83.4446 193.427 83.394 193.338C83.3433 193.246 83.2927 193.156 83.2405 193.066C83.1883 192.977 83.1345 192.887 83.0808 192.8C83.0271 192.712 82.9718 192.623 82.915 192.538C82.8582 192.451 82.8014 192.364 82.7431 192.279C82.6847 192.194 82.6249 192.109 82.565 192.025C82.5051 191.941 82.4437 191.857 82.3808 191.775C82.3179 191.693 82.2549 191.611 82.192 191.53C82.1275 191.449 82.063 191.368 81.997 191.289C81.931 191.21 81.8635 191.131 81.7959 191.053C81.7284 190.975 81.6593 190.898 81.5902 190.822C81.5211 190.746 81.4505 190.671 81.3784 190.596C81.3062 190.522 81.2341 190.449 81.1619 190.375C81.0882 190.302 81.0145 190.231 80.9393 190.161C80.8641 190.089 80.7889 190.019 80.7121 189.951C80.6354 189.882 80.5586 189.813 80.4788 189.746C80.4005 189.679 80.3222 189.612 80.2408 189.547C80.161 189.481 80.0796 189.416 79.9983 189.352C79.9169 189.288 79.834 189.226 79.7511 189.165C79.6682 189.102 79.5838 189.041 79.4994 188.982C79.4149 188.923 79.329 188.863 79.243 188.805C79.157 188.747 79.0695 188.691 78.982 188.635C78.8945 188.578 78.807 188.524 78.718 188.47C78.629 188.415 78.5399 188.364 78.4493 188.312C78.3588 188.26 78.2682 188.21 78.1761 188.16C78.084 188.109 77.9919 188.062 77.8982 188.013C77.8046 187.966 77.711 187.92 77.6173 187.875C77.5237 187.829 77.4285 187.785 77.3333 187.742C77.2381 187.7 77.1414 187.657 77.0447 187.616C76.948 187.575 76.8513 187.535 76.753 187.497C76.6548 187.459 76.5565 187.421 76.4583 187.384C76.3585 187.348 76.2603 187.313 76.1589 187.279C76.0592 187.246 75.9578 187.214 75.8565 187.182C75.7552 187.15 75.6539 187.119 75.551 187.09C75.4497 187.062 75.3453 187.034 75.2425 187.007C75.1396 186.981 75.0352 186.955 74.9308 186.931C74.8265 186.906 74.7221 186.883 74.6161 186.862C74.5118 186.841 74.4058 186.821 74.2999 186.801C74.194 186.783 74.0881 186.765 73.9806 186.748C73.8732 186.731 73.7672 186.717 73.6598 186.704C73.5523 186.69 73.4433 186.678 73.3359 186.667C73.2269 186.656 73.1179 186.646 73.0089 186.638C72.8999 186.631 72.7909 186.623 72.6804 186.617C72.5714 186.611 72.4608 186.608 72.3503 186.605C72.2398 186.602 72.1293 186.6 72.0172 186.6H26.7465C26.6344 186.6 26.5239 186.6 26.4133 186.605C26.3028 186.608 26.1923 186.612 26.0833 186.617C25.9728 186.623 25.8638 186.629 25.7548 186.638C25.6458 186.646 25.5368 186.656 25.4278 186.667C25.3188 186.678 25.2113 186.69 25.1039 186.704C24.9964 186.717 24.889 186.733 24.7815 186.748C24.674 186.765 24.5681 186.781 24.4622 186.801C24.3563 186.819 24.2504 186.839 24.146 186.862C24.0416 186.883 23.9357 186.906 23.8328 186.931C23.7284 186.955 23.6256 186.979 23.5212 187.007C23.4183 187.033 23.3155 187.062 23.2126 187.09C23.1098 187.119 23.0084 187.15 22.9071 187.182C22.8058 187.214 22.706 187.246 22.6047 187.279C22.5049 187.313 22.4051 187.348 22.3054 187.384C22.2071 187.421 22.1073 187.458 22.0106 187.497C21.9124 187.535 21.8156 187.575 21.7189 187.616C21.6222 187.657 21.5255 187.698 21.4303 187.742C21.3352 187.785 21.24 187.829 21.1463 187.875C21.0527 187.92 20.9575 187.966 20.8654 188.013C20.7733 188.061 20.6797 188.109 20.5891 188.16C20.497 188.21 20.4064 188.26 20.3158 188.312C20.2253 188.364 20.1362 188.417 20.0472 188.47C19.9582 188.525 19.8691 188.578 19.7831 188.635C19.6956 188.691 19.6081 188.747 19.5222 188.805C19.4362 188.863 19.3502 188.923 19.2658 188.982C19.1814 189.041 19.0969 189.102 19.0141 189.165C18.9312 189.227 18.8483 189.29 18.7669 189.352C18.6855 189.416 18.6042 189.48 18.5243 189.545C18.4445 189.611 18.3647 189.678 18.2864 189.745C18.2081 189.812 18.1298 189.88 18.0531 189.949C17.9763 190.018 17.9011 190.088 17.8259 190.159C17.7506 190.231 17.677 190.302 17.6033 190.374C17.5296 190.447 17.4574 190.52 17.3853 190.595C17.3131 190.669 17.2425 190.744 17.1734 190.82C17.1044 190.896 17.0353 190.974 16.9677 191.052C16.9002 191.129 16.8326 191.208 16.7666 191.288C16.7006 191.367 16.6361 191.448 16.5717 191.528C16.5072 191.609 16.4443 191.691 16.3813 191.773C16.3184 191.856 16.257 191.939 16.1971 192.023C16.1372 192.107 16.0774 192.192 16.019 192.278C15.9607 192.363 15.9039 192.448 15.8471 192.536C15.7903 192.623 15.735 192.712 15.6813 192.798C15.6276 192.887 15.5738 192.975 15.5217 193.065C15.4695 193.155 15.4188 193.245 15.3681 193.336C15.3175 193.427 15.2699 193.519 15.2208 193.612C15.1732 193.705 15.1256 193.797 15.0811 193.89C15.035 193.983 14.9905 194.078 14.9475 194.174C14.9045 194.268 14.8616 194.364 14.8216 194.46C14.7802 194.556 14.7403 194.652 14.7019 194.749C14.6635 194.847 14.6251 194.944 14.5898 195.042C14.553 195.139 14.5177 195.238 14.4839 195.339C14.4501 195.438 14.4179 195.538 14.3857 195.639C14.3534 195.739 14.3243 195.84 14.2951 195.942C14.2659 196.044 14.2383 196.146 14.2107 196.248C14.1846 196.35 14.1585 196.453 14.1339 196.557C14.1093 196.661 14.0863 196.764 14.0648 196.868C14.0433 196.971 14.0234 197.076 14.0034 197.181C13.985 197.287 13.9666 197.393 13.9497 197.498C13.9328 197.605 13.919 197.711 13.9052 197.818C13.8914 197.925 13.8791 198.033 13.8683 198.139C13.8576 198.247 13.8468 198.356 13.8392 198.464C13.8315 198.572 13.8238 198.68 13.8177 198.79C13.8115 198.899 13.8085 199.007 13.8054 199.117C13.8023 199.227 13.8008 199.336 13.8008 199.448V250.62Z" fill="white"/>
</mask>
<g mask="url(#mask2_929_2942)">
<path d="M84.9675 186.603H13.8008V263.462H84.9675V186.603Z" fill="#386145"/>
</g>
<path d="M44.1767 277H37V281.646H44.1767V277Z" fill="#2E573B"/>
<path d="M129.517 186.504C136.597 193.584 147.412 188.857 154.28 203.269L146.617 265.107C146.763 265.34 146.907 265.57 147.05 265.796C147.16 265.974 147.271 266.146 147.383 266.316C147.648 266.729 147.914 267.121 148.18 267.488C148.299 267.655 148.421 267.818 148.545 267.975C150.538 270.54 153.316 271.342 155.584 272.085C157.341 272.661 158.703 272.984 159.727 275.457C159.759 275.535 159.782 275.611 159.799 275.689C159.988 276.558 159.256 277.408 158.314 277.311L137.141 274.961C136.095 274.853 135.328 273.992 135.298 272.995C135.295 272.853 135.305 272.71 135.332 272.567L137.492 263.487C137.492 263.487 137.492 263.473 137.501 263.45C140.18 244.901 133.63 224.922 138.68 204.226C138.68 204.226 109.191 183.58 109.35 182.631C109.508 181.686 129.517 186.504 129.517 186.504Z" fill="#F19975"/>
<path d="M137.958 245.923C137.315 233.832 135.576 221.27 137.811 208.408C137.867 208.951 140.801 208.777 140.798 209.357C142.239 222.38 140.836 234.728 137.958 245.923Z" fill="#F09DA1"/>
<path fill-rule="evenodd" clip-rule="evenodd" d="M153.626 270.935C153.626 270.935 163.766 274.006 163.251 276.24C162.214 280.751 135.114 279.082 134.993 277.438C134.916 276.389 135.143 270.914 135.826 268.602C136.07 267.778 136.574 267.09 136.861 267.516C137.366 268.269 137.936 268.927 138.568 269.489C141.787 272.353 146.677 272.778 153.626 270.935Z" fill="black"/>
<path d="M130.337 190.825C130.294 198.802 136.353 202.868 136.312 210.845C138.496 230.566 133.74 255.016 134.205 266.017C134.235 266.696 136.008 272.826 135.945 273.494C134.1 275.943 128.266 279.819 126.488 269.655C127.239 252.168 118.873 232.679 123.407 211.011L115.959 191.103L130.338 190.825H130.337Z" fill="#F19975"/>
<path fill-rule="evenodd" clip-rule="evenodd" d="M113.485 173.9C115.625 187.039 161.877 172.202 156.748 221.927C151.02 224.381 127.131 224.877 117.249 222.384C107.321 205.513 59.3551 230.133 76.5515 174.764C80.5413 165.513 112.011 167.981 113.485 173.902" fill="#7E3F12"/>
<path fill-rule="evenodd" clip-rule="evenodd" d="M108.785 125.183C101.607 133.67 108.445 160.159 111.458 168.829C113.3 173.946 125.343 184.239 139.178 186.297C143.39 186.923 154.191 186.678 156.81 186.297C156.132 184.815 152.434 181.628 148.92 181.095C146.54 180.734 145.911 182.084 142.893 181.445C131.748 179.083 120.97 163.591 120.853 163.071C119.299 152.453 122.15 133.037 112.08 126.379C111.372 125.911 109.403 124.455 108.785 125.185" fill="#F19975"/>
<path fill-rule="evenodd" clip-rule="evenodd" d="M72.5436 125.693C68.4771 142.158 78.3632 144.8 74.6728 178.04C86.8755 179.721 111.341 179.885 115.974 177.245C114.294 165.014 116.427 153.901 116.913 147.225C117.645 137.179 113.68 129.175 108.042 123.223C102.652 117.533 79.2106 116.46 72.5436 125.695" fill="#F47920"/>
<path fill-rule="evenodd" clip-rule="evenodd" d="M99.5344 115.825L99.582 119.889L100.175 120.397C102.491 122.893 99.9289 127.97 97.2716 127.795C90.5478 128.078 85.4266 122.574 87.4684 119.62L88.3526 118.656L88.5875 112.907C88.2405 112.885 85.7275 111.445 84.9769 111.21C84.2277 110.976 83.1347 109.532 83.0718 108.015C83.0088 106.498 85.3668 107.005 85.3668 107.005C82.5329 103.102 79.3153 99.907 83.5415 96.4392C87.7662 92.97 97.4298 90.9963 97.4298 90.9963L103.251 89.0393C102.497 91.0222 102.724 95.2818 104.186 99.4333C106.263 105.335 104.517 113.361 99.5359 115.826" fill="#F19975"/>
<path fill-rule="evenodd" clip-rule="evenodd" d="M91.3164 113.723C91.3164 113.723 94.5617 119.335 97.2573 119.859C99.9515 120.385 98.576 120.001 99.5815 119.888L99.5339 115.823C97.6733 116.107 95.8542 115.948 91.3164 113.722" fill="#E78F6B"/>
<path fill-rule="evenodd" clip-rule="evenodd" d="M72.5456 125.693C64.5262 133.404 65.2308 157.29 67.3308 166.222C68.6326 171.499 80.1276 182.412 93.6766 185.871C97.8015 186.923 108.475 186.684 111.119 186.571C110.597 185.028 107.249 181.48 103.81 180.591C101.48 179.987 100.714 181.268 97.7784 180.324C86.9374 176.838 77.3337 161.982 77.2723 161.452C76.8271 150.732 81.6151 134.31 75.6988 127.218C75.1569 126.569 73.2349 125.031 72.5456 125.695" fill="#F19975"/>
<path fill-rule="evenodd" clip-rule="evenodd" d="M139.168 277.315C139.171 280.26 126.888 278.925 125.23 278.133C122.767 276.956 125.757 267.588 126.716 268.566C126.716 268.566 128.982 272.582 132.229 271.52C135.476 270.459 134.74 268.898 135.367 269.968C136.537 271.974 139.163 274.6 139.169 277.315" fill="black"/>
<path fill-rule="evenodd" clip-rule="evenodd" d="M75.581 186.603C70.4184 186.603 66.1953 190.793 66.1953 195.914V254.151C66.1953 259.273 70.4184 263.462 75.581 263.462H84.7258C84.8578 263.462 84.9668 263.356 84.9668 263.223V195.914C84.9668 190.793 80.7437 186.603 75.581 186.603Z" fill="#426B4F"/>
<mask id="mask3_929_2942" style="mask-type:luminance" maskUnits="userSpaceOnUse" x="66" y="86" width="41" height="49">
<path d="M93.7554 86.8099C89.4955 87.4495 84.9239 90.1603 82.4278 94.8616C78.722 101.838 80.3723 109.541 72.3589 110.3C70.1913 110.505 66.9783 112.962 69.5358 117.163C68.0176 117.809 64.9919 120.281 68.0882 125.023C65.3849 127.356 67.6077 134.718 67.9623 134.336C68.9955 130.737 70.4799 127.679 72.5447 125.693C75.5504 121.53 81.9672 119.462 88.602 118.968C88.579 116.824 88.7847 113.798 88.6849 112.68C88.6849 112.68 86.8244 111.669 86.7445 109.358C86.6125 107.537 87.5766 107.855 90.2815 108.838C89.8501 105.294 90.6131 104.095 91.2117 103.472C91.8734 102.784 92.9725 102.498 97.125 102.146C99.3939 101.954 101.815 101.34 103.207 100.701C110.032 97.5694 105.963 84.9778 93.7554 86.8083" fill="white"/>
</mask>
<g mask="url(#mask3_929_2942)">
<path d="M110.031 84.9792H64.9922V134.72H110.031V84.9792Z" fill="#17081B"/>
</g>
<path fill-rule="evenodd" clip-rule="evenodd" d="M296.387 270.634L319.734 262.87L342.311 270.634V277.988L335.845 277.973L335.835 273.281L303.892 273.34V277.988H296.387V270.634Z" fill="#2E573B"/>
<path fill-rule="evenodd" clip-rule="evenodd" d="M305.854 208.437H259.151C256.64 208.437 254.586 210.475 254.586 212.966C254.586 215.458 256.64 217.497 259.151 217.497H305.854C308.366 217.497 310.42 215.46 310.42 212.968C310.42 210.476 308.366 208.437 305.854 208.437Z" fill="#2E573B"/>
<mask id="mask4_929_2942" style="mask-type:luminance" maskUnits="userSpaceOnUse" x="306" y="138" width="57" height="71">
<path d="M319.966 138.023H362.669L351.929 208.605L309.226 208.643C309.061 208.643 308.895 208.631 308.726 208.605C306.967 208.605 305.792 206.7 306.067 204.977L316.31 140.661C316.584 138.938 318.208 138.023 319.966 138.023Z" fill="white"/>
</mask>
<g mask="url(#mask4_929_2942)">
<path d="M362.671 138.023H305.793V208.644H362.671V138.023Z" fill="#2E573B"/>
</g>
<mask id="mask5_929_2942" style="mask-type:luminance" maskUnits="userSpaceOnUse" x="296" y="138" width="70" height="80">
<path d="M359.514 140.661L348.663 208.437H301.282C298.77 208.437 296.715 210.477 296.715 212.968C296.715 215.46 298.769 217.499 301.282 217.499H349.02C351.531 217.499 353.585 215.461 353.585 212.968C353.585 212.851 353.58 212.734 353.571 212.618C354.196 212.175 354.641 211.532 354.775 210.701L365.829 141.652C366.105 139.93 364.929 138.025 363.17 138.025C361.411 138.025 359.788 138.94 359.514 140.662" fill="white"/>
</mask>
<g mask="url(#mask5_929_2942)">
<path d="M366.107 138.023H296.717V217.497H366.107V138.023Z" fill="#386145"/>
</g>
<path fill-rule="evenodd" clip-rule="evenodd" d="M266.384 270.701L263.891 262.236L271.304 260.269L273.754 268.965L266.384 270.701Z" fill="#F8A98E"/>
<path fill-rule="evenodd" clip-rule="evenodd" d="M310.631 184.258L293.552 181.044C293.552 181.044 250.317 183.269 241.239 200.066C232.161 216.861 262.445 264.053 262.445 264.053L273.63 262.698C273.63 262.698 267.395 232.817 264.476 223.874C261.556 214.931 259.789 209.997 259.827 209.989L263.194 209.246L308.537 193.391L310.632 184.258H310.631Z" fill="#DADDDC"/>
<path fill-rule="evenodd" clip-rule="evenodd" d="M310.631 184.258L304.21 185.732C299.276 185.822 278.395 189.293 274.812 190.059C262.672 192.652 261.828 199.778 263.193 209.246L272.716 207.964L308.535 193.391L310.631 184.258Z" fill="#C6C9C8"/>
<path fill-rule="evenodd" clip-rule="evenodd" d="M282.904 268.322L282.172 260.653L289.93 260.837L289.855 269.62L282.904 268.322Z" fill="#F8A98E"/>
<path fill-rule="evenodd" clip-rule="evenodd" d="M282.522 267.023C280.33 270.931 276.758 274.668 279.547 277.988H293.748C293.771 277.924 293.796 277.856 293.817 277.783C293.956 277.327 294.617 277.139 294.174 275.474C293.351 272.384 290.931 267.634 290.101 267.389C288.452 266.904 286.113 268.269 282.524 267.023" fill="#17081B"/>
<path fill-rule="evenodd" clip-rule="evenodd" d="M278.487 275.404V275.41C278.455 276.449 278.562 277.365 279.546 277.988H293.748C294.48 277.566 294.674 277.275 294.173 275.474L278.487 275.404Z" fill="#2B1C2F"/>
<path fill-rule="evenodd" clip-rule="evenodd" d="M288.16 266.641H284.872C284.419 266.641 284.051 267.008 284.051 267.457V271.653C284.051 272.102 284.421 272.469 284.872 272.469H288.16C288.613 272.469 288.982 272.102 288.982 271.653V267.457C288.982 267.008 288.612 266.641 288.16 266.641Z" fill="#2B1C2F"/>
<path fill-rule="evenodd" clip-rule="evenodd" d="M333.353 185.635C333.353 185.635 335.136 202.271 326.122 206.554C317.106 210.836 288.977 211.29 288.977 211.29C294.648 232.41 289.734 244.916 291.596 263.769L279.375 263.831C279.375 263.831 271.859 230.229 269.077 211.183C267.674 201.574 267.379 193.935 279.648 191.312C283.774 190.43 310.63 184.258 310.63 184.258L333.353 185.635Z" fill="#DADDDC"/>
<path fill-rule="evenodd" clip-rule="evenodd" d="M342.776 126.622C346.783 142.841 332.9 159.23 334.063 191.514C322.042 193.171 290.46 186.734 289.904 181.323C291.368 170.659 293.372 162.752 293.986 156.507C292.976 157.509 291.807 158.477 290.449 159.39C278.794 167.225 247.157 168.197 247.97 164.085C248.063 163.62 251.274 161.799 252.964 161.67C254.383 161.56 258.112 161.931 259.513 161.567C266.128 159.857 273.905 157.264 284.683 148.351C288.056 145.563 291.875 126.802 301.462 121.912C313.953 116.148 332.19 116.869 342.775 126.622" fill="#FEB547"/>
<path fill-rule="evenodd" clip-rule="evenodd" d="M293.988 156.507C292.978 157.509 291.81 158.477 290.451 159.39C288.513 160.693 286.02 161.805 283.215 162.737C284.372 162.027 286.084 160.623 289.059 157.882C292.034 155.141 295.16 147.002 295.16 147.002L293.988 156.505V156.507Z" fill="#F4AB3D"/>
<path fill-rule="evenodd" clip-rule="evenodd" d="M305.74 161.14L331.731 157.183L333.618 147.295L336.974 144.135C336.974 144.135 341.066 153.519 340.99 154.095C340.913 154.669 336.946 162.818 337.167 162.867C337.388 162.915 321.644 165.28 320.37 165.357C319.096 165.433 305.74 161.138 305.74 161.138" fill="#F4AB3D"/>
<path fill-rule="evenodd" clip-rule="evenodd" d="M340.818 124.985C350.058 130.026 348.729 157.474 345.218 164.639C343.897 169.994 321.879 168.794 305.624 168.154C303.719 166.188 302.303 163.785 304.852 161.193C315.232 159.301 333.106 159.303 333.165 158.781C333.603 148.221 333.879 133.448 335.82 126.711C336.05 125.913 339.991 124.533 340.818 124.985Z" fill="#FEB547"/>
<path fill-rule="evenodd" clip-rule="evenodd" d="M305.625 168.153C296.973 167.812 289.601 167.253 287.133 167.148C287.647 165.628 288.551 162.233 291.941 161.357C293.92 160.846 297.782 161.533 305.625 161.983C307.169 165.445 306.207 166.188 305.625 168.153Z" fill="#F19975"/>
<path d="M200.066 174.072H193.6V277.988H200.066V174.072Z" fill="#426B4F"/>
<path d="M194.825 174.072H193.6V277.988H194.825V174.072Z" fill="#426B4F"/>
<path fill-rule="evenodd" clip-rule="evenodd" d="M172.522 166.187H307.231V174.765H172.522C170.144 174.765 168.199 172.836 168.199 170.477C168.199 168.118 170.144 166.188 172.522 166.188" fill="#2E573B"/>
<path fill-rule="evenodd" clip-rule="evenodd" d="M171.822 166.187H306.208V170.475H168.199C168.199 168.116 169.83 166.187 171.822 166.187Z" fill="#2E573B"/>
<path fill-rule="evenodd" clip-rule="evenodd" d="M302.938 166.187H364.356C366.734 166.187 368.679 168.116 368.679 170.475C368.679 172.834 366.734 174.764 364.356 174.764H336.958V277.987H330.172V174.764H302.936C300.558 174.764 298.613 172.834 298.613 170.475C298.613 168.116 300.558 166.187 302.936 166.187" fill="#426B4F"/>
<path fill-rule="evenodd" clip-rule="evenodd" d="M264.567 266.789C264.567 266.789 254.338 270.957 250.929 272.614C248.28 273.901 246.781 276.608 248.956 277.988H275.449C275.472 277.926 275.495 277.857 275.518 277.783C275.911 276.484 276.941 267.206 274.186 267.411C272.476 267.539 268.395 268.744 264.568 266.789" fill="#17081B"/>
<path fill-rule="evenodd" clip-rule="evenodd" d="M247.898 275.41V275.416L247.921 276.464C247.961 277.288 248.255 277.544 248.959 277.99H275.574C275.597 277.927 275.62 277.857 275.643 277.784C275.719 277.531 275.908 276.211 276 275.48L247.898 275.41Z" fill="#2B1C2F"/>
<path fill-rule="evenodd" clip-rule="evenodd" d="M263.437 267.262C259.753 268.782 253.577 271.356 251.041 272.557C252.367 273.572 253.632 273.371 253.632 273.371C253.632 273.371 260.826 271.144 262.872 269.705C264.08 268.854 263.838 267.9 263.437 267.262Z" fill="#2B1C2F"/>
<path d="M322.745 217.497H315.949V268.657H322.745V217.497Z" fill="#2E573B"/>
<path fill-rule="evenodd" clip-rule="evenodd" d="M243.016 162.423H291.383V164.306C291.383 165.341 290.529 166.187 289.487 166.187H244.913C243.871 166.187 243.017 165.34 243.017 164.306V162.423H243.016Z" fill="#E4E7E6"/>
<path fill-rule="evenodd" clip-rule="evenodd" d="M223.413 134.048H261.499C263.002 134.048 263.949 135.309 264.23 136.789L269.161 162.761H225.992L221.06 136.409C220.822 135.132 222.117 134.048 223.411 134.048" fill="#E4E7E6"/>
<mask id="mask6_929_2942" style="mask-type:luminance" maskUnits="userSpaceOnUse" x="219" y="134" width="50" height="33">
<path d="M222.107 134.048H260.194C261.695 134.048 262.644 135.309 262.925 136.789L267.792 162.423H267.857L268.17 164.306C268.339 165.326 267.315 166.188 266.273 166.188H226.817C225.775 166.188 225.075 165.331 224.921 164.306L224.688 162.761L219.757 136.41C219.519 135.134 220.815 134.05 222.109 134.05" fill="white"/>
</mask>
<g mask="url(#mask6_929_2942)">
<path d="M268.339 134.048H219.518V166.187H268.339V134.048Z" fill="#EEF1F0"/>
</g>
<path fill-rule="evenodd" clip-rule="evenodd" d="M242.556 148.231C243.674 147.966 244.835 148.809 245.149 150.112C245.464 151.416 244.813 152.689 243.695 152.954C242.578 153.219 241.417 152.377 241.103 151.073C240.788 149.77 241.439 148.498 242.556 148.231Z" fill="#E4E7E6"/>
<path d="M327.732 132.639C327.816 132.161 328.168 129.581 327.979 126.657C327.852 124.693 327.48 122.581 326.616 120.884C325.787 119.254 324.491 118.003 322.497 117.654C321.965 117.561 321.38 117.529 320.739 117.57C307.887 118.391 305.1 129.941 302.941 140.571L302.756 141.482L301.707 141.271L301.891 140.361C304.119 129.386 307 117.38 320.669 116.507C321.396 116.46 322.066 116.496 322.68 116.605C325.064 117.022 326.599 118.494 327.572 120.407C328.512 122.253 328.912 124.504 329.048 126.587C329.244 129.623 328.876 132.321 328.787 132.821L327.729 132.638L327.732 132.639Z" fill="#006294"/>
<path d="M320.598 151.23C324.007 152.16 326.474 152.068 328.309 150.761C330.125 149.469 331.265 147.013 332.044 143.207L331.256 143.05C330.521 146.651 329.475 148.95 327.84 150.114C326.225 151.263 323.975 151.323 320.81 150.459L320.598 151.231V151.23Z" fill="white"/>
<path d="M327.345 152.578C323.837 152.127 321.6 151.094 320.417 149.186C319.245 147.298 319.152 144.594 319.919 140.787L320.707 140.944C319.981 144.547 320.048 147.068 321.103 148.769C322.144 150.449 324.196 151.368 327.451 151.786L327.345 152.578Z" fill="white"/>
<path d="M327.298 132.172C323.021 131.838 320.725 136.026 319.796 139.698C319.644 140.298 319.541 140.661 319.622 140.95C319.862 141.809 320.949 141.533 321.039 140.987C321.589 137.686 323.775 132.709 327.891 133.565C327.914 133.57 327.92 133.571 327.941 133.574C328.032 133.591 329.102 133.797 330.009 134.928C330.932 136.078 331.836 138.408 330.909 142.977C330.847 143.28 331.039 143.582 331.351 143.711L331.366 143.717L331.383 143.723L331.398 143.729L331.414 143.735H331.417H331.418C331.435 143.742 331.452 143.746 331.47 143.751H331.472L331.483 143.754C331.483 143.754 331.483 143.754 331.484 143.754C331.484 143.754 331.484 143.754 331.486 143.754H331.487C331.891 143.834 332.276 143.615 332.347 143.263C333.173 139.197 332.766 136.131 331.14 134.153C330.12 132.91 328.813 132.286 327.275 132.166" fill="#006294"/>
<path d="M329.013 152.39C329.064 152.042 328.82 151.719 328.468 151.668L327.265 151.6C326.883 151.639 326.866 151.833 326.82 152.077C326.781 152.342 326.754 152.535 327.141 152.683L328.287 152.929C328.639 152.98 328.964 152.737 329.013 152.389" fill="#006294"/>
<path d="M319.131 150.418C319.22 150.078 319.572 149.873 319.914 149.963L321.05 150.362C321.388 150.545 321.328 150.729 321.276 150.972C321.208 151.231 321.159 151.42 320.745 151.408L319.592 151.195C319.248 151.106 319.042 150.759 319.133 150.418" fill="#006294"/>
<path d="M300.301 140.766C300.093 142.129 300.872 143.378 302.044 143.554C303.215 143.731 304.336 142.772 304.544 141.409C304.753 140.046 303.973 138.797 302.802 138.62C301.631 138.443 300.51 139.404 300.301 140.766Z" fill="#006294"/>
<path d="M300.538 140.764C300.412 141.579 300.879 142.325 301.579 142.432C302.279 142.538 302.948 141.963 303.074 141.148C303.2 140.333 302.733 139.587 302.032 139.482C301.332 139.375 300.662 139.951 300.537 140.764" fill="white"/>
<path fill-rule="evenodd" clip-rule="evenodd" d="M307.076 110.313C308.656 113.009 310.299 114.947 312.563 115.858L312.845 120.171C311.63 122.982 311.869 125.543 315.698 125.967C326.123 125.844 324.406 118.746 324.294 118.415L322.917 112.474C323.261 112.433 326.064 110.756 326.797 110.484C327.529 110.21 328.539 108.716 328.519 107.203C328.499 105.691 326.181 106.322 326.181 106.322C328.788 102.286 331.815 98.9338 327.421 95.7098C323.029 92.4857 313.308 91.039 313.308 91.039L307.41 89.4033C308.266 91.3359 307.692 97.9911 306.462 102.201C305.362 105.976 304.956 106.69 307.078 110.309" fill="#F19975"/>
<path fill-rule="evenodd" clip-rule="evenodd" d="M316.4 125.951C317.846 127.25 320.054 129.048 321.502 130.347C324.191 127.168 325.548 124.833 326.675 121.013C326.449 120.56 326.198 120.127 325.918 119.726C325.453 119.059 324.908 118.479 324.266 118.033C323.109 120.716 320.861 123.68 316.4 125.952" fill="#F4AB3D"/>
<path fill-rule="evenodd" clip-rule="evenodd" d="M316.4 125.951C315.14 127.394 312.963 128.666 311.704 130.108C310.901 127.576 310.728 125.258 311.091 122.21C311.607 121.667 312.269 120.916 312.846 120.173C313.385 122.317 314.899 124.466 316.401 125.951" fill="#F4AB3D"/>
<path fill-rule="evenodd" clip-rule="evenodd" d="M320.623 113.327C318.928 116.667 317.029 120.41 312.843 120.173L312.561 115.86C314.427 116.043 316.228 115.787 320.621 113.329" fill="#E78F6B"/>
<mask id="mask7_929_2942" style="mask-type:luminance" maskUnits="userSpaceOnUse" x="303" y="84" width="30" height="28">
<path d="M308.239 98.3187C313.257 100.379 318.565 97.0272 321.64 100.078C323.163 101.588 323.215 103.941 321.955 107.682C321.734 108.338 323.407 108.236 323.433 108.222C324.235 107.773 324.909 107.545 325.409 107.881C326.519 108.632 326.138 110.431 325.352 111.063C325.002 111.344 324.33 111.778 324.33 111.778C330.71 110.038 332.934 104.019 332.46 99.3573C332.299 97.7765 332.005 96.383 331.6 95.1571C331.698 94.7154 331.732 94.2509 331.694 93.7758C331.528 91.7488 330.085 90.1421 328.26 89.7476C327.755 87.6566 325.857 86.184 323.73 86.356C323.089 86.4078 322.494 86.6043 321.969 86.9104L321.751 86.8723C320.864 85.6098 319.331 84.8346 317.66 84.9702C316.488 85.0646 315.457 85.59 314.714 86.3728C313.403 84.8758 311.535 84.0046 309.536 84.1645C305.981 84.4509 303.36 87.8988 303.686 91.866C303.89 94.3484 305.198 96.4455 307.02 97.5968C307.391 97.8709 307.797 98.1146 308.239 98.3217" fill="white"/>
</mask>
<g mask="url(#mask7_929_2942)">
<path d="M332.933 84H303.359V111.778H332.933V84Z" fill="#17081B"/>
</g>
<path d="M99.2894 103.788C99.5027 103.993 99.4873 104.258 99.2445 104.584C99.2082 104.634 99.1653 104.647 99.1151 104.627C97.8871 104.125 97.3789 104.045 96.229 105.018C96.1316 105.1 96.0055 105.004 96.0492 104.881C96.521 103.56 98.289 102.824 99.2888 103.786L99.2894 103.788Z" fill="#17081B"/>
<path d="M103.61 105.238C102.793 104.602 101.689 104.297 100.947 105.194C100.906 105.246 100.885 105.237 100.886 105.171C100.93 103.173 103.422 103.595 103.797 105.104C103.825 105.218 103.701 105.309 103.61 105.239L103.61 105.238Z" fill="#17081B"/>
<path d="M101.896 107.095C101.725 106.995 101.641 106.71 101.708 106.447C101.851 105.879 102.074 105.764 102.372 106.1C102.555 106.309 102.562 106.717 102.388 106.965C102.249 107.162 102.085 107.205 101.896 107.095Z" fill="#17081B"/>
<path d="M98.8105 106.334C98.7897 106.677 98.4971 106.936 98.1555 106.915C97.8139 106.894 97.5549 106.601 97.5757 106.259C97.5965 105.917 97.8891 105.657 98.2307 105.678C98.5722 105.699 98.8313 105.992 98.8105 106.334Z" fill="#17081B"/>
<path d="M99.9897 112.459C98.8742 112.618 97.7735 112.32 97.0925 111.798C97.036 111.755 97.0591 111.744 97.1594 111.765C98.2438 111.992 99.3344 112.131 100.432 112.183C100.518 112.187 100.549 112.205 100.525 112.237C100.444 112.346 100.264 112.419 99.9886 112.459L99.9897 112.459Z" fill="#FDFDFD"/>
</g>
<defs>
<clipPath id="clip0_929_2942">
<rect width="391" height="196" fill="white" transform="translate(0 84)"/>
</clipPath>
</defs>
</svg>
