<svg width="360" height="360" viewBox="0 0 360 360" fill="none" xmlns="http://www.w3.org/2000/svg">
<circle cx="180" cy="180" r="180" fill="#F8FBFA"/>
<g clip-path="url(#clip0_929_2941)">
<path fill-rule="evenodd" clip-rule="evenodd" d="M165.916 184.27C155.095 208.04 138.593 232.385 116.865 235.848C91.7416 239.594 62.6657 183.481 59.0513 175.761C55.4385 168.042 70.7907 153.195 75.2217 155.53C79.6512 157.862 112.167 199.382 114.437 196.939C115.721 195.558 128.207 146.126 152.264 132.235C156.015 130.068 170.571 174.046 165.918 184.271" fill="#EEF1F0"/>
<path fill-rule="evenodd" clip-rule="evenodd" d="M160.611 55.4658C166.459 98.1668 137.788 111.344 165.86 150.834C165.86 150.834 183.054 131.893 190.418 130.556C197.782 129.217 198.76 106.047 198.76 104.858C198.76 103.668 192.207 57.4741 192.207 57.4741L160.609 55.4658H160.611Z" fill="#17081B"/>
<path fill-rule="evenodd" clip-rule="evenodd" d="M225.889 125.645C241.17 125.645 254.271 130.334 263.52 139.901C274.311 151.065 240.128 215.2 236.974 246.079C236.307 252.612 243.755 276.606 246.41 316.068C202.966 316.068 161.892 316.068 118.449 316.068C125.435 277.322 131.688 244.838 133.055 229.075C137.56 177.1 130.417 193.928 136.027 151.834C140.314 145.081 143.534 137.176 153.426 131.54C170.786 121.649 204.684 125.645 225.889 125.645Z" fill="#EEF1F0"/>
<path fill-rule="evenodd" clip-rule="evenodd" d="M249.157 203.104C245.32 213.788 241.68 224.365 239.346 233.578C239.66 230.054 240.004 224.8 240.099 217.995C240.285 204.589 239.049 191.621 239.049 191.621L249.047 201.32L249.158 203.106L249.157 203.104Z" fill="#E4E7E6"/>
<path fill-rule="evenodd" clip-rule="evenodd" d="M183.23 125.036C164.257 135.304 153.87 239.521 150.984 316.068H197.51C191.294 206.082 213.629 150.465 224.868 125.641C209.432 124.622 202.395 123.409 183.231 125.036" fill="#386145"/>
<path d="M216.998 166.026C217.459 164.781 219.653 158.004 220.569 150.042C221.186 144.69 222.088 138.009 220.611 133.024C219.192 128.236 216.345 124.242 211.194 122.336C209.817 121.827 208.274 121.46 206.547 121.261C171.855 117.257 156.377 154.925 145.442 182.5L144.504 184.861L141.807 183.791L142.744 181.43C154.031 152.966 169.98 114.112 206.876 118.368C208.843 118.596 210.609 119.016 212.195 119.602C218.352 121.881 221.734 126.584 223.399 132.204C225.005 137.624 224.114 144.7 223.461 150.373C222.509 158.64 220.212 165.724 219.729 167.029L216.998 166.027V166.026Z" fill="#17081B"/>
<path fill-rule="evenodd" clip-rule="evenodd" d="M162.497 97.7804C161.884 105.634 176.431 121.288 184.185 120.377V126.635L183.069 128.144C176.524 141.055 183.563 151.023 190.329 154.506C200.917 150.705 215.934 138.972 216.172 125.455L215.484 124.621L214.949 106.618C215.748 106.383 215.932 102.571 217.559 101.622C219.186 100.674 220.975 96.6944 220.315 93.085C219.656 89.4755 214.416 91.9163 214.416 91.9163C218.963 81.2168 224.785 71.9865 213.068 66.0397C201.35 60.0913 177.716 60.5381 177.716 60.5381L164.407 59.4235C168.238 65.2494 163.924 88.7155 162.499 97.782" fill="#F19975"/>
<path fill-rule="evenodd" clip-rule="evenodd" d="M181.578 120.509C182.466 120.491 183.337 120.447 184.187 120.377C191.215 120.257 199.11 115.122 204.205 111.549C204.205 111.549 199.475 125.839 193.457 128.497C187.439 131.157 186.597 130.815 184.185 131.083V120.377L181.659 120.436L181.576 120.51L181.578 120.509Z" fill="#F19975"/>
<path fill-rule="evenodd" clip-rule="evenodd" d="M229.137 165.479C223.556 153.986 229.822 141.958 241.65 136.902C252.352 129.761 262.106 135.5 267.687 146.993C286.86 186.472 276.303 318 274.301 318C266.127 318 254.103 316.073 254.103 316.073C252.003 269.691 249.742 207.912 229.136 165.48" fill="#EEF1F0"/>
<path fill-rule="evenodd" clip-rule="evenodd" d="M75.2677 157.805C75.549 165.186 66.6281 174.804 61.2501 176.261C60.8005 175.172 57.9026 170.338 56.0406 166.666C52.0401 158.781 65.3857 144.919 68.3551 148.708L75.2677 157.803V157.805Z" fill="#386145"/>
<path d="M237.832 285.021H208.91V289.88H237.832V285.021Z" fill="#E4E7E6"/>
<path d="M191.258 213.088C199.904 217.243 206.529 218.183 212.061 215.554C217.536 212.954 221.775 206.895 225.704 197.024L223.678 196.219C219.962 205.554 216.054 211.239 211.124 213.579C206.254 215.893 200.218 214.967 192.197 211.112L191.258 213.086V213.088Z" fill="#D0D2D3"/>
<path d="M208.602 219.976C199.461 217.068 193.994 213.206 191.767 207.497C189.562 201.85 190.628 194.527 194.528 184.647L196.554 185.451C192.863 194.798 191.816 201.617 193.801 206.704C195.761 211.729 200.788 215.196 209.269 217.895L208.6 219.976H208.602Z" fill="#D0D2D3"/>
<path d="M218.41 165.024C207.16 162.057 198.996 172.22 194.727 181.657C194.031 183.197 193.578 184.127 193.653 184.944C193.873 187.374 196.905 187.156 197.415 185.728C200.487 177.11 208.744 164.771 219.308 169.064C219.365 169.088 219.384 169.096 219.44 169.113C219.675 169.203 222.43 170.276 224.298 173.756C226.2 177.298 227.479 184.006 222.781 195.858C222.469 196.642 222.833 197.547 223.602 198.046L223.642 198.072L223.683 198.097L223.723 198.121H223.726L223.764 198.145L223.771 198.148H223.775C223.818 198.173 223.863 198.194 223.907 198.215H223.914L223.941 198.229C223.941 198.229 223.944 198.231 223.945 198.232C223.945 198.232 223.949 198.232 223.95 198.234H223.955C223.955 198.234 223.955 198.237 223.957 198.237H223.96H223.961H223.963H223.965H223.966L223.968 198.239C223.968 198.239 223.968 198.239 223.969 198.239H223.972C223.972 198.239 223.974 198.239 223.976 198.239C223.976 198.239 223.977 198.239 223.979 198.239C223.979 198.239 223.98 198.239 223.982 198.239H223.984H223.985C225.023 198.65 226.159 198.247 226.519 197.335C230.701 186.787 231.111 178.339 227.735 172.227C225.614 168.387 222.433 166.075 218.388 165.006" fill="#17081B"/>
<path d="M213.147 220.28C213.451 219.367 212.958 218.38 212.046 218.076L208.867 217.311C207.828 217.232 207.688 217.744 207.447 218.378C207.216 219.071 207.046 219.579 208.006 220.165L210.945 221.383C211.857 221.687 212.844 221.194 213.147 220.281" fill="#17081B"/>
<path d="M187.739 210.191C188.143 209.318 189.179 208.938 190.051 209.342L192.89 210.967C193.702 211.622 193.453 212.091 193.194 212.718C192.887 213.381 192.663 213.866 191.562 213.635L188.588 212.504C187.716 212.101 187.336 211.065 187.739 210.191Z" fill="#17081B"/>
<path d="M136.114 185.701C134.891 189.269 136.365 193.006 139.406 194.049C142.447 195.092 145.902 193.047 147.124 189.479C148.346 185.912 146.873 182.174 143.832 181.131C140.791 180.088 137.336 182.134 136.114 185.701Z" fill="#17081B"/>
<path d="M136.322 185.809C135.467 188.304 136.498 190.918 138.624 191.648C140.75 192.378 143.166 190.947 144.021 188.452C144.876 185.957 143.845 183.343 141.719 182.615C139.593 181.885 137.177 183.316 136.322 185.811" fill="#A6A8AB"/>
<path d="M136.65 185.838C136.074 187.515 136.767 189.271 138.197 189.762C139.627 190.253 141.251 189.291 141.826 187.614C142.399 185.938 141.707 184.181 140.278 183.689C138.848 183.2 137.225 184.16 136.651 185.838" fill="#EEF1F0"/>
<path fill-rule="evenodd" clip-rule="evenodd" d="M124.502 285.272L140.161 285.188V290.047H123.521L124.502 285.272Z" fill="#E4E7E6"/>
<path fill-rule="evenodd" clip-rule="evenodd" d="M62.016 142.892C63.975 135.498 61.1279 136.215 63.1965 128.696C63.4332 127.831 65.2619 125.633 63.0519 125.668C58.9862 125.73 55.34 132.556 55.4942 133.58C53.2127 134.258 34.0777 122.048 32.6891 123.35C27.6035 128.122 31.067 142.658 32.3332 143.475C33.8727 144.469 45.2117 150.391 45.9965 151.001C50.9376 154.836 53.845 159.306 57.0877 164.197C59.3215 162.876 65.184 157.511 66.7998 150.236L62.016 142.893V142.892Z" fill="#F19975"/>
<path fill-rule="evenodd" clip-rule="evenodd" d="M37.0582 99.4308H56.4872C58.2682 99.4308 59.725 101.048 59.725 103.026V147.672C59.725 149.65 58.2682 151.267 56.4872 151.267H37.0582C35.2772 151.267 33.8203 149.648 33.8203 147.672V103.026C33.8203 101.048 35.2772 99.4308 37.0582 99.4308Z" fill="#17081B"/>
<path fill-rule="evenodd" clip-rule="evenodd" d="M37.4597 101.994C36.5699 101.994 35.8359 102.826 35.8359 103.834V144.151C35.8359 145.159 36.5699 145.991 37.4597 145.991H56.0863C56.976 145.991 57.71 145.159 57.71 144.151V103.834C57.71 102.826 56.976 101.994 56.0863 101.994H37.4597Z" fill="#EEF1F0"/>
<path fill-rule="evenodd" clip-rule="evenodd" d="M46.6114 147.303C45.8408 147.303 45.2148 147.929 45.2148 148.7C45.2148 149.471 45.8408 150.098 46.6114 150.098C47.3819 150.098 48.0079 149.471 48.0079 148.7C48.0079 147.929 47.3819 147.303 46.6114 147.303Z" fill="#EEF1F0"/>
<path fill-rule="evenodd" clip-rule="evenodd" d="M92.0273 23C109.426 23 123.529 37.1149 123.529 54.5276C123.529 71.9403 109.426 86.0553 92.0273 86.0553C74.6288 86.0553 60.5254 71.9403 60.5254 54.5276C60.5254 37.1149 74.6288 23 92.0273 23Z" fill="#C80000"/>
<path fill-rule="evenodd" clip-rule="evenodd" d="M85.2266 37.1277H97.9669V48.4107H109.241V61.1614H97.9669V72.4444H85.2266V61.1614H73.9512V48.4107H85.2266V37.1277Z" fill="white"/>
<path fill-rule="evenodd" clip-rule="evenodd" d="M198.339 74.6275C198.339 74.6275 172.974 79.606 159.05 71.1612C149.918 64.8232 150.901 49.8974 164.287 40.4318C181.528 28.2392 210.23 31.3191 222.92 50.7496C227.349 57.5312 231.383 69.6045 236.64 81.619C248.861 109.552 270.514 107.17 274.891 133.275C275.257 135.455 273.819 132.682 266.933 130.916C274.944 141.19 270.173 149.686 270.006 152.591C263.333 132.292 249.794 128.138 215.488 124.616C215.027 118.911 213.452 108.135 213.432 104.573C213.432 104.573 218.764 101.945 218.413 96.1028C218.061 90.2609 214.199 92.0513 213.532 92.1913C212.863 92.3312 207.792 97.2556 207.792 97.2556C207.881 89.8602 208.685 75.4671 198.34 74.6243" fill="#17081B"/>
<path d="M178.69 80.53C179.383 81.1953 179.333 82.0572 178.544 83.1173C178.426 83.2785 178.287 83.3235 178.124 83.2564C174.133 81.6254 172.481 81.3656 168.744 84.5289C168.427 84.7938 168.017 84.4838 168.159 84.084C169.693 79.7902 175.439 77.3992 178.688 80.5243L178.69 80.53Z" fill="#17081B"/>
<path d="M193.799 85.8095C191.608 83.2567 188.289 81.5724 185.346 83.9465C185.183 84.0867 185.12 84.0452 185.166 83.8353C186.597 77.501 194.262 80.4565 194.481 85.505C194.496 85.885 194.042 86.0968 193.797 85.8137L193.799 85.8095Z" fill="#17081B"/>
<path d="M187.163 91.2792C186.607 90.9537 186.336 90.0282 186.551 89.1725C187.018 87.3259 187.742 86.9527 188.711 88.0465C189.305 88.723 189.329 90.0507 188.762 90.8565C188.311 91.4978 187.776 91.6367 187.163 91.2792Z" fill="#17081B"/>
<path d="M177.135 88.8058C177.067 89.9181 176.116 90.7616 175.006 90.6939C173.896 90.6262 173.054 89.6733 173.122 88.561C173.19 87.4487 174.141 86.6052 175.251 86.6729C176.361 86.7406 177.203 87.6935 177.135 88.8058Z" fill="#17081B"/>
<path d="M185.715 108.403C182.09 108.92 178.512 107.952 176.299 106.256C176.116 106.115 176.191 106.079 176.517 106.148C180.041 106.886 183.585 107.338 187.154 107.506C187.433 107.52 187.532 107.578 187.455 107.682C187.192 108.035 186.607 108.274 185.712 108.402L185.715 108.403Z" fill="#FDFDFD"/>
</g>
<defs>
<clipPath id="clip0_929_2941">
<rect width="249" height="295" fill="white" transform="translate(30 23)"/>
</clipPath>
</defs>
</svg>
