<svg width="40" height="40" viewBox="0 0 40 40" fill="none" xmlns="http://www.w3.org/2000/svg">
<g clip-path="url(#clip0_101_1507)">
<path d="M19.9999 23.1605C21.7454 23.1605 23.1604 21.7455 23.1604 20C23.1604 18.2545 21.7454 16.8395 19.9999 16.8395C18.2544 16.8395 16.8394 18.2545 16.8394 20C16.8394 21.7455 18.2544 23.1605 19.9999 23.1605Z" fill="#17081B"/>
<path d="M24.0423 12.0132H15.9581C14.9112 12.0132 13.9072 12.4291 13.1669 13.1693C12.4266 13.9096 12.0107 14.9136 12.0107 15.9606V24.0421C12.0107 25.089 12.4266 26.0931 13.1669 26.8333C13.9072 27.5736 14.9112 27.9895 15.9581 27.9895H24.0423C25.0892 27.9895 26.0933 27.5736 26.8335 26.8333C27.5738 26.0931 27.9897 25.089 27.9897 24.0421V15.9579C27.989 14.9115 27.5728 13.9081 26.8326 13.1684C26.0924 12.4287 25.0888 12.0132 24.0423 12.0132ZM20.0002 25.1737C18.9768 25.1742 17.9763 24.8712 17.1252 24.3031C16.274 23.7349 15.6105 22.9271 15.2185 21.9817C14.8265 21.0364 14.7237 19.9961 14.923 18.9923C15.1223 17.9885 15.6149 17.0664 16.3383 16.3426C17.0618 15.6188 17.9836 15.1258 18.9873 14.9259C19.991 14.7261 21.0313 14.8284 21.9769 15.2199C22.9224 15.6114 23.7306 16.2745 24.2992 17.1254C24.8678 17.9763 25.1713 18.9767 25.1713 20C25.1699 21.3713 24.6247 22.686 23.6553 23.6559C22.6859 24.6258 21.3715 25.1716 20.0002 25.1737ZM25.2028 16.1053C24.9497 16.1058 24.702 16.0312 24.4913 15.8908C24.2806 15.7505 24.1163 15.5508 24.0191 15.317C23.922 15.0832 23.8965 14.8258 23.9457 14.5775C23.995 14.3291 24.1168 14.101 24.2959 13.922C24.4749 13.743 24.703 13.6211 24.9514 13.5718C25.1997 13.5226 25.4571 13.5481 25.6909 13.6453C25.9247 13.7424 26.1244 13.9067 26.2647 14.1174C26.4051 14.3282 26.4797 14.5758 26.4792 14.829C26.4785 15.1673 26.3438 15.4915 26.1046 15.7307C25.8654 15.9699 25.5411 16.1046 25.2028 16.1053Z" fill="#17081B"/>
<path d="M20 0C16.0444 0 12.1776 1.17298 8.8886 3.37061C5.59962 5.56824 3.03617 8.69181 1.52242 12.3463C0.00866564 16.0009 -0.387401 20.0222 0.384303 23.9018C1.15601 27.7814 3.06082 31.3451 5.85787 34.1421C8.65492 36.9392 12.2186 38.844 16.0982 39.6157C19.9778 40.3874 23.9992 39.9913 27.6537 38.4776C31.3082 36.9638 34.4318 34.4004 36.6294 31.1114C38.827 27.8224 40 23.9556 40 20C40 14.6957 37.8929 9.60859 34.1421 5.85786C30.3914 2.10714 25.3043 0 20 0ZM30 24.0421C29.9986 25.6218 29.3705 27.1364 28.2534 28.2534C27.1364 29.3705 25.6218 29.9986 24.0421 30H15.9579C14.3784 29.9979 12.8642 29.3695 11.7473 28.2527C10.6305 27.1358 10.0021 25.6216 10 24.0421V15.9579C10.0021 14.3784 10.6305 12.8642 11.7473 11.7473C12.8642 10.6305 14.3784 10.0021 15.9579 10H24.0421C25.6216 10.0021 27.1358 10.6305 28.2527 11.7473C29.3695 12.8642 29.9979 14.3784 30 15.9579V24.0421Z" fill="#17081B"/>
</g>
<defs>
<clipPath id="clip0_101_1507">
<rect width="40" height="40" fill="white"/>
</clipPath>
</defs>
</svg>
