<svg width="177" height="50" viewBox="0 0 177 50" fill="none" xmlns="http://www.w3.org/2000/svg">
<g clip-path="url(#clip0_916_2)">
<path d="M48.4713 35.3496V17.5416C48.4713 15.8435 49.9552 14.5232 51.9496 14.5232H59.2031C65.0162 14.5232 68.4945 17.8478 68.4945 22.8346C68.4945 28.4658 64.296 31.3847 59.1636 31.3847H55.8989V35.3535C55.8989 37.0834 54.1577 38.3401 52.1673 38.3401C50.1768 38.3401 48.4753 37.0834 48.4753 35.3535L48.4713 35.3496ZM55.8949 25.7496H58.3128C60.2201 25.7496 61.4508 25.002 61.4508 23.0375C61.4508 20.9337 60.2637 20.4247 58.3523 20.4247H55.891V25.7496H55.8949Z" fill="#376144"/>
<path d="M69.4284 35.3496V17.5416C69.4284 15.6088 70.9994 14.5232 72.8633 14.5232H80.6272C86.4403 14.5232 89.788 17.0325 89.788 21.4786C89.788 24.1907 88.1775 26.8393 84.8693 27.8573C87.0734 28.3663 87.8807 29.5196 88.4307 31.0467L89.5348 33.9975C90.4687 36.475 88.6009 38.3401 85.8428 38.3401C84.0185 38.3401 82.7878 37.6283 82.2813 36.137L80.9675 31.9295C80.5441 30.5735 79.9901 29.961 78.803 29.7582L76.8086 29.4878V35.3575C76.8086 37.2902 75.0278 38.3441 73.1165 38.3441C71.2052 38.3441 69.4245 37.2942 69.4245 35.3575L69.4284 35.3496ZM76.8086 25.0378H79.4796C81.2208 25.0378 82.3644 24.1549 82.3644 22.4926C82.3644 20.8304 81.0071 20.2537 79.3965 20.2537H76.8086V25.0378Z" fill="#376144"/>
<path d="M90.3816 26.2229C90.3816 18.6232 95.5141 14.1136 102.811 14.1136C110.108 14.1136 115.241 18.6232 115.241 26.2229C115.241 33.8225 110.065 38.3321 102.811 38.3321C95.5576 38.3321 90.3816 33.8225 90.3816 26.2229ZM107.817 26.2229C107.817 22.425 106.119 20.2179 102.811 20.2179C99.5029 20.2179 97.8053 22.3892 97.8053 26.2229C97.8053 30.0565 99.5425 32.2278 102.811 32.2278C106.08 32.2278 107.817 30.0247 107.817 26.2229Z" fill="#376144"/>
<path d="M115.114 33.4844L120.883 25.7496L115.537 18.8618C113.63 16.6587 115.324 14.1136 118.675 14.1136C120.116 14.1136 121.137 14.726 121.94 15.7759L125.672 21.4388L129.15 15.8435C130.084 14.5868 131.227 14.1494 132.545 14.1494C136.067 14.1494 137.508 16.8297 135.6 18.8976L130.254 25.7496L135.98 33.4844C137.848 35.6876 136.107 38.3361 132.798 38.3361C131.358 38.3361 130.337 37.7595 129.534 36.6738L125.545 30.2633L121.517 36.642C120.67 37.8311 119.649 38.3043 118.208 38.3043C115.027 38.3043 113.203 35.6597 115.11 33.4884L115.114 33.4844Z" fill="#376144"/>
<path d="M159.778 33.9577C160.455 36.2642 159.228 38.3003 156.217 38.3003C154.436 38.3003 152.865 37.5209 152.485 35.6558L151.935 33.0788H145.402L144.852 35.7234C144.472 37.5567 142.774 38.3003 141.033 38.3003C137.978 38.3003 136.835 36.3318 137.638 33.7231L142.557 17.9512C143.364 15.577 145.695 14.1176 148.706 14.1176C151.718 14.1176 154.009 15.577 154.773 18.0188L159.778 33.9617V33.9577ZM149.09 20.6951H148.243L146.546 27.8533H150.744L149.09 20.6951Z" fill="#376144"/>
<path d="M164.444 37.9265C162.07 37.9265 160.795 36.8766 160.795 34.9081V17.132C160.795 15.1992 162.576 14.1136 164.487 14.1136C166.399 14.1136 168.219 15.1634 168.219 17.132V31.9216H173.351C175.176 31.9216 177 33.1425 177 34.94C177 36.7375 175.176 37.9265 173.351 37.9265H164.444Z" fill="#376144"/>
<path d="M36.9322 18.5637C36.9322 19.5977 36.8491 20.6078 36.6829 21.5941C36.4969 22.7394 36.204 23.8529 35.8162 24.9186C35.2187 26.573 34.3917 28.1199 33.3747 29.5158L28.1987 37.2188C27.1619 38.7618 24.9024 38.7618 23.8656 37.2188C22.8288 35.6758 21.5032 33.7113 20.4545 32.1603C19.5998 30.8918 20.2013 29.1579 21.6536 28.6966L21.6971 28.6846C23.8181 28.0086 25.6463 26.6724 26.9482 24.9186C27.6882 23.9324 28.2581 22.8109 28.6142 21.5941C29.1405 19.8562 29.2117 17.9354 28.7567 15.9271C27.9929 12.5509 25.5672 9.75122 22.3184 8.59795C14.8551 5.9534 7.90241 11.4374 7.90241 18.5518C7.90241 21.0294 8.74528 23.312 10.1619 25.1215C10.8268 26.1037 18.4482 37.4176 21.8079 42.4045C22.6864 43.7089 22.6864 45.4149 21.8079 46.7193L20.2369 49.0537C19.398 50.3064 17.5658 50.3104 16.7308 49.0616C14.0835 45.1445 8.8363 37.3421 3.51391 29.4482C3.51391 29.4442 3.506 29.4402 3.506 29.4402C1.20688 26.2588 -0.110851 22.2979 0.00786382 18.0348C0.276951 8.29572 8.16358 0.318305 17.8547 0.00811606C28.3451 -0.325933 36.9322 8.11676 36.9322 18.5637Z" fill="#F47920"/>
<path d="M18.4641 24.7355C21.7708 24.7355 24.4513 22.0417 24.4513 18.7187C24.4513 15.3957 21.7708 12.7018 18.4641 12.7018C15.1575 12.7018 12.4769 15.3957 12.4769 18.7187C12.4769 22.0417 15.1575 24.7355 18.4641 24.7355Z" fill="#376144"/>
</g>
<defs>
<clipPath id="clip0_916_2">
<rect width="177" height="50" fill="white"/>
</clipPath>
</defs>
</svg>
