<svg width="16" height="16" viewBox="0 0 16 16" fill="none" xmlns="http://www.w3.org/2000/svg">
<g clip-path="url(#clip0_153_1947)">
<path d="M15.8169 14.9329L12.5233 11.6392C12.5183 11.634 12.5132 11.6289 12.508 11.6239L4.3835 3.49939C4.378 3.49367 4.37244 3.48811 4.36675 3.48264L1.06743 0.183315C0.823331 -0.0607795 0.427642 -0.0607795 0.183579 0.183315C-0.0604846 0.42741 -0.0605159 0.823099 0.183579 1.06716L2.97696 3.86055C1.55312 4.98158 0.670393 6.2334 0.411424 6.62712C-0.137141 7.46112 -0.137141 8.53894 0.411424 9.37295C0.746175 9.88185 1.69002 11.1884 3.22087 12.3262C4.77085 13.4782 6.38348 14.0624 8.01395 14.0624C9.35787 14.0624 10.6929 13.6625 11.9891 12.8727L14.9331 15.8168C15.0552 15.9388 15.2151 15.9998 15.375 15.9998C15.535 15.9998 15.695 15.9388 15.817 15.8168C16.061 15.5726 16.061 15.1769 15.8169 14.9329ZM5.98363 6.86719L6.8436 7.72716C6.75323 8.12238 6.86195 8.55391 7.16979 8.86176C7.47764 9.1696 7.90914 9.27829 8.30439 9.18794L9.13343 10.017C8.79133 10.2099 8.40374 10.3124 8.0003 10.3124C6.7252 10.3124 5.68788 9.2751 5.68788 8.00003C5.68785 7.59813 5.79073 7.20984 5.98363 6.86719ZM8.01392 12.8123C4.97944 12.8123 2.46378 10.2186 1.45568 8.68597C1.18155 8.26925 1.18155 7.73072 1.45568 7.314C1.69383 6.95194 2.52409 5.77546 3.86766 4.75127L5.07804 5.96165C4.66231 6.55597 4.43788 7.26319 4.43788 8C4.43788 9.96432 6.03595 11.5624 8.00027 11.5624C8.74005 11.5624 9.4454 11.3384 10.0389 10.9225L11.0754 11.959C10.0625 12.5257 9.03552 12.8123 8.01392 12.8123Z" fill="#999999"/>
<path d="M15.6042 6.65139C15.601 6.64617 15.5977 6.64095 15.5943 6.63577C15.2625 6.12623 14.3261 4.81807 12.8021 3.6785C11.2572 2.52334 9.64593 1.93762 8.01317 1.93762C7.3917 1.93762 6.76173 2.02547 6.14082 2.19865C5.80832 2.29144 5.61401 2.63616 5.70673 2.9686C5.79948 3.30107 6.14407 3.49535 6.47667 3.40269C6.98823 3.25997 7.5052 3.18763 8.01314 3.18763C11.0347 3.18763 13.5267 5.76192 14.5341 7.29836C14.5374 7.30358 14.5407 7.3088 14.5441 7.31396C14.6783 7.51808 14.7493 7.75527 14.7493 7.99996C14.7493 8.24465 14.6783 8.48184 14.5441 8.68596C14.2434 9.143 13.8406 9.64434 13.4097 10.0977C13.1718 10.3478 13.1818 10.7434 13.432 10.9812C13.553 11.0962 13.7079 11.1532 13.8625 11.1532C14.0278 11.1532 14.1928 11.0881 14.3156 10.9588C14.9315 10.3109 15.3477 9.73868 15.5884 9.37281C15.8572 8.96412 15.9993 8.4894 15.9993 7.9999C15.9992 7.52014 15.8627 7.05452 15.6042 6.65139Z" fill="#999999"/>
<path d="M11.4795 7.23316C11.1857 5.89534 10.1331 4.83327 8.79783 4.52746C8.46139 4.45055 8.12617 4.66071 8.0491 4.99715C7.97207 5.33362 8.18236 5.66881 8.51879 5.74587C9.38511 5.94425 10.068 6.63325 10.2586 7.50122C10.3226 7.79322 10.5813 7.99229 10.8684 7.99229C10.9128 7.99229 10.9579 7.98754 11.003 7.9776C11.3402 7.9036 11.5535 7.57028 11.4795 7.23316Z" fill="#999999"/>
</g>
<defs>
<clipPath id="clip0_153_1947">
<rect width="16" height="16" fill="white"/>
</clipPath>
</defs>
</svg>
