<svg width="16" height="16" viewBox="0 0 16 16" fill="none" xmlns="http://www.w3.org/2000/svg">
<g clip-path="url(#clip0_153_2017)">
<mask id="mask0_153_2017" style="mask-type:luminance" maskUnits="userSpaceOnUse" x="-3" y="-3" width="22" height="22">
<path d="M18.6673 18.6647H-2.66602V-2.66866H18.6673V18.6647Z" fill="white"/>
</mask>
<g mask="url(#mask0_153_2017)">
<path d="M8.00314 14.0317C6.05948 14.0317 4.27207 13.3318 2.69715 11.9537C1.41284 10.8319 0.591001 9.51946 0.216019 8.83824C-0.0745918 8.31327 -0.0714666 7.6883 0.222269 7.16332C0.6035 6.48211 1.43783 5.1728 2.72527 4.05098C4.30644 2.66979 6.08448 1.96983 8.00626 1.96983C9.93117 1.96983 11.7061 2.66979 13.2873 4.05098C14.5716 5.1728 15.4028 6.48523 15.784 7.16332C16.0746 7.68517 16.0777 8.31014 15.7903 8.83199C15.6121 9.15073 15.3215 9.64133 14.9216 10.1819C14.7153 10.46 14.3247 10.5194 14.0466 10.3132C13.7685 10.1069 13.7091 9.71632 13.9153 9.43821C14.2747 8.95386 14.5341 8.51326 14.6903 8.23202C14.7684 8.08828 14.7684 7.91954 14.6872 7.77579C13.9216 6.40399 11.7373 3.21977 8.00314 3.21977C4.27207 3.21977 2.07843 6.40711 1.30972 7.77579C1.22847 7.91954 1.22847 8.0914 1.30659 8.23202C2.0628 9.60071 4.2252 12.7818 8.00314 12.7818C9.3937 12.7818 10.6999 12.3474 11.8873 11.4881C12.1686 11.285 12.5592 11.3475 12.7592 11.6287C12.9623 11.9068 12.8998 12.3006 12.6185 12.5006C11.2155 13.5161 9.66243 14.0317 8.00314 14.0317Z" fill="#999999"/>
<path d="M7.99787 11.6869C5.96359 11.6869 4.31055 10.0338 4.31055 7.99957C4.31055 5.96529 5.96359 4.31225 7.99787 4.31225C10.0321 4.31225 11.6852 5.96529 11.6852 7.99957C11.6852 10.0338 10.0321 11.6869 7.99787 11.6869ZM7.99787 5.56219C6.65418 5.56219 5.56049 6.65589 5.56049 7.99957C5.56049 9.34325 6.65418 10.437 7.99787 10.437C9.34155 10.437 10.4352 9.34325 10.4352 7.99957C10.4352 6.65589 9.34155 5.56219 7.99787 5.56219Z" fill="#999999"/>
<path d="M8.69889 8.16928C8.22079 8.13803 7.83644 7.73492 7.82706 7.25682C7.82706 7.2537 7.82706 7.24745 7.82706 7.24432C7.82394 6.97246 7.52083 6.81309 7.29584 6.96621C6.9396 7.20682 6.71462 7.62868 6.75211 8.09741C6.79899 8.70675 7.28959 9.19735 7.89893 9.24422C8.36766 9.28172 8.78951 9.05673 9.03013 8.7005C9.18324 8.47551 9.02388 8.1724 8.75202 8.16928C8.73639 8.1724 8.71764 8.16928 8.69889 8.16928Z" fill="#999999"/>
</g>
</g>
<defs>
<clipPath id="clip0_153_2017">
<rect width="16" height="16" fill="white"/>
</clipPath>
</defs>
</svg>
