<svg width="50" height="32" viewBox="0 0 50 32" fill="none" xmlns="http://www.w3.org/2000/svg">
<rect x="0.5" y="0.5" width="49" height="31" rx="2.5" stroke="white" stroke-opacity="0.5"/>
<path d="M11.3197 11.0015H8.51963C8.32802 11.0015 8.16506 11.1407 8.13518 11.3298L7.0027 18.51C6.98018 18.6517 7.0899 18.7794 7.23361 18.7794H8.5704C8.76201 18.7794 8.92497 18.6402 8.95486 18.4506L9.26029 16.514C9.28977 16.3245 9.45313 16.1852 9.64433 16.1852H10.5307C12.3752 16.1852 13.4397 15.2927 13.7177 13.524C13.843 12.7501 13.7231 12.1421 13.3607 11.7163C12.9628 11.2488 12.2569 11.0015 11.3197 11.0015ZM11.6428 13.6239C11.4896 14.6286 10.722 14.6286 9.97966 14.6286H9.55712L9.85355 12.7522C9.87116 12.6388 9.96942 12.5552 10.0841 12.5552H10.2777C10.7834 12.5552 11.2604 12.5552 11.5068 12.8435C11.6538 13.0154 11.6988 13.2709 11.6428 13.6239Z" fill="white"/>
<path d="M19.6895 13.5905H18.3486C18.2344 13.5905 18.1357 13.674 18.1181 13.7874L18.0587 14.1624L17.965 14.0265C17.6747 13.6052 17.0274 13.4644 16.3813 13.4644C14.8996 13.4644 13.634 14.5866 13.3876 16.1609C13.2594 16.9461 13.4416 17.697 13.8871 18.2207C14.2957 18.7022 14.8803 18.9028 15.576 18.9028C16.7698 18.9028 17.4319 18.1351 17.4319 18.1351L17.3721 18.5077C17.3496 18.6502 17.4593 18.7779 17.6022 18.7779H18.81C19.0021 18.7779 19.1642 18.6387 19.1945 18.4492L19.9192 13.8599C19.9421 13.7186 19.8328 13.5905 19.6895 13.5905ZM17.8204 16.2002C17.6911 16.9662 17.0831 17.4804 16.3076 17.4804C15.9182 17.4804 15.6071 17.3556 15.4073 17.1189C15.2091 16.8839 15.1338 16.5494 15.1968 16.1768C15.3176 15.4173 15.9358 14.8863 16.6994 14.8863C17.0802 14.8863 17.3897 15.0128 17.5936 15.2515C17.7979 15.4927 17.879 15.8292 17.8204 16.2002Z" fill="white"/>
<path d="M26.831 13.5903H25.4836C25.355 13.5903 25.2343 13.6542 25.1614 13.7611L23.303 16.4985L22.5152 13.8679C22.4657 13.7033 22.3138 13.5903 22.1418 13.5903H20.8177C20.6568 13.5903 20.5451 13.7476 20.5962 13.899L22.0804 18.2546L20.6851 20.2243C20.5754 20.3795 20.6859 20.5928 20.8755 20.5928H22.2213C22.349 20.5928 22.4686 20.5306 22.541 20.4258L27.0227 13.9568C27.1299 13.802 27.0198 13.5903 26.831 13.5903Z" fill="white"/>
<path d="M31.2916 11.001H28.4911C28.2999 11.001 28.137 11.1402 28.1071 11.3293L26.9746 18.5095C26.9521 18.6512 27.0618 18.7789 27.2047 18.7789H28.6418C28.7753 18.7789 28.8895 18.6815 28.9104 18.5488L29.2318 16.5135C29.2613 16.324 29.4246 16.1848 29.6158 16.1848H30.5018C32.3467 16.1848 33.4108 15.2922 33.6892 13.5235C33.8149 12.7496 33.6941 12.1416 33.3318 11.7158C32.9342 11.2483 32.2288 11.001 31.2916 11.001ZM31.6147 13.6234C31.4619 14.6281 30.6943 14.6281 29.9516 14.6281H29.5294L29.8263 12.7517C29.8439 12.6383 29.9413 12.5548 30.0564 12.5548H30.25C30.7553 12.5548 31.2327 12.5548 31.4791 12.843C31.6261 13.015 31.6707 13.2704 31.6147 13.6234Z" fill="white"/>
<path d="M39.6616 13.5905H38.3216C38.2065 13.5905 38.1087 13.674 38.0915 13.7874L38.0321 14.1624L37.938 14.0265C37.6477 13.6052 37.0008 13.4644 36.3547 13.4644C34.873 13.4644 33.6078 14.5866 33.3613 16.1609C33.2336 16.9461 33.415 17.697 33.8604 18.2207C34.2699 18.7022 34.8537 18.9028 35.5493 18.9028C36.7432 18.9028 37.4053 18.1351 37.4053 18.1351L37.3455 18.5077C37.323 18.6502 37.4327 18.7779 37.5764 18.7779H38.7838C38.975 18.7779 39.138 18.6387 39.1679 18.4492L39.893 13.8599C39.9151 13.7186 39.8054 13.5905 39.6616 13.5905ZM37.7926 16.2002C37.664 16.9662 37.0552 17.4804 36.2798 17.4804C35.8912 17.4804 35.5792 17.3556 35.3794 17.1189C35.1813 16.8839 35.1067 16.5494 35.169 16.1768C35.2906 15.4173 35.908 14.8863 36.6716 14.8863C37.0524 14.8863 37.3619 15.0128 37.5658 15.2515C37.7709 15.4927 37.852 15.8292 37.7926 16.2002Z" fill="white"/>
<path d="M41.2428 11.1973L40.0935 18.5089C40.071 18.6506 40.1807 18.7783 40.3236 18.7783H41.479C41.671 18.7783 41.834 18.6391 41.8635 18.4496L42.9968 11.2698C43.0193 11.1282 42.9096 11 42.7667 11H41.4729C41.3587 11.0004 41.2604 11.0839 41.2428 11.1973Z" fill="white"/>
</svg>
