<svg width="16" height="16" viewBox="0 0 16 16" fill="none" xmlns="http://www.w3.org/2000/svg">
<g clip-path="url(#clip0_164_1969)">
<path d="M15.8154 7.54928L15.2437 6.98153C14.9988 6.73831 14.603 6.73972 14.3598 6.98462C14.2514 7.09375 14.1917 7.23278 14.1803 7.37497H13.6672C13.5232 5.7925 12.8333 4.32381 11.6884 3.18681C10.3952 1.90259 8.67609 1.19531 6.84781 1.19531C5.01953 1.19531 3.30044 1.90256 2.00725 3.18681C0.712844 4.47219 0 6.18153 0 7.99994C0 9.81834 0.712844 11.5277 2.00722 12.8131C3.30041 14.0973 5.0195 14.8046 6.84778 14.8046C7.99231 14.8046 9.12525 14.5182 10.1241 13.9765C10.4275 13.8119 10.5401 13.4326 10.3755 13.1291C10.2109 12.8257 9.83159 12.7131 9.52812 12.8777C8.71169 13.3205 7.78481 13.5546 6.84775 13.5546C3.76116 13.5546 1.25 11.0628 1.25 7.99994C1.25 4.93709 3.76116 2.44531 6.84778 2.44531C9.7215 2.44531 12.0964 4.60522 12.4103 7.37494H8.50706C8.25284 6.70934 7.60494 6.23509 6.84778 6.23509C5.8695 6.23509 5.07359 7.02678 5.07359 7.99994C5.07359 8.97309 5.8695 9.76478 6.84778 9.76478C7.60494 9.76478 8.25288 9.2905 8.50706 8.62494H12.4103C12.3164 9.45419 12.0361 10.2513 11.5858 10.9594C11.4006 11.2507 11.4866 11.637 11.7779 11.8222C12.0691 12.0074 12.4555 11.9214 12.6406 11.6301C13.2187 10.721 13.5685 9.69272 13.6668 8.62494H14.1816C14.1957 8.76209 14.2551 8.89547 14.3598 9.00094C14.482 9.12397 14.6426 9.18556 14.8033 9.18553C14.9625 9.18553 15.1218 9.12506 15.2437 9.004L15.8154 8.43625C15.9335 8.31891 16 8.15928 16 7.99278C16 7.82628 15.9336 7.66663 15.8154 7.54928ZM6.84778 8.51478C6.55875 8.51478 6.32359 8.28381 6.32359 7.99994C6.32359 7.71606 6.55875 7.48509 6.84778 7.48509C7.13681 7.48509 7.37197 7.71606 7.37197 7.99994C7.37197 8.28381 7.13681 8.51478 6.84778 8.51478Z" fill="#999999"/>
</g>
<defs>
<clipPath id="clip0_164_1969">
<rect width="16" height="16" fill="white"/>
</clipPath>
</defs>
</svg>
