<svg width="16" height="16" viewBox="0 0 16 16" fill="none" xmlns="http://www.w3.org/2000/svg">
<g clip-path="url(#clip0_91_1960)">
<path d="M14.6519 13.9667C14.5818 13.6287 14.2506 13.4116 13.913 13.4818C13.575 13.552 13.3578 13.8828 13.428 14.2208C13.4555 14.353 13.422 14.4894 13.3361 14.595C13.289 14.6528 13.1848 14.75 13.0172 14.75H8.62501V12.9486L10.4428 10.3779C11.1017 10.7007 11.6969 11.1547 12.1882 11.7218C12.4142 11.9825 12.809 12.0109 13.0698 11.7849C13.3307 11.5588 13.359 11.1642 13.1329 10.9032C12.3656 10.0175 11.3917 9.35669 10.3129 8.96704C11.0956 8.30725 11.5938 7.32019 11.5938 6.21875C11.5938 5.84082 11.5352 5.47046 11.4218 5.11792C11.5313 5.00269 11.5938 4.849 11.5938 4.6875C11.5938 1.92871 11.2785 0.541138 11.265 0.483398C11.1992 0.200317 10.9469 0 10.6563 0H5.34376C5.05079 0 4.79725 0.203491 4.73366 0.48938C4.72035 0.549561 4.40626 1.99365 4.40626 4.6875C4.40626 4.84924 4.46901 5.00317 4.57863 5.11841C4.46522 5.47156 4.40626 5.84216 4.40626 6.21875C4.40626 7.32141 4.90565 8.30945 5.68983 8.96924C4.96583 9.23157 4.28627 9.61646 3.6858 10.1118C2.49171 11.0968 1.66151 12.4707 1.34816 13.9803C1.24464 14.4789 1.36915 14.9908 1.68971 15.3848C2.00783 15.7758 2.47914 16 2.98292 16H13.0172C13.5173 16 13.9871 15.7754 14.3057 15.3839C14.6299 14.9854 14.7561 14.4688 14.6519 13.9667ZM8.00001 11.6675L6.78493 9.94897C7.17787 9.85962 7.58473 9.8125 8.00001 9.8125C8.41322 9.8125 8.82081 9.85864 9.21632 9.94727L8.00001 11.6675ZM5.87111 1.25H10.1312C10.2042 1.74756 10.3031 2.6272 10.3341 3.88623C9.52553 3.71326 8.72597 3.62683 7.93764 3.62683C7.16871 3.62683 6.41041 3.70923 5.66664 3.87378C5.69874 2.63867 5.79823 1.75342 5.87111 1.25ZM5.65626 6.21875C5.65626 5.82263 5.75538 5.43689 5.94386 5.09326C7.26918 4.80164 8.64943 4.80603 10.0639 5.10693C10.2476 5.4469 10.3438 5.82642 10.3438 6.21875C10.3438 7.51111 9.29237 8.5625 8.00001 8.5625C6.70765 8.5625 5.65626 7.51111 5.65626 6.21875ZM2.65919 14.5958C2.61098 14.5365 2.53541 14.4106 2.57203 14.2345C2.9275 12.5217 4.06557 11.123 5.56154 10.3838L7.37501 12.9486V14.75H2.98292C2.81044 14.75 2.70607 14.6533 2.65919 14.5958ZM11.5625 12.625C11.9077 12.625 12.1875 12.9048 12.1875 13.25C12.1875 13.5952 11.9077 13.875 11.5625 13.875H10.5625C10.2173 13.875 9.93751 13.5952 9.93751 13.25C9.93751 12.9048 10.2173 12.625 10.5625 12.625H11.5625Z" fill="#999999"/>
</g>
<defs>
<clipPath id="clip0_91_1960">
<rect width="16" height="16" fill="white"/>
</clipPath>
</defs>
</svg>
