<svg width="369" height="78" viewBox="0 0 369 78" fill="none" xmlns="http://www.w3.org/2000/svg">
<path opacity="0.2" fill-rule="evenodd" clip-rule="evenodd" d="M140.5 3.5C141.533 3.5 142.557 3.50304 143.572 3.50903C144.4 3.51392 145.075 2.84633 145.08 2.01792C145.085 1.1895 144.418 0.513977 143.589 0.509086C142.569 0.50306 141.539 0.5 140.5 0.5C139.482 0.5 138.47 0.507572 137.464 0.522566C136.635 0.534912 135.974 1.21642 135.986 2.04475C135.998 2.87309 136.68 3.53458 137.508 3.52223C138.499 3.50746 139.497 3.5 140.5 3.5ZM365.866 4.21023C366.86 3.96253 367.861 3.71038 368.87 3.4537L368.13 0.546299C367.126 0.801817 366.129 1.05281 365.14 1.29934C364.337 1.49975 363.847 2.31385 364.048 3.11767C364.248 3.92149 365.062 4.41064 365.866 4.21023ZM148.08 2.05319C148.065 2.88148 148.724 3.56489 149.553 3.57961C151.616 3.61629 153.641 3.66522 155.629 3.72553C156.457 3.75065 157.149 3.09974 157.174 2.2717C157.199 1.44365 156.548 0.752028 155.72 0.726912C153.719 0.666222 151.682 0.616987 149.606 0.580084C148.778 0.56536 148.094 1.22489 148.08 2.05319ZM133.067 2.13159C133.029 1.304 132.328 0.663231 131.501 0.700399C129.468 0.791678 127.462 0.913495 125.481 1.06452C124.655 1.1275 124.037 1.84819 124.1 2.67422C124.163 3.50025 124.883 4.11882 125.709 4.05583C127.659 3.90719 129.634 3.78726 131.635 3.69738C132.463 3.66021 133.104 2.95918 133.067 2.13159ZM160.223 2.38364C160.187 3.2113 160.829 3.91125 161.657 3.94703C163.693 4.03507 165.691 4.13494 167.651 4.2456C168.479 4.29228 169.187 3.65962 169.234 2.83251C169.28 2.0054 168.648 1.29705 167.82 1.25037C165.847 1.13897 163.836 1.03844 161.787 0.94983C160.959 0.914049 160.259 1.55599 160.223 2.38364ZM121.166 2.94468C121.077 2.12108 120.336 1.52584 119.513 1.61516C117.51 1.83236 115.535 2.07961 113.588 2.35539C112.768 2.47156 112.197 3.23068 112.313 4.05092C112.43 4.87116 113.189 5.44192 114.009 5.32575C115.924 5.05455 117.866 4.81135 119.836 4.59767C120.66 4.50835 121.255 3.76828 121.166 2.94468ZM172.276 3.0247C172.218 3.8511 172.841 4.56791 173.667 4.62573C175.717 4.76915 177.727 4.92401 179.699 5.08896C180.524 5.15802 181.25 4.54476 181.319 3.71922C181.388 2.89367 180.774 2.16846 179.949 2.0994C177.964 1.93334 175.941 1.77743 173.877 1.63305C173.05 1.57523 172.334 2.19829 172.276 3.0247ZM184.359 3.99424C184.279 4.81878 184.882 5.55216 185.707 5.63229C187.743 5.83013 189.739 6.03799 191.7 6.25421C192.523 6.34502 193.264 5.75112 193.355 4.92768C193.446 4.10425 192.852 3.3631 192.029 3.27229C190.056 3.0547 188.046 2.8455 185.997 2.64635C185.173 2.56623 184.439 3.16969 184.359 3.99424ZM361.108 3.83582C360.915 3.03007 360.106 2.53293 359.3 2.72542C357.298 3.2037 355.329 3.66301 353.391 4.10391C352.584 4.28772 352.078 5.09156 352.262 5.89934C352.445 6.70712 353.249 7.21294 354.057 7.02913C356.005 6.58578 357.985 6.12403 359.997 5.64331C360.803 5.45082 361.3 4.64158 361.108 3.83582ZM109.37 4.51827C109.226 3.70242 108.448 3.15764 107.632 3.30146C105.636 3.65334 103.671 4.0353 101.736 4.44558C100.925 4.6174 100.407 5.41365 100.579 6.22407C100.751 7.03448 101.547 7.55216 102.358 7.38035C104.259 6.97719 106.191 6.60179 108.153 6.25591C108.969 6.11208 109.514 5.33412 109.37 4.51827ZM196.376 5.28003C196.276 6.1023 196.861 6.85062 197.683 6.95144C199.71 7.20008 201.701 7.45637 203.66 7.71829C204.481 7.82809 205.236 7.25145 205.346 6.43033C205.455 5.60921 204.879 4.85455 204.058 4.74475C202.089 4.48152 200.087 4.22382 198.048 3.97374C197.226 3.87292 196.477 4.45776 196.376 5.28003ZM349.344 6.54608C349.17 5.73624 348.372 5.22122 347.562 5.39575C345.543 5.83087 343.559 6.24528 341.609 6.63967C340.797 6.80389 340.272 7.59527 340.436 8.40726C340.6 9.21924 341.392 9.74436 342.204 9.58013C344.166 9.18317 346.163 8.76616 348.194 8.32842C349.004 8.15389 349.519 7.35591 349.344 6.54608ZM208.362 6.84878C208.245 7.66886 208.814 8.42877 209.634 8.54608C211.655 8.83514 213.644 9.12817 215.608 9.42274C216.427 9.54564 217.191 8.98113 217.314 8.16187C217.437 7.34261 216.872 6.57883 216.053 6.45593C214.084 6.16058 212.088 5.86652 210.059 5.57632C209.239 5.459 208.479 6.0287 208.362 6.84878ZM97.7165 6.88323C97.5164 6.07932 96.7025 5.58983 95.8987 5.78991C93.9354 6.27855 92.0051 6.79629 90.1076 7.3411C89.3114 7.56972 88.8512 8.40055 89.0798 9.1968C89.3084 9.99306 90.1393 10.4532 90.9355 10.2246C92.7989 9.68959 94.6947 9.18109 96.6232 8.7011C97.4271 8.50102 97.9166 7.68713 97.7165 6.88323ZM220.328 8.62171C220.202 9.44049 220.764 10.2064 221.583 10.3325C222.791 10.5185 223.989 10.7039 225.182 10.8883C225.977 11.0114 226.77 11.134 227.561 11.2561C228.38 11.3825 229.146 10.8212 229.273 10.0025C229.399 9.18374 228.838 8.41758 228.019 8.29121C227.23 8.1694 226.437 8.04682 225.641 7.92371C224.448 7.73917 223.247 7.55347 222.039 7.36746C221.22 7.24138 220.455 7.80294 220.328 8.62171ZM337.445 8.9915C337.292 8.17734 336.508 7.64144 335.694 7.79454C333.699 8.16967 331.74 8.5231 329.816 8.85564C329 8.99672 328.452 9.77285 328.593 10.5892C328.734 11.4055 329.511 11.9529 330.327 11.8118C332.266 11.4767 334.239 11.1207 336.248 10.7429C337.062 10.5898 337.598 9.80565 337.445 8.9915ZM86.2416 10.0676C85.9842 9.28019 85.1372 8.85054 84.3498 9.10796C82.421 9.73852 80.5282 10.3968 78.6711 11.0804C77.8937 11.3666 77.4955 12.2288 77.7817 13.0062C78.0678 13.7836 78.9301 14.1819 79.7075 13.8957C81.5303 13.2247 83.3883 12.5785 85.282 11.9594C86.0694 11.702 86.499 10.855 86.2416 10.0676ZM232.287 10.4643C232.164 11.2835 232.728 12.0476 233.547 12.1711C235.553 12.4734 237.55 12.7684 239.543 13.0528C240.363 13.1698 241.122 12.5998 241.24 11.7797C241.357 10.9596 240.787 10.1999 239.966 10.0829C237.983 9.79982 235.995 9.50603 233.994 9.20456C233.175 9.08113 232.41 9.64514 232.287 10.4643ZM325.537 11.0925C325.41 10.2739 324.642 9.71399 323.824 9.84176C321.797 10.1582 319.809 10.4507 317.858 10.7203C317.037 10.8336 316.464 11.5908 316.577 12.4114C316.69 13.2321 317.448 13.8054 318.268 13.692C320.237 13.42 322.243 13.1249 324.287 12.8059C325.105 12.6781 325.665 11.911 325.537 11.0925ZM244.259 12.1942C244.152 13.0156 244.731 13.7684 245.552 13.8756C247.555 14.1367 249.561 14.3841 251.578 14.6143C252.401 14.7082 253.144 14.1172 253.238 13.2941C253.332 12.471 252.741 11.7276 251.918 11.6336C249.919 11.4055 247.929 11.1601 245.94 10.9008C245.119 10.7936 244.366 11.3727 244.259 12.1942ZM313.571 12.7986C313.473 11.976 312.727 11.3885 311.904 11.4863C309.881 11.727 307.897 11.9424 305.95 12.1339C305.126 12.215 304.523 12.9491 304.604 13.7735C304.685 14.598 305.419 15.2006 306.244 15.1195C308.211 14.926 310.215 14.7084 312.258 14.4653C313.081 14.3675 313.669 13.6213 313.571 12.7986ZM256.268 13.6116C256.19 14.4364 256.795 15.1681 257.62 15.246C259.621 15.4349 261.638 15.6043 263.679 15.7513C264.505 15.8107 265.223 15.1891 265.282 14.3629C265.342 13.5366 264.72 12.8185 263.894 12.759C261.877 12.6138 259.882 12.4462 257.902 12.2593C257.077 12.1814 256.346 12.7868 256.268 13.6116ZM301.546 14.0413C301.483 13.2152 300.762 12.5967 299.936 12.6596C297.893 12.8154 295.89 12.9443 293.924 13.0482C293.096 13.092 292.461 13.798 292.505 14.6253C292.548 15.4526 293.255 16.0878 294.082 16.0441C296.072 15.9389 298.098 15.8085 300.164 15.651C300.99 15.588 301.608 14.8673 301.546 14.0413ZM268.323 14.5456C268.284 15.3731 268.922 16.0759 269.75 16.1154C271.748 16.2108 273.773 16.2829 275.83 16.329C276.658 16.3476 277.345 15.6913 277.363 14.8631C277.382 14.0348 276.726 13.3484 275.897 13.3298C273.866 13.2842 271.867 13.213 269.893 13.1188C269.066 13.0793 268.363 13.7181 268.323 14.5456ZM75.0338 14.0758C74.7189 13.3095 73.8426 12.9435 73.0763 13.2583C71.2021 14.0282 69.3669 14.8234 67.5705 15.641C66.8164 15.9841 66.4834 16.8736 66.8265 17.6276C67.1697 18.3816 68.0591 18.7146 68.8131 18.3715C70.576 17.5692 72.3769 16.7889 74.2162 16.0333C74.9825 15.7185 75.3485 14.8421 75.0338 14.0758ZM289.456 14.7496C289.432 13.9215 288.742 13.2693 287.914 13.2928C285.875 13.3506 283.874 13.3816 281.905 13.3877C281.077 13.3903 280.407 14.064 280.41 14.8924C280.412 15.7208 281.086 16.3903 281.914 16.3877C283.908 16.3815 285.935 16.3501 287.999 16.2916C288.827 16.2681 289.479 15.5777 289.456 14.7496ZM64.1727 18.8958C63.8015 18.1552 62.9003 17.8557 62.1596 18.2269C60.3437 19.137 58.5706 20.0689 56.8398 21.0195C56.1137 21.4183 55.8484 22.3302 56.2472 23.0564C56.646 23.7825 57.5579 24.0478 58.284 23.649C59.9822 22.7164 61.722 21.8019 63.5038 20.9089C64.2444 20.5378 64.5439 19.6365 64.1727 18.8958ZM53.6808 24.5295C53.2549 23.819 52.3336 23.5882 51.623 24.0141C49.8769 25.0608 48.1779 26.1246 46.5256 27.2017C45.8316 27.6541 45.6357 28.5834 46.0881 29.2774C46.5404 29.9714 47.4698 30.1673 48.1638 29.7149C49.7851 28.6581 51.4521 27.6143 53.1654 26.5873C53.8759 26.1614 54.1067 25.2401 53.6808 24.5295ZM43.6443 30.9367C43.1662 30.2602 42.2301 30.0994 41.5536 30.5775C39.8878 31.7549 38.2748 32.9427 36.7138 34.1363C36.0557 34.6394 35.9301 35.5808 36.4333 36.239C36.9364 36.8971 37.8778 37.0227 38.5359 36.5195C40.0677 35.3483 41.6506 34.1827 43.2852 33.0274C43.9617 32.5492 44.1225 31.6132 43.6443 30.9367ZM34.1248 38.0734C33.5973 37.4346 32.6519 37.3443 32.013 37.8717C30.435 39.1746 28.9175 40.4782 27.4594 41.7764C26.8407 42.3273 26.7858 43.2755 27.3367 43.8942C27.8876 44.5129 28.8357 44.5679 29.4544 44.017C30.8853 42.743 32.3745 41.4637 33.923 40.1852C34.5619 39.6577 34.6522 38.7123 34.1248 38.0734ZM25.1623 45.9045C24.5886 45.3068 23.6391 45.2874 23.0414 45.8611C21.5459 47.2968 20.124 48.7176 18.7744 50.1148C18.1989 50.7106 18.2154 51.6602 18.8112 52.2358C19.4071 52.8113 20.3567 52.7949 20.9322 52.199C22.2563 50.8282 23.6515 49.4341 25.119 48.0253C25.7166 47.4516 25.736 46.5021 25.1623 45.9045ZM16.8009 54.3976C16.1835 53.8452 15.2353 53.8979 14.6829 54.5153C13.2827 56.0803 11.9797 57.6002 10.7719 59.0612C10.2441 59.6997 10.3338 60.6452 10.9723 61.1731C11.6108 61.7009 12.5563 61.6112 13.0841 60.9727C14.2679 59.5408 15.5454 58.0505 16.9186 56.5157C17.471 55.8983 17.4183 54.95 16.8009 54.3976ZM0.030304 59.7206L-6.10352e-05 77.0411L15.0151 68.4071L9.60571 65.2714C9.8652 64.6552 9.6868 63.9186 9.12985 63.4955C8.47144 62.9954 7.53287 63.1225 7.03104 63.7789L0.030304 59.7206Z" fill="#386145"/>
</svg>
