<svg width="332" height="73" viewBox="0 0 332 73" fill="none" xmlns="http://www.w3.org/2000/svg">
<path opacity="0.2" fill-rule="evenodd" clip-rule="evenodd" d="M2.94364 4.30664C2.19427 3.52653 1.49362 2.74223 0.843567 1.95532L3.15646 0.0446777C3.75589 0.770315 4.40636 1.49883 5.10716 2.22837C5.68105 2.82581 5.66197 3.77536 5.06453 4.34926C4.46709 4.92316 3.51754 4.90407 2.94364 4.30664ZM7.3475 6.43931C7.8742 5.79987 8.81954 5.70848 9.45898 6.23518C10.9151 7.43456 12.5011 8.62469 14.2123 9.7974C14.8956 10.2657 15.0699 11.1993 14.6016 11.8827C14.1333 12.566 13.1996 12.7403 12.5163 12.272C10.7379 11.0532 9.08079 9.81035 7.55163 8.55079C6.91219 8.02408 6.8208 7.07874 7.3475 6.43931ZM17.2146 13.5314C17.6329 12.8163 18.5517 12.5758 19.2667 12.9941C20.9381 13.9718 22.6978 14.9302 24.5423 15.8641C25.2814 16.2383 25.5772 17.1408 25.2029 17.8799C24.8287 18.619 23.9262 18.9148 23.1871 18.5406C21.2909 17.5805 19.4778 16.5932 17.7519 15.5836C17.0369 15.1652 16.7963 14.2465 17.2146 13.5314ZM202.343 18.5111C200.346 18.4221 198.347 18.3798 196.35 18.3872C195.521 18.3903 194.847 17.7212 194.844 16.8928C194.841 16.0644 195.51 15.3903 196.338 15.3873C198.386 15.3797 200.432 15.423 202.476 15.5141C203.304 15.5509 203.945 16.2517 203.908 17.0793C203.871 17.9069 203.171 18.548 202.343 18.5111ZM191.778 16.9812C191.823 17.8084 191.189 18.5158 190.362 18.5613C188.37 18.6707 186.381 18.8326 184.396 19.0497C183.573 19.1398 182.832 18.5453 182.742 17.7218C182.652 16.8983 183.246 16.1576 184.07 16.0675C186.11 15.8443 188.153 15.6781 190.198 15.5658C191.025 15.5203 191.732 16.154 191.778 16.9812ZM206.97 17.2868C207.044 16.4618 207.773 15.8532 208.598 15.9275C210.634 16.111 212.666 16.3391 214.692 16.6087C215.513 16.718 216.09 17.4723 215.981 18.2935C215.871 19.1147 215.117 19.6918 214.296 19.5825C212.311 19.3182 210.321 19.0949 208.329 18.9154C207.504 18.8411 206.895 18.1119 206.97 17.2868ZM179.701 18.1409C179.837 18.958 179.286 19.7311 178.469 19.8678C176.508 20.1958 174.554 20.5811 172.607 21.0265C171.8 21.2113 170.995 20.7064 170.81 19.8988C170.626 19.0913 171.131 18.2868 171.938 18.1021C173.944 17.6432 175.956 17.2465 177.974 16.909C178.791 16.7723 179.564 17.3238 179.701 18.1409ZM219.013 18.7601C219.155 17.944 219.932 17.3973 220.748 17.5392C222.761 17.8891 224.766 18.2776 226.761 18.7015C227.572 18.8737 228.089 19.6702 227.917 20.4805C227.745 21.2909 226.948 21.8082 226.138 21.636C224.178 21.2196 222.209 20.8382 220.234 20.4949C219.418 20.353 218.871 19.5763 219.013 18.7601ZM27.9945 19.1981C28.329 18.4402 29.2146 18.0971 29.9725 18.4316C31.7618 19.2214 33.6157 19.9875 35.5316 20.7263C36.3046 21.0244 36.6895 21.8926 36.3915 22.6655C36.0934 23.4385 35.2252 23.8235 34.4522 23.5254C32.4929 22.7699 30.595 21.9856 28.761 21.1761C28.0032 20.8416 27.66 19.956 27.9945 19.1981ZM167.846 20.6722C168.08 21.467 167.625 22.3008 166.83 22.5345C165.874 22.8158 164.92 23.1126 163.968 23.4251C162.988 23.747 162.01 24.061 161.033 24.3673C160.242 24.6152 159.401 24.1753 159.153 23.3848C158.905 22.5944 159.345 21.7526 160.135 21.5047C161.099 21.2025 162.065 20.8926 163.032 20.5749C164.014 20.2525 164.998 19.9465 165.984 19.6564C166.778 19.4227 167.612 19.8775 167.846 20.6722ZM230.907 21.1718C231.108 20.3679 231.922 19.8787 232.725 20.079C234.708 20.5729 236.679 21.0996 238.636 21.6558C239.433 21.8823 239.895 22.7118 239.669 23.5087C239.442 24.3056 238.613 24.768 237.816 24.5416C235.889 23.994 233.95 23.4758 232 22.99C231.196 22.7897 230.707 21.9756 230.907 21.1718ZM39.3094 23.7161C39.5733 22.9308 40.4239 22.5082 41.2091 22.7721C43.0775 23.4 44.9959 24.0018 46.9623 24.5747C47.7577 24.8064 48.2146 25.639 47.9829 26.4344C47.7512 27.2298 46.9185 27.6867 46.1232 27.455C44.1182 26.8709 42.1609 26.2569 40.2534 25.6158C39.4681 25.3519 39.0455 24.5013 39.3094 23.7161ZM156.197 24.2683C156.424 25.0652 155.961 25.8948 155.164 26.1213C153.186 26.6836 151.215 27.2144 149.253 27.7146C148.45 27.9192 147.634 27.4344 147.429 26.6316C147.224 25.8289 147.709 25.0122 148.512 24.8076C150.447 24.3141 152.392 23.7904 154.344 23.2355C155.141 23.0091 155.971 23.4715 156.197 24.2683ZM242.605 24.3929C242.856 23.6033 243.699 23.1665 244.489 23.4173C246.437 24.036 248.369 24.6817 250.285 25.3513C251.067 25.6247 251.479 26.4803 251.206 27.2623C250.932 28.0443 250.077 28.4566 249.295 28.1832C247.406 27.5228 245.5 26.8862 243.58 26.2766C242.791 26.0258 242.354 25.1825 242.605 24.3929ZM50.9586 27.2386C51.1597 26.435 51.9741 25.9464 52.7778 26.1474C54.6979 26.6277 56.6579 27.0804 58.6561 27.5031C59.4666 27.6746 59.9847 28.4706 59.8132 29.2811C59.6417 30.0916 58.8457 30.6096 58.0352 30.4381C56.0014 30.0079 54.0057 29.547 52.0498 29.0578C51.2462 28.8568 50.7576 28.0423 50.9586 27.2386ZM144.422 27.3542C144.605 28.1623 144.097 28.9652 143.289 29.1476C141.277 29.6016 139.275 30.0238 137.284 30.4149C136.471 30.5746 135.682 30.045 135.523 29.2321C135.363 28.4192 135.892 27.6308 136.705 27.4711C138.669 27.0854 140.644 26.669 142.629 26.2212C143.437 26.0388 144.24 26.5461 144.422 27.3542ZM254.092 28.3165C254.387 27.5422 255.253 27.1532 256.027 27.4478C257.942 28.1762 259.837 28.9261 261.71 29.6942C262.477 30.0085 262.843 30.8846 262.529 31.6511C262.215 32.4176 261.339 32.7842 260.572 32.4699C258.722 31.7112 256.851 30.9707 254.961 30.2517C254.186 29.9572 253.797 29.0907 254.092 28.3165ZM132.479 29.7854C132.616 30.6025 132.064 31.3756 131.247 31.5122C129.213 31.8521 127.192 32.1601 125.183 32.437C124.363 32.5501 123.606 31.9766 123.493 31.1559C123.379 30.3352 123.953 29.5782 124.774 29.4651C126.754 29.1921 128.747 28.8885 130.752 28.5533C131.569 28.4167 132.343 28.9683 132.479 29.7854ZM62.8481 29.8669C62.991 29.0509 63.7683 28.5052 64.5843 28.648C66.5412 28.9906 68.5307 29.3045 70.5513 29.5878C71.3717 29.7028 71.9436 30.4611 71.8285 31.2815C71.7135 32.1019 70.9552 32.6738 70.1348 32.5588C68.0805 32.2707 66.0574 31.9516 64.067 31.6031C63.251 31.4602 62.7052 30.6829 62.8481 29.8669ZM120.426 31.5337C120.515 32.3573 119.92 33.0974 119.097 33.1867C117.046 33.4092 115.011 33.5995 112.991 33.759C112.165 33.8242 111.443 33.2075 111.377 32.3817C111.312 31.5558 111.929 30.8335 112.755 30.7683C114.745 30.6111 116.752 30.4235 118.773 30.2042C119.597 30.1149 120.337 30.7101 120.426 31.5337ZM74.8974 31.6598C74.9853 30.836 75.7243 30.2394 76.548 30.3273C78.5276 30.5384 80.5342 30.7201 82.5664 30.8707C83.3925 30.932 84.0126 31.6513 83.9514 32.4775C83.8902 33.3037 83.1708 33.9237 82.3446 33.8625C80.2802 33.7095 78.2416 33.5249 76.2299 33.3104C75.4062 33.2225 74.8096 32.4835 74.8974 31.6598ZM108.295 32.5792C108.336 33.4067 107.698 34.1104 106.87 34.1511C104.809 34.2524 102.765 34.3218 100.741 34.3604C99.9123 34.3762 99.228 33.7176 99.2122 32.8893C99.1964 32.061 99.855 31.3767 100.683 31.3609C102.678 31.3229 104.692 31.2546 106.723 31.1547C107.551 31.114 108.254 31.7518 108.295 32.5792ZM87.037 32.657C87.0721 31.8293 87.7716 31.1868 88.5992 31.2219C90.5909 31.3065 92.6049 31.3611 94.6402 31.3843C95.4686 31.3938 96.1324 32.073 96.123 32.9013C96.1135 33.7297 95.4343 34.3936 94.6059 34.3841C92.5396 34.3605 90.4946 34.3051 88.472 34.2192C87.6444 34.1841 87.0019 33.4847 87.037 32.657ZM265.356 32.8514C265.689 32.0928 266.574 31.7476 267.332 32.0804C269.212 32.905 271.066 33.7453 272.893 34.5975C273.644 34.9478 273.968 35.8403 273.618 36.591C273.268 37.3418 272.375 37.6665 271.624 37.3162C269.818 36.4734 267.985 35.6427 266.127 34.8277C265.368 34.4948 265.023 33.61 265.356 32.8514ZM276.383 37.9186C276.749 37.1758 277.649 36.8708 278.392 37.2375C280.237 38.1486 282.051 39.0687 283.829 39.9937C284.564 40.376 284.85 41.2817 284.468 42.0166C284.086 42.7516 283.18 43.0375 282.445 42.6553C280.684 41.7396 278.89 40.8291 277.064 39.9276C276.321 39.561 276.016 38.6615 276.383 37.9186ZM287.172 43.4584C287.569 42.7313 288.48 42.4637 289.207 42.8608C291.024 43.853 292.799 44.8459 294.528 45.8347C295.247 46.2459 295.497 47.1623 295.086 47.8814C294.674 48.6006 293.758 48.8502 293.039 48.439C291.326 47.4596 289.569 46.4762 287.77 45.4938C287.043 45.0967 286.775 44.1854 287.172 43.4584ZM297.737 49.4313C298.162 48.7201 299.082 48.488 299.794 48.9129C301.591 49.9867 303.33 51.0491 305.006 52.0934C305.709 52.5315 305.924 53.4567 305.485 54.1597C305.047 54.8628 304.122 55.0776 303.419 54.6395C301.759 53.6047 300.036 52.5521 298.255 51.4883C297.544 51.0634 297.312 50.1425 297.737 49.4313ZM308.087 55.8148C308.538 55.12 309.467 54.9225 310.162 55.3736C311.951 56.5353 313.649 57.6629 315.25 58.7459C315.937 59.21 316.117 60.1425 315.653 60.8287C315.189 61.5149 314.256 61.695 313.57 61.2309C311.984 60.158 310.301 59.0408 308.528 57.8897C307.833 57.4386 307.636 56.5096 308.087 55.8148ZM325.147 56.3868L331.5 72.4999L314.369 69.9457L318.558 64.6754C318.54 64.6628 318.522 64.6502 318.504 64.6375C317.827 64.1603 317.665 63.2245 318.142 62.5473C318.62 61.8702 319.556 61.7081 320.233 62.1854C320.298 62.2314 320.363 62.2773 320.428 62.3231L325.147 56.3868Z" fill="#386145"/>
</svg>
