<svg width="16" height="16" viewBox="0 0 16 16" fill="none" xmlns="http://www.w3.org/2000/svg">
<g clip-path="url(#clip0_139_1080)">
<mask id="mask0_139_1080" style="mask-type:luminance" maskUnits="userSpaceOnUse" x="0" y="0" width="16" height="16">
<path d="M0 9.53674e-07H16V16H0V9.53674e-07Z" fill="white"/>
</mask>
<g mask="url(#mask0_139_1080)">
<path fill-rule="evenodd" clip-rule="evenodd" d="M3.375 4.625C3.375 7.1793 5.4457 9.25 8 9.25C10.5543 9.25 12.625 7.1793 12.625 4.625C12.625 2.0707 10.5543 9.53674e-07 8 9.53674e-07C5.4457 9.53674e-07 3.375 2.0707 3.375 4.625ZM8 8C6.13605 8 4.625 6.48895 4.625 4.625C4.625 2.76105 6.13605 1.25 8 1.25C9.86395 1.25 11.375 2.76105 11.375 4.625C11.375 6.48895 9.86395 8 8 8Z" fill="#999999"/>
<path fill-rule="evenodd" clip-rule="evenodd" d="M0 14.125C0 15.1605 0.839478 16 1.875 16H14.125C15.1606 16 16 15.1605 16 14.125V12.9687C16 11.8943 15.5406 10.8679 14.7309 10.1565C14.2384 9.72382 13.6013 9.30755 12.8194 8.9601C12.5039 8.81993 12.1346 8.96202 11.9944 9.27746C11.8542 9.5929 11.9963 9.96223 12.3118 10.1024C12.9866 10.4023 13.5149 10.7521 13.9058 11.0956L13.9058 11.0956C14.4429 11.5674 14.75 12.2505 14.75 12.9687V14.125C14.75 14.4702 14.4702 14.75 14.125 14.75H1.875C1.52983 14.75 1.25 14.4702 1.25 14.125V12.9687C1.25 12.2505 1.55711 11.5674 2.09418 11.0956L2.09418 11.0956C3.10895 10.204 5.03721 9.25 8 9.25C8.34518 9.25 8.625 8.97018 8.625 8.625C8.625 8.27982 8.34518 8 8 8C4.76504 8 2.53461 9.04469 1.26913 10.1565L1.68166 10.6261L1.26913 10.1565C0.459446 10.8679 0 11.8943 0 12.9687V14.125Z" fill="#999999"/>
</g>
</g>
<defs>
<clipPath id="clip0_139_1080">
<rect width="16" height="16" fill="white"/>
</clipPath>
</defs>
</svg>
